<svg id="icons_spite_60_dark" xmlns="http://www.w3.org/2000/svg" width="600" height="60.002" viewBox="0 0 600 60.002">
  <g id="building" transform="translate(0 -12)">
    <rect id="Rectangle_1" data-name="Rectangle 1" width="60" height="60" transform="translate(0 12)" fill="#eee" opacity="0"/>
    <g id="building-2" data-name="building" transform="translate(-2 10)">
      <path id="Path_683" data-name="Path 683" d="M43,41a5,5,0,1,0,5-5,5,5,0,0,0-5,5Zm8,0a3,3,0,1,1-3-3A3,3,0,0,1,51,41Z" fill="#0d78c4"/>
      <path id="Path_684" data-name="Path 684" d="M51.48,55.31C54.52,51.39,59,44.94,59,41a11.021,11.021,0,0,0-9-10.81V8h2a1,1,0,0,0,1-1V3a1,1,0,0,0-1-1H6A1,1,0,0,0,5,3V7A1,1,0,0,0,6,8H8V48H6a1,1,0,0,0-1,1v3a1,1,0,0,0,1,1H42.79c.6.83,1.19,1.61,1.73,2.31C42.11,55.77,40,56.77,40,58.5c0,2.4,4.15,3.5,8,3.5s8-1.1,8-3.5C56,56.77,53.89,55.77,51.48,55.31ZM7,6V4H51V6ZM45,22H39a1,1,0,0,0-1,1v7H37v2h4.7A10.976,10.976,0,0,0,37,41c0,1.93,1.08,4.46,2.53,7H35V43a6,6,0,0,0-12,0v5H10V8H48V30a11.023,11.023,0,0,0-2,.19V23A1,1,0,0,0,45,22Zm-1,2v6H40V24ZM33,43v5H25V43a4,4,0,0,1,8,0ZM7,51V50H40.74c.22.34.44.67.66,1ZM39,41a9,9,0,0,1,18,0c0,3.87-5.93,11.77-9,15.46C44.93,52.77,39,44.87,39,41Zm9,19c-3.84,0-5.88-1.1-6-1.48.09-.31,1.37-1.1,3.96-1.39.71.87,1.2,1.43,1.29,1.53a1,1,0,0,0,1.5,0c.09-.1.58-.66,1.29-1.53,2.59.29,3.87,1.08,3.96,1.35C53.88,58.9,51.84,60,48,60Z" fill="#0d78c4"/>
      <path id="Path_685" data-name="Path 685" d="M46,18V11a1,1,0,0,0-1-1H39a1,1,0,0,0-1,1v7H37v2H47V18Zm-2,0H40V12h4Z" fill="#0d78c4"/>
      <path id="Path_686" data-name="Path 686" d="M33,18V11a1,1,0,0,0-1-1H26a1,1,0,0,0-1,1v7H24v2H34V18Zm-2,0H27V12h4Z" fill="#0d78c4"/>
      <path id="Path_687" data-name="Path 687" d="M20,18V11a1,1,0,0,0-1-1H13a1,1,0,0,0-1,1v7H11v2H21V18Zm-2,0H14V12h4Z" fill="#0d78c4"/>
      <path id="Path_688" data-name="Path 688" d="M20,30V23a1,1,0,0,0-1-1H13a1,1,0,0,0-1,1v7H11v2H21V30Zm-2,0H14V24h4Z" fill="#0d78c4"/>
      <path id="Path_689" data-name="Path 689" d="M33,30V23a1,1,0,0,0-1-1H26a1,1,0,0,0-1,1v7H24v2H34V30Zm-2,0H27V24h4Z" fill="#0d78c4"/>
    </g>
  </g>
  <g id="employee" transform="translate(60 -12)">
    <rect id="Rectangle_1-2" data-name="Rectangle 1" width="60" height="60" transform="translate(0 12)" fill="#eee" opacity="0"/>
    <g id="employee-2" data-name="employee" transform="translate(-73.447 12)">
      <g id="Group_108" data-name="Group 108" transform="translate(83.447)">
        <path id="Path_690" data-name="Path 690" d="M123.01,48.614a.879.879,0,0,0-.879.879v8.263a.486.486,0,0,1-.485.485h-4.725V40.934a.879.879,0,0,0-1.758,0V58.242H105.65l2.759-3.035a1.576,1.576,0,0,0,.38-1.264c0-.009,0-.018,0-.027l-2.628-15.523.708-1.066a1.993,1.993,0,0,0,1.258.546,1.539,1.539,0,0,0,1.378-.852h0l2.771-5.555,6.314,2.445a6.09,6.09,0,0,1,3.545,5.536v5.945a.879.879,0,0,0,1.758,0V39.447a7.844,7.844,0,0,0-4.639-7.163l-.017-.007-10.508-4.069V25.743a8.235,8.235,0,0,0,3.117-5.417,3.8,3.8,0,0,0,2.235-.912,3.731,3.731,0,0,0,.389-5.265V10.893a10.893,10.893,0,1,0-21.786,0v3.341a3.529,3.529,0,0,0-.906,2.352,3.724,3.724,0,0,0,1.3,2.828,3.8,3.8,0,0,0,2.234.911A8.148,8.148,0,0,0,98.6,25.873v2.334L88.1,32.276l-.017.007a7.844,7.844,0,0,0-4.639,7.163v18.31A2.246,2.246,0,0,0,85.69,60h8.374a.879.879,0,1,0,0-1.758H92.173V40.934a.879.879,0,0,0-1.758,0V58.242H85.69a.486.486,0,0,1-.485-.485V39.447a6.09,6.09,0,0,1,3.544-5.535l6.309-2.446,2.772,5.555a1.539,1.539,0,0,0,1.378.852,1.992,1.992,0,0,0,1.258-.546l.708,1.066L98.546,53.916c0,.009,0,.018,0,.026a1.576,1.576,0,0,0,.38,1.264l2.759,3.035H98.166a.879.879,0,1,0,0,1.758h23.48a2.246,2.246,0,0,0,2.243-2.243V49.493A.879.879,0,0,0,123.01,48.614ZM110.626,30.828l-2.584,5.179L104.935,33.8l3.192-3.939Zm-5.2,5.48-.67,1.009h-2.192l-.67-1.009,1.766-1.254Zm-5.074-7.818V26.846a8.918,8.918,0,0,0,3.323.63,8.251,8.251,0,0,0,3.287-.685V28.5l-3.3,4.076Zm13.258-11.9a1.969,1.969,0,0,1-.684,1.494,2.047,2.047,0,0,1-1.015.467V14.625A1.988,1.988,0,0,1,113.615,16.587ZM95.231,18.548a1.986,1.986,0,0,1-1.7-1.962,2.087,2.087,0,0,1,1.7-1.917Zm.047-5.67a4.345,4.345,0,0,0-.84.189V10.893a9.135,9.135,0,1,1,18.27,0v2.114a3.907,3.907,0,0,0-.792-.153c0-.848.007-.684-2.767-3.667a1.564,1.564,0,0,0-2-.243A16.945,16.945,0,0,1,96.908,11.7,1.563,1.563,0,0,0,95.279,12.878Zm1.711,6.362V13.468a18.782,18.782,0,0,0,10.985-2.963c1.272,1.366,1.961,2.083,2.184,2.355v6.38a6.585,6.585,0,0,1-13.169,0Zm2.3,16.767L96.7,30.828l2.5-.966,3.192,3.94Zm1.008,18.1,2.544-15.031h1.649l2.544,15.031-3.368,3.706Z" transform="translate(-83.447)" fill="#0d78c4"/>
      </g>
    </g>
  </g>
  <g id="resume" transform="translate(120 -12)">
    <rect id="Rectangle_1-3" data-name="Rectangle 1" width="60" height="60" transform="translate(0 12)" fill="#eee" opacity="0"/>
    <g id="resume-2" data-name="resume" transform="translate(-0.007 12)">
      <g id="Group_143" data-name="Group 143" transform="translate(0.007)">
        <g id="Group_142" data-name="Group 142" transform="translate(0)">
          <path id="Path_737" data-name="Path 737" d="M48.358,17.432a1.17,1.17,0,0,0,1.168-1.172V3.516A3.514,3.514,0,0,0,46.023,0H3.511a3.514,3.514,0,0,0-3.5,3.516v52.97A3.514,3.514,0,0,0,3.511,60H46.023a3.514,3.514,0,0,0,3.5-3.516V47.852a1.168,1.168,0,1,0-2.336,0v8.634a1.171,1.171,0,0,1-1.168,1.172H3.511a1.171,1.171,0,0,1-1.168-1.172V3.516A1.171,1.171,0,0,1,3.511,2.344H46.023a1.171,1.171,0,0,1,1.168,1.172V16.26A1.17,1.17,0,0,0,48.358,17.432Z" transform="translate(-0.007 0)" fill="#0d78c4"/>
        </g>
      </g>
      <g id="Group_145" data-name="Group 145" transform="translate(13.94 6.432)">
        <g id="Group_144" data-name="Group 144">
          <path id="Path_738" data-name="Path 738" d="M130.966,54a10.953,10.953,0,0,0-7.518,18.924,1.179,1.179,0,0,0,.128.119,10.938,10.938,0,0,0,14.781,0,1.191,1.191,0,0,0,.128-.119A10.953,10.953,0,0,0,130.966,54Zm0,19.535a8.531,8.531,0,0,1-5.181-1.747,5.956,5.956,0,0,1,10.361,0A8.531,8.531,0,0,1,130.966,73.535Zm-1.906-9.053v-.774a1.906,1.906,0,1,1,3.812,0v.774a1.906,1.906,0,1,1-3.812,0Zm8.808,5.561a8.264,8.264,0,0,0-3.51-2.942,4.266,4.266,0,0,0,.9-2.619v-.774a4.288,4.288,0,0,0-8.576,0v.774a4.266,4.266,0,0,0,.9,2.619,8.264,8.264,0,0,0-3.51,2.942,8.576,8.576,0,1,1,13.8,0Z" transform="translate(-120.007 -54)" fill="#0d78c4"/>
        </g>
      </g>
      <g id="Group_147" data-name="Group 147" transform="translate(23.614 51.187)">
        <g id="Group_146" data-name="Group 146">
          <path id="Path_739" data-name="Path 739" d="M209.63,438H203.2a1.191,1.191,0,0,0,0,2.382h6.432a1.191,1.191,0,1,0,0-2.382Z" transform="translate(-202.007 -438)" fill="#0d78c4"/>
        </g>
      </g>
      <g id="Group_149" data-name="Group 149" transform="translate(13.265 44.737)">
        <g id="Group_148" data-name="Group 148">
          <path id="Path_740" data-name="Path 740" d="M132.113,382H115.2a1.191,1.191,0,0,0,0,2.382h16.915a1.191,1.191,0,1,0,0-2.382Z" transform="translate(-114.007 -382)" fill="#0d78c4"/>
        </g>
      </g>
      <g id="Group_151" data-name="Group 151" transform="translate(13.265 38.179)">
        <g id="Group_150" data-name="Group 150">
          <path id="Path_741" data-name="Path 741" d="M132.113,326H115.2a1.191,1.191,0,0,0,0,2.382h16.915a1.191,1.191,0,1,0,0-2.382Z" transform="translate(-114.007 -326)" fill="#0d78c4"/>
        </g>
      </g>
      <g id="Group_153" data-name="Group 153" transform="translate(8.498 31.62)">
        <g id="Group_152" data-name="Group 152">
          <path id="Path_742" data-name="Path 742" d="M73.321,270.349a1.19,1.19,0,1,0,.349.842A1.2,1.2,0,0,0,73.321,270.349Z" transform="translate(-71.287 -270)" fill="#0d78c4"/>
        </g>
      </g>
      <g id="Group_155" data-name="Group 155" transform="translate(8.498 38.179)">
        <g id="Group_154" data-name="Group 154">
          <path id="Path_743" data-name="Path 743" d="M73.321,326.349a1.19,1.19,0,1,0,.349.842A1.2,1.2,0,0,0,73.321,326.349Z" transform="translate(-71.287 -326)" fill="#0d78c4"/>
        </g>
      </g>
      <g id="Group_157" data-name="Group 157" transform="translate(8.498 44.737)">
        <g id="Group_156" data-name="Group 156">
          <path id="Path_744" data-name="Path 744" d="M73.321,382.349a1.19,1.19,0,1,0,.349.842A1.2,1.2,0,0,0,73.321,382.349Z" transform="translate(-71.287 -382)" fill="#0d78c4"/>
        </g>
      </g>
      <g id="Group_159" data-name="Group 159" transform="translate(13.265 31.62)">
        <g id="Group_158" data-name="Group 158">
          <path id="Path_745" data-name="Path 745" d="M132.113,270H115.2a1.191,1.191,0,0,0,0,2.382h16.915a1.191,1.191,0,1,0,0-2.382Z" transform="translate(-114.007 -270)" fill="#0d78c4"/>
        </g>
      </g>
      <g id="Group_161" data-name="Group 161" transform="translate(34.468 13.865)">
        <g id="Group_160" data-name="Group 160">
          <path id="Path_746" data-name="Path 746" d="M320.628,125.348a5,5,0,0,0-6.834,1.831L298.8,153.142a1.193,1.193,0,0,0-.152.463l-1.055,9.451a1.191,1.191,0,0,0,1.89,1.091l7.657-5.639a1.19,1.19,0,0,0,.325-.364l14.99-25.963A5.009,5.009,0,0,0,320.628,125.348Zm-20.362,35.267.551-4.935,3.447,1.99ZM306,155.922l-4.539-2.621,12.029-20.835,4.539,2.621ZM320.4,130.991l-1.174,2.034-4.539-2.621,1.174-2.034a2.621,2.621,0,0,1,4.539,2.621Z" transform="translate(-297.589 -124.675)" fill="#0d78c4"/>
        </g>
      </g>
    </g>
  </g>
  <g id="mortarboard" transform="translate(180 -12)">
    <rect id="Rectangle_1-4" data-name="Rectangle 1" width="60" height="60" transform="translate(0 12)" fill="#eee" opacity="0"/>
    <g id="mortarboard-2" data-name="mortarboard" transform="translate(0 -3.068)">
      <g id="Group_107" data-name="Group 107" transform="translate(0 17.068)">
        <g id="Group_106" data-name="Group 106">
          <path id="Path_652" data-name="Path 652" d="M343.573,443.756a1,1,0,0,0-1.212.727l-1,4a1,1,0,0,0,.728,1.213.971.971,0,0,0,.243.03,1,1,0,0,0,.969-.757l1-4A1,1,0,0,0,343.573,443.756Z" transform="translate(-301.331 -392.884)" fill="#0d78c4"/>
          <path id="Path_653" data-name="Path 653" d="M30,160.066a.991.991,0,0,0,.382-.076l11-4.552a1,1,0,0,0-.766-1.848L30,157.984,2,146.4v-.332a1,1,0,0,0-2,0v1a1,1,0,0,0,.618.924l29,12A.989.989,0,0,0,30,160.066Z" transform="translate(0 -129.758)" fill="#0d78c4"/>
          <path id="Path_654" data-name="Path 654" d="M117.231,245.645a1,1,0,0,0-1.339-.454,23.307,23.307,0,0,1-9.557,2.18V238.4a1,1,0,0,0-2,0v8.962c-12.417-.4-16.424-7.918-17-9.17V231.4a1,1,0,1,0-2,0v7a1.011,1.011,0,0,0,.071.372c.174.433,4.43,10.628,19.929,10.628a25.7,25.7,0,0,0,11.443-2.416A1,1,0,0,0,117.231,245.645Z" transform="translate(-75.335 -204.831)" fill="#0d78c4"/>
          <path id="Path_655" data-name="Path 655" d="M376.467,452.266a1,1,0,0,0-1,1v3a1,1,0,1,0,2,0v-3A1,1,0,0,0,376.467,452.266Z" transform="translate(-331.467 -400.424)" fill="#0d78c4"/>
          <path id="Path_656" data-name="Path 656" d="M59,32.32a1.008,1.008,0,0,0-1,1.017v.336L46,38.695V36.857l13.382-5.631a1.024,1.024,0,0,0,0-1.879l-29-12.2a.985.985,0,0,0-.764,0l-29,12.2a1.023,1.023,0,0,0,0,1.879l29,12.2a.982.982,0,0,0,.764,0l10.486-4.412a1.022,1.022,0,0,0,.542-1.328,1,1,0,0,0-1.306-.55L30,41.388,3.615,30.286,30,19.184l26.385,11.1L44.9,35.117l-11-4.175A2.466,2.466,0,0,0,34,30.286c0-1.71-1.757-3.051-4-3.051s-4,1.34-4,3.051,1.757,3.051,4,3.051a4.774,4.774,0,0,0,2.588-.725L44,36.945V40.2h0V62a3,3,0,1,0,2,0V56.224a12.353,12.353,0,0,0,3.945-5.268A1.044,1.044,0,0,0,50,50.624V43.506a1,1,0,1,0-2,0v6.93a10.425,10.425,0,0,1-2,3.072V40.894l13.381-5.6A1.017,1.017,0,0,0,60,34.354V33.337A1.008,1.008,0,0,0,59,32.32ZM30,31.3c-1.221,0-2-.6-2-1.017s.779-1.017,2-1.017,2,.6,2,1.017S31.221,31.3,30,31.3ZM45,65.876a1.017,1.017,0,1,1,1-1.017A1.009,1.009,0,0,1,45,65.876Z" transform="translate(0 -17.068)" fill="#0d78c4"/>
          <path id="Path_657" data-name="Path 657" d="M403.036,444.486a1,1,0,0,0-1.94.486l1,4a1,1,0,0,0,.969.757.966.966,0,0,0,.243-.03,1,1,0,0,0,.728-1.213Z" transform="translate(-354.066 -392.887)" fill="#0d78c4"/>
        </g>
      </g>
    </g>
  </g>
  <g id="suitcase" transform="translate(240 -12)">
    <rect id="Rectangle_1-5" data-name="Rectangle 1" width="60" height="60" transform="translate(0 12)" fill="#eee" opacity="0"/>
    <path id="suitcase-2" data-name="suitcase" d="M57,8.947H44V4.971A4.991,4.991,0,0,0,39,0H21a4.991,4.991,0,0,0-5,4.971V8.947H3A2.991,2.991,0,0,0,0,11.93v22.13a3,3,0,0,0,2,2.807V50.7a2.991,2.991,0,0,0,3,2.982H55A2.991,2.991,0,0,0,58,50.7V36.867a3,3,0,0,0,2-2.808V11.93a2.991,2.991,0,0,0-3-2.982ZM18,4.971a2.991,2.991,0,0,1,3-2.982H39a2.991,2.991,0,0,1,3,2.982V8.947H40V4.971a1,1,0,0,0-1-.994H21a1,1,0,0,0-1,.994V8.947H18ZM38,8.947H22V5.965H38ZM56,50.7a1,1,0,0,1-1,.994H5A1,1,0,0,1,4,50.7V37.208l22,3.016v2.524a2.991,2.991,0,0,0,3,2.982h2a2.991,2.991,0,0,0,3-2.982V40.224l22-3.016ZM32,42.749a1,1,0,0,1-1,.994H29a1,1,0,0,1-1-.994V36.784a1,1,0,0,1,1-.994h2a1,1,0,0,1,1,.994Zm26-8.689a1,1,0,0,1-.86.985l-.277.038L34,38.217V36.784A2.991,2.991,0,0,0,31,33.8H29a2.991,2.991,0,0,0-3,2.982v1.433L2.861,35.045A1,1,0,0,1,2,34.059V11.93a1,1,0,0,1,1-.994H57a1,1,0,0,1,1,.994Zm0,0" transform="translate(0 15)" fill="#0d78c4"/>
  </g>
  <g id="language" transform="translate(300 -12)">
    <rect id="Rectangle_1-6" data-name="Rectangle 1" width="60" height="60" transform="translate(0 12)" fill="#eee" opacity="0"/>
    <g id="outline" transform="translate(-15.997 -37)">
      <path id="Path_658" data-name="Path 658" d="M116.919,61.844a1.015,1.015,0,0,0-.367-.735,22.194,22.194,0,0,0-11.988-5c-.73-.073-1.472-.109-2.214-.11h-.032c-.742,0-1.484.037-2.213.11a22.237,22.237,0,0,0-16.437,9.957l-.008.011h0a22.34,22.34,0,0,0,1.449,26.474,1.015,1.015,0,0,0,.734.368h.048a1.015,1.015,0,0,0,.718-.3L116.623,62.61A1.015,1.015,0,0,0,116.919,61.844ZM99.042,77.32H92.809a29.872,29.872,0,0,1,1.259-7.643,64.454,64.454,0,0,0,7.251.527v4.839Zm-16.984,0a20.188,20.188,0,0,1,2.9-9.5,64.115,64.115,0,0,0,7.076,1.562,31.907,31.907,0,0,0-1.259,7.937ZM100.685,58.1c.211-.017.422-.032.634-.042V68.174a62.458,62.458,0,0,1-6.583-.458,29.594,29.594,0,0,1,5.949-9.618ZM97.012,79.35l-3.826,3.826a30.1,30.1,0,0,1-.375-3.826Zm6.338-9.146q1.459-.023,2.921-.113l-2.921,2.921Zm5.137-2.329c-1.7.17-3.421.27-5.137.3V58.056c.212.01.424.025.635.042a29.708,29.708,0,0,1,5.583,8.7ZM97.6,58.585a31.522,31.522,0,0,0-4.925,8.842,62.177,62.177,0,0,1-6.505-1.379A20.191,20.191,0,0,1,97.6,58.585ZM85.985,90.377A20.345,20.345,0,0,1,82.056,79.35h8.722a32.066,32.066,0,0,0,.668,5.566ZM111.111,65.25a31.641,31.641,0,0,0-4.044-6.666,20.152,20.152,0,0,1,7.31,3.4Z" transform="translate(-55.881 0)" fill="#0d78c4"/>
      <path id="Path_659" data-name="Path 659" d="M174.318,119.392a22.4,22.4,0,0,0-1.449-1.962,1.015,1.015,0,0,0-1.5-.071l-30.014,30.014a1.015,1.015,0,0,0,.071,1.5,22.2,22.2,0,0,0,11.988,5,22.744,22.744,0,0,0,4.261.019v5.167a1.015,1.015,0,0,0,1.761.689l9.1-9.864a22.34,22.34,0,0,0,5.778-30.491Zm-7.034,28.892a1.019,1.019,0,0,0-.163.143l-7.417,8.035v-3.712a1.015,1.015,0,0,0-1.159-1.005c-.307.044-.593.079-.873.107a20.631,20.631,0,0,1-4.058,0A20.158,20.158,0,0,1,143.6,148l28.391-28.392q.328.444.629.9A20.31,20.31,0,0,1,167.284,148.284Z" transform="translate(-109.917 -53.546)" fill="#0d78c4"/>
      <ellipse id="Ellipse_14" data-name="Ellipse 14" cx="1.579" cy="2.368" rx="1.579" ry="2.368" transform="translate(43.998 85.965)" fill="#0d78c4"/>
      <ellipse id="Ellipse_15" data-name="Ellipse 15" cx="1.579" cy="2.368" rx="1.579" ry="2.368" transform="translate(50.234 85.965)" fill="#0d78c4"/>
      <ellipse id="Ellipse_16" data-name="Ellipse 16" cx="1.579" cy="2.368" rx="1.579" ry="2.368" transform="translate(56.47 85.965)" fill="#0d78c4"/>
      <path id="Path_660" data-name="Path 660" d="M24.118,104.737a1.015,1.015,0,0,0-1.133.881l-.086.685a26.4,26.4,0,0,1,2.95-34.034,1.015,1.015,0,1,0-1.429-1.443,28.427,28.427,0,0,0-3.228,36.578l-.858-.127a1.015,1.015,0,1,0-.3,2.009l3.426.508a1.015,1.015,0,0,0,1.156-.878L25,105.871a1.015,1.015,0,0,0-.881-1.133Z" transform="translate(0 -12.689)" fill="#0d78c4"/>
      <path id="Path_661" data-name="Path 661" d="M420.89,82.03a1.015,1.015,0,1,0,0-2.03h-3.046a1.015,1.015,0,0,0-1.015,1.015v3.046a1.015,1.015,0,1,0,2.03,0v-.335a26.4,26.4,0,0,1-2.566,34.138,1.015,1.015,0,0,0,1.443,1.429,28.426,28.426,0,0,0,2.39-37.262Z" transform="translate(-349.969 -20.954)" fill="#0d78c4"/>
    </g>
  </g>
  <g id="skill" transform="translate(360 -12)">
    <rect id="Rectangle_1-7" data-name="Rectangle 1" width="60" height="60" transform="translate(0 12)" fill="#eee" opacity="0"/>
  </g>
  <g id="seminar" transform="translate(420 -12)">
    <rect id="Rectangle_1-8" data-name="Rectangle 1" width="60" height="60" transform="translate(0 12)" fill="#eee" opacity="0"/>
    <g id="seminar-2" data-name="seminar" transform="translate(0 12)">
      <path id="Path_662" data-name="Path 662" d="M40.645,42.581H38.71V35.587a6.743,6.743,0,0,0-5.251-6.6l-7.33-1.692V25.389a7.792,7.792,0,0,0,1.856-2.163H30a4.822,4.822,0,0,0,2.9-8.685V11.613a11.613,11.613,0,0,0-23.226,0v2.928a4.822,4.822,0,0,0,2.9,8.685H14.6a7.777,7.777,0,0,0,1.856,2.163v1.906l-7.33,1.692a6.743,6.743,0,0,0-5.251,6.6v6.994H1.935A1.937,1.937,0,0,0,0,44.516v1.935a1.937,1.937,0,0,0,1.935,1.935V60h38.71V48.387a1.937,1.937,0,0,0,1.935-1.935V44.516A1.937,1.937,0,0,0,40.645,42.581ZM17.2,29.109l2.359,1.769-2.385,1.431-.513-3.077Zm8.181,0,.682.158-.614,3.068-2.427-1.456ZM30,21.29H28.778a7.7,7.7,0,0,0,.255-1.935V15.484H30a2.9,2.9,0,1,1,0,5.806ZM11.613,11.613a9.677,9.677,0,0,1,19.355,0v2.033a4.843,4.843,0,0,0-.968-.1h-.968V11.613H27.1v.54a5.673,5.673,0,0,1-2.336,1.217c.038-.037.079-.069.117-.105L23.509,11.9a5.662,5.662,0,0,1-2.62,1.474c.038-.037.079-.069.117-.105L19.638,11.9a5.679,5.679,0,0,1-3.988,1.652h-.166V11.613H13.548v1.935h-.968a4.843,4.843,0,0,0-.968.1Zm.968,9.677a2.9,2.9,0,0,1,0-5.806h.968v3.871A7.7,7.7,0,0,0,13.8,21.29Zm2.9-1.935V15.484h.166a7.563,7.563,0,0,0,2.737-.524v.524h1.134a7.563,7.563,0,0,0,2.737-.524v.524h1.134a7.616,7.616,0,0,0,3.7-.979v4.85a5.778,5.778,0,0,1-.339,1.935H21.29v1.935h4.316a5.8,5.8,0,0,1-10.123-3.871ZM21.29,27.1a7.689,7.689,0,0,0,2.9-.57v1.054l-2.9,2.177-2.9-2.177V26.527A7.689,7.689,0,0,0,21.29,27.1ZM5.806,35.587a4.816,4.816,0,0,1,3.75-4.715l5.214-1.2.96,5.763L21.29,32.1l5.518,3.311L27.949,29.7l5.075,1.171a4.816,4.816,0,0,1,3.75,4.714v6.994H31.936V35.806H30v6.774H12.581V35.806H10.645v6.774H5.806Zm6.774,22.478H10.645V53.226a.968.968,0,0,1,1.935,0Zm9.677,0H20.323V53.226a.968.968,0,0,1,1.935,0Zm9.677,0H30V53.226a.968.968,0,0,1,1.935,0Zm6.774,0H33.871V53.226a2.9,2.9,0,0,0-5.806,0v4.839H24.194V53.226a2.9,2.9,0,0,0-5.806,0v4.839H14.516V53.226a2.9,2.9,0,0,0-5.806,0v4.839H3.871V48.387H38.71ZM1.936,46.452V44.516h38.71l0,1.935Zm0,0" fill="#0d78c4"/>
      <path id="Path_663" data-name="Path 663" d="M324.323,0H306.9A2.907,2.907,0,0,0,304,2.9V14.516a2.907,2.907,0,0,0,2.9,2.9h3.655v5.89l7.331-5.89h6.433a2.907,2.907,0,0,0,2.9-2.9V2.9A2.907,2.907,0,0,0,324.323,0Zm.968,14.516a.968.968,0,0,1-.968.968h-7.115l-4.714,3.788V15.484H306.9a.968.968,0,0,1-.968-.968V2.9a.968.968,0,0,1,.968-.968h17.419a.968.968,0,0,1,.968.968Zm0,0" transform="translate(-267.226 0)" fill="#0d78c4"/>
      <path id="Path_664" data-name="Path 664" d="M336,32h1.935v1.935H336Zm0,0" transform="translate(-295.355 -28.129)" fill="#0d78c4"/>
      <path id="Path_665" data-name="Path 665" d="M368,32h11.613v1.935H368Zm0,0" transform="translate(-323.484 -28.129)" fill="#0d78c4"/>
      <path id="Path_666" data-name="Path 666" d="M336,64h15.484v1.935H336Zm0,0" transform="translate(-295.355 -56.258)" fill="#0d78c4"/>
      <path id="Path_667" data-name="Path 667" d="M336,96h15.484v1.935H336Zm0,0" transform="translate(-295.355 -84.387)" fill="#0d78c4"/>
    </g>
  </g>
  <g id="certificate" transform="translate(480 -12)">
    <rect id="Rectangle_1-9" data-name="Rectangle 1" width="60" height="60" transform="translate(0 12)" fill="#eee" opacity="0"/>
    <g id="certificate-2" data-name="certificate" transform="translate(0 11.984)">
      <path id="Path_668" data-name="Path 668" d="M50.319,214.335l-19.635-6.447a3.963,3.963,0,0,0-5.316-4.029l-13.71-11.847a1,1,0,0,0-1.521.256L8.6,194.945A5.994,5.994,0,0,0,1.3,197.567l-.5.866a6,6,0,0,0,2.242,8.227l15.279,7.832a4.009,4.009,0,0,0,.725,3.377L15.9,223.327a1,1,0,0,0,1.126,1.467l3.135-.841.84,3.135a1,1,0,0,0,.835.732,1.066,1.066,0,0,0,.131.009,1,1,0,0,0,.868-.5l4.315-7.475,10.521,6.8a6,6,0,0,0,8.206-2.2l.5-.865,4.5-7.8a1,1,0,0,0-.556-1.451ZM27.7,205.877a2,2,0,0,1,.732,2.734l-4.5,7.806a2,2,0,0,1-3.466-2l4.5-7.8a2,2,0,0,1,2.74-.738ZM11.27,194.318l10.022,8.663-10.943-7.067Zm-9.133,8.154a3.983,3.983,0,0,1,.4-3.038l.5-.866a4,4,0,0,1,5.425-1.491l14.353,9.269-3.651,6.325L4,204.9a3.973,3.973,0,0,1-1.864-2.43Zm20.169,21.764-.472-1.767a1,1,0,0,0-1.226-.707l-1.768.473,1.811-3.136a3.98,3.98,0,0,0,4.219-.713l.594.382Zm16.406.708-12.667-8.183,3.752-6.5,13.376,6.859a4,4,0,0,1,1.465,5.468l-.5.866a4,4,0,0,1-5.425,1.488Zm8.148-6.2a5.976,5.976,0,0,0-2.729-3.378l-5.166-2.642,9.559,3.138Zm0,0" transform="translate(0 -167.814)" fill="#0d78c4"/>
      <path id="Path_669" data-name="Path 669" d="M170.73,11.028l1.242-3.837a1,1,0,0,0-.5-1.2l-3.588-1.833L166.049.565a1,1,0,0,0-1.2-.5l-3.836,1.246L157.175.069a1,1,0,0,0-1.2.5l-1.832,3.588L150.55,5.991c-.016.009-.027.024-.043.033H132.992a5.01,5.01,0,0,0-5,5v13.76a1,1,0,1,0,2,0V11.028a3,3,0,0,1,3-3h17.332l.971,3-1.242,3.837a1,1,0,0,0,.5,1.2l3.592,1.834,1.834,3.592a1,1,0,0,0,1.2.5l3.831-1.247,1,.324V43.052a1,1,0,0,0,2,0V21.716l.836.27a1,1,0,0,0,1.2-.5l1.834-3.592,3.592-1.834a1,1,0,0,0,.5-1.2Zm-2,.308,1.078,3.334-3.12,1.594a1,1,0,0,0-.435.436l-1.6,3.12-3.335-1.078a.988.988,0,0,0-.615,0l-3.335,1.078-1.594-3.12a1,1,0,0,0-.436-.436l-3.12-1.594,1.078-3.334a.977.977,0,0,0,0-.616L152.22,7.386l3.12-1.594a1,1,0,0,0,.436-.436l1.594-3.12,3.335,1.079a1,1,0,0,0,.615,0l3.335-1.079,1.594,3.12a1,1,0,0,0,.435.436l3.12,1.594-1.079,3.334a1.006,1.006,0,0,0,0,.616Zm0,0" transform="translate(-112.027 0)" fill="#0d78c4"/>
      <path id="Path_670" data-name="Path 670" d="M356.992,48.047a5,5,0,1,0,5,5A5,5,0,0,0,356.992,48.047Zm0,8.006a3,3,0,1,1,3-3A3,3,0,0,1,356.992,56.053Zm0,0" transform="translate(-308.006 -42.023)" fill="#0d78c4"/>
      <path id="Path_671" data-name="Path 671" d="M192.989,194.048H210a1,1,0,1,0,0-2H192.989a1,1,0,1,0,0,2Zm0,0" transform="translate(-168 -168.029)" fill="#0d78c4"/>
      <path id="Path_672" data-name="Path 672" d="M231,232.047h-14.01a1,1,0,0,0,0,2H231a1,1,0,1,0,0-2Zm0,0" transform="translate(-189 -203.03)" fill="#0d78c4"/>
      <path id="Path_673" data-name="Path 673" d="M279.994,272.047h-7.005a1,1,0,0,0,0,2h7.005a1,1,0,1,0,0-2Zm0,0" transform="translate(-237.997 -238.03)" fill="#0d78c4"/>
      <path id="Path_674" data-name="Path 674" d="M194.99,114.048h6a1,1,0,0,0,0-2h-6a3,3,0,1,0,0,6h6a1,1,0,0,0,0-2h-6a1,1,0,0,1,0-2Zm0,0" transform="translate(-167.995 -98.029)" fill="#0d78c4"/>
    </g>
  </g>
  <g id="reference" transform="translate(540 -12)">
    <rect id="Rectangle_1-10" data-name="Rectangle 1" width="60" height="60" transform="translate(0 12)" fill="#eee" opacity="0"/>
    <g id="rating" transform="translate(0 14)">
      <path id="Path_749" data-name="Path 749" d="M248.344,381.172A1.172,1.172,0,1,1,247.172,380,1.172,1.172,0,0,1,248.344,381.172Zm0,0" transform="translate(-217.172 -335.469)" fill="#0d78c4"/>
      <path id="Path_750" data-name="Path 750" d="M373.063,247.031a7.031,7.031,0,1,0-7.031,7.031A7.039,7.039,0,0,0,373.063,247.031Zm-7.031,4.688a4.688,4.688,0,1,1,4.688-4.687A4.693,4.693,0,0,1,366.031,251.719Zm0,0" transform="translate(-316.93 -211.875)" fill="#0d78c4"/>
      <path id="Path_751" data-name="Path 751" d="M49.1,342.344a11.451,11.451,0,0,0-7.9,3.214,14.06,14.06,0,0,0-22.4,0,11.454,11.454,0,0,0-7.9-3.214A10.871,10.871,0,0,0,0,352.891v2.344a1.172,1.172,0,0,0,1.172,1.172H58.828A1.172,1.172,0,0,0,60,355.234v-2.344A10.871,10.871,0,0,0,49.1,342.344ZM2.344,352.891a8.5,8.5,0,0,1,8.555-8.2A8.946,8.946,0,0,1,17.51,347.6a14.063,14.063,0,0,0-1.572,6.464H2.344ZM30,342.344a11.716,11.716,0,0,1,11.719,11.719H18.281A11.729,11.729,0,0,1,30,342.344Zm27.656,11.719H44.062A14.063,14.063,0,0,0,42.49,347.6a8.946,8.946,0,0,1,6.611-2.911,8.5,8.5,0,0,1,8.555,8.2Zm0,0" transform="translate(0 -300.156)" fill="#0d78c4"/>
      <path id="Path_752" data-name="Path 752" d="M47.063,247.031a7.031,7.031,0,1,0-7.031,7.031A7.039,7.039,0,0,0,47.063,247.031Zm-7.031,4.688a4.688,4.688,0,1,1,4.688-4.687A4.693,4.693,0,0,1,40.031,251.719Zm0,0" transform="translate(-29.133 -211.875)" fill="#0d78c4"/>
      <path id="Path_753" data-name="Path 753" d="M194.75,189.375a9.375,9.375,0,1,0-9.375,9.375A9.385,9.385,0,0,0,194.75,189.375Zm-9.375,7.031a7.031,7.031,0,1,1,7.031-7.031A7.039,7.039,0,0,1,185.375,196.406Zm0,0" transform="translate(-155.375 -158.906)" fill="#0d78c4"/>
      <path id="Path_754" data-name="Path 754" d="M194.342,6.816a1.171,1.171,0,0,0-.946-.8l-5.055-.734L186.078.657a1.172,1.172,0,0,0-2.105,0L181.71,5.284l-5.055.733a1.172,1.172,0,0,0-.65,2l3.66,3.567-.864,5.038a1.172,1.172,0,0,0,1.7,1.235l4.523-2.378,4.525,2.378a1.172,1.172,0,0,0,1.7-1.236l-.865-5.037,3.66-3.567a1.172,1.172,0,0,0,.3-1.2Zm-6.034,3.52a1.172,1.172,0,0,0-.337,1.037l.567,3.3-2.967-1.56a1.173,1.173,0,0,0-1.091,0l-2.966,1.56.567-3.3a1.173,1.173,0,0,0-.337-1.037L179.342,8l3.317-.482a1.17,1.17,0,0,0,.884-.645l1.482-3.03,1.482,3.03a1.171,1.171,0,0,0,.884.645L190.708,8Zm0,0" transform="translate(-155.067)" fill="#0d78c4"/>
      <path id="Path_755" data-name="Path 755" d="M379.413,95.051a1.171,1.171,0,0,0-.946-.8l-3.425-.5-1.531-3.1A1.171,1.171,0,0,0,372.461,90h0a1.171,1.171,0,0,0-1.051.653l-1.532,3.1-3.425.5a1.172,1.172,0,0,0-.65,2l2.478,2.417-.585,3.41a1.172,1.172,0,0,0,1.7,1.236l3.064-1.61,3.063,1.61a1.172,1.172,0,0,0,1.7-1.236l-.585-3.41,2.478-2.417A1.171,1.171,0,0,0,379.413,95.051Zm-4.851,2.37a1.17,1.17,0,0,0-.337,1.037l.287,1.677-1.506-.791a1.172,1.172,0,0,0-1.09,0l-1.508.792.288-1.678a1.172,1.172,0,0,0-.337-1.037l-1.219-1.189,1.685-.244a1.172,1.172,0,0,0,.883-.641l.753-1.527.753,1.526a1.172,1.172,0,0,0,.883.641l1.685.244Zm0,0" transform="translate(-322.623 -79.453)" fill="#0d78c4"/>
      <path id="Path_756" data-name="Path 756" d="M39.413,95.051a1.171,1.171,0,0,0-.946-.8l-3.425-.5-1.531-3.1a1.172,1.172,0,0,0-2.1,0l-1.532,3.1-3.425.5a1.172,1.172,0,0,0-.65,2l2.478,2.417-.585,3.41a1.172,1.172,0,0,0,1.7,1.236l3.064-1.61,3.063,1.61a1.172,1.172,0,0,0,1.7-1.236l-.585-3.41,2.478-2.417a1.171,1.171,0,0,0,.3-1.2Zm-4.852,2.37a1.172,1.172,0,0,0-.337,1.037l.288,1.677-1.507-.791a1.171,1.171,0,0,0-1.09,0l-1.508.792.288-1.678a1.171,1.171,0,0,0-.337-1.037l-1.219-1.189,1.685-.244a1.172,1.172,0,0,0,.882-.641l.753-1.527.753,1.526a1.172,1.172,0,0,0,.883.641l1.685.244Zm0,0" transform="translate(-22.467 -79.453)" fill="#0d78c4"/>
      <path id="Path_757" data-name="Path 757" d="M286.143,391.642a1.172,1.172,0,0,0-1.287,1.959,7.073,7.073,0,0,1,2.5,2.87,1.172,1.172,0,0,0,2.116-1.007A9.412,9.412,0,0,0,286.143,391.642Zm0,0" transform="translate(-251.008 -345.576)" fill="#0d78c4"/>
    </g>
  </g>
</svg>
