<svg id="icons_spite_footer_social_20" xmlns="http://www.w3.org/2000/svg" width="100" height="20" viewBox="0 0 100 20">
  <g id="Facebook_Logo" transform="translate(0 -12)">
    <rect id="Rectangle_1" data-name="Rectangle 1" width="20" height="20" transform="translate(0 12)" fill="#eee" opacity="0"/>
    <path id="Facebook_Logo-2" data-name="Facebook_Logo" d="M5.283,17.028V8.513h2.35l.311-2.934H5.283l0-1.469c0-.765.073-1.175,1.172-1.175H7.929V0H5.578C2.754,0,1.76,1.423,1.76,3.817V5.579H0V8.513H1.76v8.515Z" transform="translate(6 14)" fill="#57799c"/>
  </g>
  <g id="Twitter_Logo" transform="translate(20 -12)">
    <rect id="Rectangle_1-2" data-name="Rectangle 1" width="20" height="20" transform="translate(0 12)" fill="#eee" opacity="0"/>
    <path id="Twitter_Logo-2" data-name="Twitter_Logo" d="M8.191,3.708l.037.6-.609-.074a9.913,9.913,0,0,1-5.8-2.855l-.8-.8L.8,1.174A3.551,3.551,0,0,0,1.56,4.816c.488.517.378.591-.463.283a1.437,1.437,0,0,0-.573-.135A4.409,4.409,0,0,0,.963,6.613a3.936,3.936,0,0,0,1.67,1.575l.6.283-.707.012c-.683,0-.707.012-.634.271a3.685,3.685,0,0,0,2.279,2.018l.756.258-.658.394A6.863,6.863,0,0,1,1,12.335a3.609,3.609,0,0,0-1,.1,9.273,9.273,0,0,0,2.353,1.083,10.3,10.3,0,0,0,8-.911,10.7,10.7,0,0,0,4.059-4.775,12.693,12.693,0,0,0,.829-3.692c0-.566.037-.64.719-1.317a8.036,8.036,0,0,0,.853-.948c.122-.234.11-.234-.512-.025-1.036.369-1.182.32-.67-.234A3.58,3.58,0,0,0,16.455.3c0-.037-.183.025-.39.135a6.8,6.8,0,0,1-1.073.418l-.658.209-.6-.406A4.961,4.961,0,0,0,12.7.115a4.164,4.164,0,0,0-2.133.049A3.523,3.523,0,0,0,8.191,3.708Z" transform="translate(2 17)" fill="#57799c"/>
  </g>
  <g id="Instagram_Logo" transform="translate(40 -12)">
    <rect id="Rectangle_1-3" data-name="Rectangle 1" width="20" height="20" transform="translate(0 12)" fill="#eee" opacity="0"/>
    <path id="Instagram_Logo-2" data-name="Instagram_Logo" d="M4.789,16.075A4.794,4.794,0,0,1,0,11.286v-6.5A4.794,4.794,0,0,1,4.789,0h6.5a4.794,4.794,0,0,1,4.789,4.789v6.5a4.794,4.794,0,0,1-4.789,4.789ZM1.617,4.789v6.5a3.172,3.172,0,0,0,3.172,3.172h6.5a3.172,3.172,0,0,0,3.172-3.172v-6.5a3.172,3.172,0,0,0-3.172-3.172h-6.5A3.172,3.172,0,0,0,1.617,4.789ZM3.88,8.037a4.157,4.157,0,1,1,4.157,4.158A4.162,4.162,0,0,1,3.88,8.037Zm1.617,0A2.54,2.54,0,1,0,8.037,5.5,2.54,2.54,0,0,0,5.5,8.037Zm5.709-4.126a1,1,0,1,1,1,1A1,1,0,0,1,11.206,3.911Z" transform="translate(2 15)" fill="#57799c"/>
  </g>
  <g id="Linkedin_Logo" transform="translate(60 -12)">
    <rect id="Rectangle_1-4" data-name="Rectangle 1" width="20" height="20" transform="translate(0 12)" fill="#eee" opacity="0"/>
    <path id="Linkedin_Logo-2" data-name="Linkedin_Logo" d="M5.414,14.858s.044-9.084,0-10.026H8.77V6.251A3.347,3.347,0,0,1,11.8,4.6c2.208,0,3.866,1.433,3.866,4.513v5.746H12.306V9.494c0-1.348-.487-2.265-1.7-2.265A1.833,1.833,0,0,0,8.882,8.445a2.235,2.235,0,0,0-.112.813v5.6Zm-5.217,0V4.832H3.555V14.855ZM1.854,3.465A1.738,1.738,0,1,1,1.9,0a1.739,1.739,0,1,1-.021,3.465Z" transform="translate(2 16)" fill="#57799c"/>
  </g>
  <g id="Youtube_Logo" transform="translate(80 -12)">
    <rect id="Rectangle_1-5" data-name="Rectangle 1" width="20" height="20" transform="translate(0 12)" fill="#eee" opacity="0"/>
    <path id="Youtube_Logo-2" data-name="Youtube_Logo" d="M71.277,118.939c-.461-.82-.962-.971-1.98-1.028s-3.577-.1-5.795-.1-4.782.029-5.8.1-1.518.208-1.984,1.03S55,121.169,55,123.654v.009c0,2.473.244,3.9.719,4.706s.966.969,1.983,1.038,3.579.095,5.8.095,4.777-.035,5.8-.093,1.519-.218,1.98-1.038c.479-.811.721-2.232.721-4.706v-.009C72,121.169,71.758,119.758,71.277,118.939Zm-9.9,7.9v-6.375l5.313,3.188Z" transform="translate(-53.5 -98.813)" fill="#57799c"/>
  </g>
</svg>
