<svg id="icons_spite_60_dark" xmlns="http://www.w3.org/2000/svg" width="300" height="60.002" viewBox="0 0 300 60.002">
  <g id="building" transform="translate(0 -12)">
    <rect id="Rectangle_1" data-name="Rectangle 1" width="60" height="60" transform="translate(0 12)" fill="#eee" opacity="0"/>
    <g id="building-2" data-name="building" transform="translate(-2 10)">
      <path id="Path_683" data-name="Path 683" d="M43,41a5,5,0,1,0,5-5,5,5,0,0,0-5,5Zm8,0a3,3,0,1,1-3-3A3,3,0,0,1,51,41Z" fill="#0d78c4"/>
      <path id="Path_684" data-name="Path 684" d="M51.48,55.31C54.52,51.39,59,44.94,59,41a11.021,11.021,0,0,0-9-10.81V8h2a1,1,0,0,0,1-1V3a1,1,0,0,0-1-1H6A1,1,0,0,0,5,3V7A1,1,0,0,0,6,8H8V48H6a1,1,0,0,0-1,1v3a1,1,0,0,0,1,1H42.79c.6.83,1.19,1.61,1.73,2.31C42.11,55.77,40,56.77,40,58.5c0,2.4,4.15,3.5,8,3.5s8-1.1,8-3.5C56,56.77,53.89,55.77,51.48,55.31ZM7,6V4H51V6ZM45,22H39a1,1,0,0,0-1,1v7H37v2h4.7A10.976,10.976,0,0,0,37,41c0,1.93,1.08,4.46,2.53,7H35V43a6,6,0,0,0-12,0v5H10V8H48V30a11.023,11.023,0,0,0-2,.19V23A1,1,0,0,0,45,22Zm-1,2v6H40V24ZM33,43v5H25V43a4,4,0,0,1,8,0ZM7,51V50H40.74c.22.34.44.67.66,1ZM39,41a9,9,0,0,1,18,0c0,3.87-5.93,11.77-9,15.46C44.93,52.77,39,44.87,39,41Zm9,19c-3.84,0-5.88-1.1-6-1.48.09-.31,1.37-1.1,3.96-1.39.71.87,1.2,1.43,1.29,1.53a1,1,0,0,0,1.5,0c.09-.1.58-.66,1.29-1.53,2.59.29,3.87,1.08,3.96,1.35C53.88,58.9,51.84,60,48,60Z" fill="#0d78c4"/>
      <path id="Path_685" data-name="Path 685" d="M46,18V11a1,1,0,0,0-1-1H39a1,1,0,0,0-1,1v7H37v2H47V18Zm-2,0H40V12h4Z" fill="#0d78c4"/>
      <path id="Path_686" data-name="Path 686" d="M33,18V11a1,1,0,0,0-1-1H26a1,1,0,0,0-1,1v7H24v2H34V18Zm-2,0H27V12h4Z" fill="#0d78c4"/>
      <path id="Path_687" data-name="Path 687" d="M20,18V11a1,1,0,0,0-1-1H13a1,1,0,0,0-1,1v7H11v2H21V18Zm-2,0H14V12h4Z" fill="#0d78c4"/>
      <path id="Path_688" data-name="Path 688" d="M20,30V23a1,1,0,0,0-1-1H13a1,1,0,0,0-1,1v7H11v2H21V30Zm-2,0H14V24h4Z" fill="#0d78c4"/>
      <path id="Path_689" data-name="Path 689" d="M33,30V23a1,1,0,0,0-1-1H26a1,1,0,0,0-1,1v7H24v2H34V30Zm-2,0H27V24h4Z" fill="#0d78c4"/>
    </g>
  </g>
  <g id="employee" transform="translate(60 -12)">
    <rect id="Rectangle_1-2" data-name="Rectangle 1" width="60" height="60" transform="translate(0 12)" fill="#eee" opacity="0"/>
    <g id="employee-2" data-name="employee" transform="translate(-73.447 12)">
      <g id="Group_108" data-name="Group 108" transform="translate(83.447)">
        <path id="Path_690" data-name="Path 690" d="M123.01,48.614a.879.879,0,0,0-.879.879v8.263a.486.486,0,0,1-.485.485h-4.725V40.934a.879.879,0,0,0-1.758,0V58.242H105.65l2.759-3.035a1.576,1.576,0,0,0,.38-1.264c0-.009,0-.018,0-.027l-2.628-15.523.708-1.066a1.993,1.993,0,0,0,1.258.546,1.539,1.539,0,0,0,1.378-.852h0l2.771-5.555,6.314,2.445a6.09,6.09,0,0,1,3.545,5.536v5.945a.879.879,0,0,0,1.758,0V39.447a7.844,7.844,0,0,0-4.639-7.163l-.017-.007-10.508-4.069V25.743a8.235,8.235,0,0,0,3.117-5.417,3.8,3.8,0,0,0,2.235-.912,3.731,3.731,0,0,0,.389-5.265V10.893a10.893,10.893,0,1,0-21.786,0v3.341a3.529,3.529,0,0,0-.906,2.352,3.724,3.724,0,0,0,1.3,2.828,3.8,3.8,0,0,0,2.234.911A8.148,8.148,0,0,0,98.6,25.873v2.334L88.1,32.276l-.017.007a7.844,7.844,0,0,0-4.639,7.163v18.31A2.246,2.246,0,0,0,85.69,60h8.374a.879.879,0,1,0,0-1.758H92.173V40.934a.879.879,0,0,0-1.758,0V58.242H85.69a.486.486,0,0,1-.485-.485V39.447a6.09,6.09,0,0,1,3.544-5.535l6.309-2.446,2.772,5.555a1.539,1.539,0,0,0,1.378.852,1.992,1.992,0,0,0,1.258-.546l.708,1.066L98.546,53.916c0,.009,0,.018,0,.026a1.576,1.576,0,0,0,.38,1.264l2.759,3.035H98.166a.879.879,0,1,0,0,1.758h23.48a2.246,2.246,0,0,0,2.243-2.243V49.493A.879.879,0,0,0,123.01,48.614ZM110.626,30.828l-2.584,5.179L104.935,33.8l3.192-3.939Zm-5.2,5.48-.67,1.009h-2.192l-.67-1.009,1.766-1.254Zm-5.074-7.818V26.846a8.918,8.918,0,0,0,3.323.63,8.251,8.251,0,0,0,3.287-.685V28.5l-3.3,4.076Zm13.258-11.9a1.969,1.969,0,0,1-.684,1.494,2.047,2.047,0,0,1-1.015.467V14.625A1.988,1.988,0,0,1,113.615,16.587ZM95.231,18.548a1.986,1.986,0,0,1-1.7-1.962,2.087,2.087,0,0,1,1.7-1.917Zm.047-5.67a4.345,4.345,0,0,0-.84.189V10.893a9.135,9.135,0,1,1,18.27,0v2.114a3.907,3.907,0,0,0-.792-.153c0-.848.007-.684-2.767-3.667a1.564,1.564,0,0,0-2-.243A16.945,16.945,0,0,1,96.908,11.7,1.563,1.563,0,0,0,95.279,12.878Zm1.711,6.362V13.468a18.782,18.782,0,0,0,10.985-2.963c1.272,1.366,1.961,2.083,2.184,2.355v6.38a6.585,6.585,0,0,1-13.169,0Zm2.3,16.767L96.7,30.828l2.5-.966,3.192,3.94Zm1.008,18.1,2.544-15.031h1.649l2.544,15.031-3.368,3.706Z" transform="translate(-83.447)" fill="#0d78c4"/>
      </g>
    </g>
  </g>
  <g id="resume" transform="translate(120 -12)">
    <rect id="Rectangle_1-3" data-name="Rectangle 1" width="60" height="60" transform="translate(0 12)" fill="#eee" opacity="0"/>
    <g id="resume-2" data-name="resume" transform="translate(-0.007 12)">
      <g id="Group_143" data-name="Group 143" transform="translate(0.007)">
        <g id="Group_142" data-name="Group 142" transform="translate(0)">
          <path id="Path_737" data-name="Path 737" d="M48.358,17.432a1.17,1.17,0,0,0,1.168-1.172V3.516A3.514,3.514,0,0,0,46.023,0H3.511a3.514,3.514,0,0,0-3.5,3.516v52.97A3.514,3.514,0,0,0,3.511,60H46.023a3.514,3.514,0,0,0,3.5-3.516V47.852a1.168,1.168,0,1,0-2.336,0v8.634a1.171,1.171,0,0,1-1.168,1.172H3.511a1.171,1.171,0,0,1-1.168-1.172V3.516A1.171,1.171,0,0,1,3.511,2.344H46.023a1.171,1.171,0,0,1,1.168,1.172V16.26A1.17,1.17,0,0,0,48.358,17.432Z" transform="translate(-0.007 0)" fill="#0d78c4"/>
        </g>
      </g>
      <g id="Group_145" data-name="Group 145" transform="translate(13.94 6.432)">
        <g id="Group_144" data-name="Group 144">
          <path id="Path_738" data-name="Path 738" d="M130.966,54a10.953,10.953,0,0,0-7.518,18.924,1.179,1.179,0,0,0,.128.119,10.938,10.938,0,0,0,14.781,0,1.191,1.191,0,0,0,.128-.119A10.953,10.953,0,0,0,130.966,54Zm0,19.535a8.531,8.531,0,0,1-5.181-1.747,5.956,5.956,0,0,1,10.361,0A8.531,8.531,0,0,1,130.966,73.535Zm-1.906-9.053v-.774a1.906,1.906,0,1,1,3.812,0v.774a1.906,1.906,0,1,1-3.812,0Zm8.808,5.561a8.264,8.264,0,0,0-3.51-2.942,4.266,4.266,0,0,0,.9-2.619v-.774a4.288,4.288,0,0,0-8.576,0v.774a4.266,4.266,0,0,0,.9,2.619,8.264,8.264,0,0,0-3.51,2.942,8.576,8.576,0,1,1,13.8,0Z" transform="translate(-120.007 -54)" fill="#0d78c4"/>
        </g>
      </g>
      <g id="Group_147" data-name="Group 147" transform="translate(23.614 51.187)">
        <g id="Group_146" data-name="Group 146">
          <path id="Path_739" data-name="Path 739" d="M209.63,438H203.2a1.191,1.191,0,0,0,0,2.382h6.432a1.191,1.191,0,1,0,0-2.382Z" transform="translate(-202.007 -438)" fill="#0d78c4"/>
        </g>
      </g>
      <g id="Group_149" data-name="Group 149" transform="translate(13.265 44.737)">
        <g id="Group_148" data-name="Group 148">
          <path id="Path_740" data-name="Path 740" d="M132.113,382H115.2a1.191,1.191,0,0,0,0,2.382h16.915a1.191,1.191,0,1,0,0-2.382Z" transform="translate(-114.007 -382)" fill="#0d78c4"/>
        </g>
      </g>
      <g id="Group_151" data-name="Group 151" transform="translate(13.265 38.179)">
        <g id="Group_150" data-name="Group 150">
          <path id="Path_741" data-name="Path 741" d="M132.113,326H115.2a1.191,1.191,0,0,0,0,2.382h16.915a1.191,1.191,0,1,0,0-2.382Z" transform="translate(-114.007 -326)" fill="#0d78c4"/>
        </g>
      </g>
      <g id="Group_153" data-name="Group 153" transform="translate(8.498 31.62)">
        <g id="Group_152" data-name="Group 152">
          <path id="Path_742" data-name="Path 742" d="M73.321,270.349a1.19,1.19,0,1,0,.349.842A1.2,1.2,0,0,0,73.321,270.349Z" transform="translate(-71.287 -270)" fill="#0d78c4"/>
        </g>
      </g>
      <g id="Group_155" data-name="Group 155" transform="translate(8.498 38.179)">
        <g id="Group_154" data-name="Group 154">
          <path id="Path_743" data-name="Path 743" d="M73.321,326.349a1.19,1.19,0,1,0,.349.842A1.2,1.2,0,0,0,73.321,326.349Z" transform="translate(-71.287 -326)" fill="#0d78c4"/>
        </g>
      </g>
      <g id="Group_157" data-name="Group 157" transform="translate(8.498 44.737)">
        <g id="Group_156" data-name="Group 156">
          <path id="Path_744" data-name="Path 744" d="M73.321,382.349a1.19,1.19,0,1,0,.349.842A1.2,1.2,0,0,0,73.321,382.349Z" transform="translate(-71.287 -382)" fill="#0d78c4"/>
        </g>
      </g>
      <g id="Group_159" data-name="Group 159" transform="translate(13.265 31.62)">
        <g id="Group_158" data-name="Group 158">
          <path id="Path_745" data-name="Path 745" d="M132.113,270H115.2a1.191,1.191,0,0,0,0,2.382h16.915a1.191,1.191,0,1,0,0-2.382Z" transform="translate(-114.007 -270)" fill="#0d78c4"/>
        </g>
      </g>
      <g id="Group_161" data-name="Group 161" transform="translate(34.468 13.865)">
        <g id="Group_160" data-name="Group 160">
          <path id="Path_746" data-name="Path 746" d="M320.628,125.348a5,5,0,0,0-6.834,1.831L298.8,153.142a1.193,1.193,0,0,0-.152.463l-1.055,9.451a1.191,1.191,0,0,0,1.89,1.091l7.657-5.639a1.19,1.19,0,0,0,.325-.364l14.99-25.963A5.009,5.009,0,0,0,320.628,125.348Zm-20.362,35.267.551-4.935,3.447,1.99ZM306,155.922l-4.539-2.621,12.029-20.835,4.539,2.621ZM320.4,130.991l-1.174,2.034-4.539-2.621,1.174-2.034a2.621,2.621,0,0,1,4.539,2.621Z" transform="translate(-297.589 -124.675)" fill="#0d78c4"/>
        </g>
      </g>
    </g>
  </g>
  <g id="mortarboard" transform="translate(180 -12)">
    <rect id="Rectangle_1-4" data-name="Rectangle 1" width="60" height="60" transform="translate(0 12)" fill="#eee" opacity="0"/>
    <g id="mortarboard-2" data-name="mortarboard" transform="translate(0 -3.068)">
      <g id="Group_107" data-name="Group 107" transform="translate(0 17.068)">
        <g id="Group_106" data-name="Group 106">
          <path id="Path_652" data-name="Path 652" d="M343.573,443.756a1,1,0,0,0-1.212.727l-1,4a1,1,0,0,0,.728,1.213.971.971,0,0,0,.243.03,1,1,0,0,0,.969-.757l1-4A1,1,0,0,0,343.573,443.756Z" transform="translate(-301.331 -392.884)" fill="#0d78c4"/>
          <path id="Path_653" data-name="Path 653" d="M30,160.066a.991.991,0,0,0,.382-.076l11-4.552a1,1,0,0,0-.766-1.848L30,157.984,2,146.4v-.332a1,1,0,0,0-2,0v1a1,1,0,0,0,.618.924l29,12A.989.989,0,0,0,30,160.066Z" transform="translate(0 -129.758)" fill="#0d78c4"/>
          <path id="Path_654" data-name="Path 654" d="M117.231,245.645a1,1,0,0,0-1.339-.454,23.307,23.307,0,0,1-9.557,2.18V238.4a1,1,0,0,0-2,0v8.962c-12.417-.4-16.424-7.918-17-9.17V231.4a1,1,0,1,0-2,0v7a1.011,1.011,0,0,0,.071.372c.174.433,4.43,10.628,19.929,10.628a25.7,25.7,0,0,0,11.443-2.416A1,1,0,0,0,117.231,245.645Z" transform="translate(-75.335 -204.831)" fill="#0d78c4"/>
          <path id="Path_655" data-name="Path 655" d="M376.467,452.266a1,1,0,0,0-1,1v3a1,1,0,1,0,2,0v-3A1,1,0,0,0,376.467,452.266Z" transform="translate(-331.467 -400.424)" fill="#0d78c4"/>
          <path id="Path_656" data-name="Path 656" d="M59,32.32a1.008,1.008,0,0,0-1,1.017v.336L46,38.695V36.857l13.382-5.631a1.024,1.024,0,0,0,0-1.879l-29-12.2a.985.985,0,0,0-.764,0l-29,12.2a1.023,1.023,0,0,0,0,1.879l29,12.2a.982.982,0,0,0,.764,0l10.486-4.412a1.022,1.022,0,0,0,.542-1.328,1,1,0,0,0-1.306-.55L30,41.388,3.615,30.286,30,19.184l26.385,11.1L44.9,35.117l-11-4.175A2.466,2.466,0,0,0,34,30.286c0-1.71-1.757-3.051-4-3.051s-4,1.34-4,3.051,1.757,3.051,4,3.051a4.774,4.774,0,0,0,2.588-.725L44,36.945V40.2h0V62a3,3,0,1,0,2,0V56.224a12.353,12.353,0,0,0,3.945-5.268A1.044,1.044,0,0,0,50,50.624V43.506a1,1,0,1,0-2,0v6.93a10.425,10.425,0,0,1-2,3.072V40.894l13.381-5.6A1.017,1.017,0,0,0,60,34.354V33.337A1.008,1.008,0,0,0,59,32.32ZM30,31.3c-1.221,0-2-.6-2-1.017s.779-1.017,2-1.017,2,.6,2,1.017S31.221,31.3,30,31.3ZM45,65.876a1.017,1.017,0,1,1,1-1.017A1.009,1.009,0,0,1,45,65.876Z" transform="translate(0 -17.068)" fill="#0d78c4"/>
          <path id="Path_657" data-name="Path 657" d="M403.036,444.486a1,1,0,0,0-1.94.486l1,4a1,1,0,0,0,.969.757.966.966,0,0,0,.243-.03,1,1,0,0,0,.728-1.213Z" transform="translate(-354.066 -392.887)" fill="#0d78c4"/>
        </g>
      </g>
    </g>
  </g>
  <g id="suitcase" transform="translate(240 -12)">
    <rect id="Rectangle_1-5" data-name="Rectangle 1" width="60" height="60" transform="translate(0 12)" fill="#eee" opacity="0"/>
    <path id="suitcase-2" data-name="suitcase" d="M57,8.947H44V4.971A4.991,4.991,0,0,0,39,0H21a4.991,4.991,0,0,0-5,4.971V8.947H3A2.991,2.991,0,0,0,0,11.93v22.13a3,3,0,0,0,2,2.807V50.7a2.991,2.991,0,0,0,3,2.982H55A2.991,2.991,0,0,0,58,50.7V36.867a3,3,0,0,0,2-2.808V11.93a2.991,2.991,0,0,0-3-2.982ZM18,4.971a2.991,2.991,0,0,1,3-2.982H39a2.991,2.991,0,0,1,3,2.982V8.947H40V4.971a1,1,0,0,0-1-.994H21a1,1,0,0,0-1,.994V8.947H18ZM38,8.947H22V5.965H38ZM56,50.7a1,1,0,0,1-1,.994H5A1,1,0,0,1,4,50.7V37.208l22,3.016v2.524a2.991,2.991,0,0,0,3,2.982h2a2.991,2.991,0,0,0,3-2.982V40.224l22-3.016ZM32,42.749a1,1,0,0,1-1,.994H29a1,1,0,0,1-1-.994V36.784a1,1,0,0,1,1-.994h2a1,1,0,0,1,1,.994Zm26-8.689a1,1,0,0,1-.86.985l-.277.038L34,38.217V36.784A2.991,2.991,0,0,0,31,33.8H29a2.991,2.991,0,0,0-3,2.982v1.433L2.861,35.045A1,1,0,0,1,2,34.059V11.93a1,1,0,0,1,1-.994H57a1,1,0,0,1,1,.994Zm0,0" transform="translate(0 15)" fill="#0d78c4"/>
  </g>
</svg>
