<svg id="icons_spite_20_dark" xmlns="http://www.w3.org/2000/svg" width="120" height="20" viewBox="0 0 120 20">
  <g id="password" transform="translate(0 -12)">
    <rect id="Rectangle_1" data-name="Rectangle 1" width="20" height="20" transform="translate(0 12)" fill="#eee" opacity="0"/>
    <g id="password-2" data-name="password" transform="translate(-31 12)">
      <circle id="Ellipse_17" data-name="Ellipse 17" cx="0.909" cy="0.909" r="0.909" transform="translate(44.281 12.802)" fill="#7be269"/>
      <path id="Path_682" data-name="Path 682" d="M49.2,14.141a.793.793,0,0,0,.8-.781V10.469a3.174,3.174,0,0,0-3.214-3.125H45.82V4.589a4.827,4.827,0,0,0-9.643,0V7.344h-.963A3.174,3.174,0,0,0,32,10.469v6.406A3.174,3.174,0,0,0,35.214,20H46.786A3.174,3.174,0,0,0,50,16.875a.8.8,0,0,0-1.607,0,1.587,1.587,0,0,1-1.607,1.563H35.214a1.587,1.587,0,0,1-1.607-1.562V10.469a1.587,1.587,0,0,1,1.607-1.562H46.786a1.587,1.587,0,0,1,1.607,1.563v2.891A.793.793,0,0,0,49.2,14.141Zm-4.984-6.8H37.784V4.589a3.22,3.22,0,0,1,6.429,0Z" transform="translate(0)" fill="#7be269"/>
      <circle id="Ellipse_18" data-name="Ellipse 18" cx="0.909" cy="0.909" r="0.909" transform="translate(38.59 12.802)" fill="#7be269"/>
      <circle id="Ellipse_19" data-name="Ellipse 19" cx="0.909" cy="0.909" r="0.909" transform="translate(35.766 12.802)" fill="#7be269"/>
      <circle id="Ellipse_20" data-name="Ellipse 20" cx="0.909" cy="0.909" r="0.909" transform="translate(41.457 12.802)" fill="#7be269"/>
    </g>
  </g>
  <g id="enter" transform="translate(20 -12)">
    <rect id="Rectangle_1-2" data-name="Rectangle 1" width="20" height="20" transform="translate(0 12)" fill="#eee" opacity="0"/>
    <g id="enter-2" data-name="enter" transform="translate(-1 11.667)">
      <path id="Path_678" data-name="Path 678" d="M13.907,220.368H.684a.684.684,0,0,1,0-1.368H13.907a.684.684,0,0,1,0,1.368Zm0,0" transform="translate(1 -209.351)" fill="#0d78c4"/>
      <path id="Path_679" data-name="Path 679" d="M224.688,142.294a.684.684,0,0,1-.483-1.168l3.164-3.164L224.2,134.8a.684.684,0,0,1,.968-.968l3.648,3.648a.684.684,0,0,1,0,.967l-3.648,3.648A.679.679,0,0,1,224.688,142.294Zm0,0" transform="translate(-213.442 -127.629)" fill="#0d78c4"/>
      <path id="Path_680" data-name="Path 680" d="M45.847,20.333a9.969,9.969,0,0,1-9.327-6.342.683.683,0,0,1,1.272-.5,8.636,8.636,0,1,0,0-6.32.683.683,0,0,1-1.272-.5,10.017,10.017,0,1,1,9.327,13.658Zm0,0" transform="translate(-34.868)" fill="#0d78c4"/>
    </g>
  </g>
  <g id="refer" transform="translate(40 -12)">
    <rect id="Rectangle_1-3" data-name="Rectangle 1" width="20" height="20" transform="translate(0 12)" fill="#eee" opacity="0"/>
    <path id="refer-2" data-name="refer" d="M15.772,5.781a5.778,5.778,0,1,0-9.047,4.764A10.014,10.014,0,0,0,0,20H1.561a8.445,8.445,0,0,1,8.433-8.437,5.786,5.786,0,0,0,5.778-5.781ZM9.994,10A4.219,4.219,0,1,1,14.21,5.781,4.222,4.222,0,0,1,9.994,10ZM20,14.375l-3.675,3.677-1.1-1.1,1.829-1.83H15.695a3.4,3.4,0,0,0-3.4,3.4V20H10.736V18.51a4.966,4.966,0,0,1,4.958-4.956h1.276L15.22,11.8l1.1-1.1Zm0,0" transform="translate(0 12)" fill="#7be269"/>
  </g>
  <g id="user" transform="translate(60 -12)">
    <rect id="Rectangle_1-4" data-name="Rectangle 1" width="20" height="20" transform="translate(0 12)" fill="#eee" opacity="0"/>
    <g id="user-2" data-name="user" transform="translate(0 12)">
      <g id="Group_120" data-name="Group 120" transform="translate(0)">
        <path id="Path_728" data-name="Path 728" d="M17.071,12.929a9.962,9.962,0,0,0-3.8-2.383,5.781,5.781,0,1,0-6.542,0A10.016,10.016,0,0,0,0,20H1.562a8.437,8.437,0,1,1,16.875,0H20A9.935,9.935,0,0,0,17.071,12.929ZM10,10a4.219,4.219,0,1,1,4.219-4.219A4.223,4.223,0,0,1,10,10Z" transform="translate(0)" fill="#7be269"/>
      </g>
    </g>
  </g>
  <g id="settings" transform="translate(80 -12)">
    <rect id="Rectangle_1-5" data-name="Rectangle 1" width="20" height="20" transform="translate(0 12)" fill="#eee" opacity="0"/>
    <g id="settings-2" data-name="settings" transform="translate(0 12)">
      <g id="Group_100" data-name="Group 100">
        <path id="Path_626" data-name="Path 626" d="M18.976,7.9l-1.4-.238A7.927,7.927,0,0,0,17.008,6.3l.827-1.157A1.232,1.232,0,0,0,17.7,3.552L16.457,2.307a1.226,1.226,0,0,0-.873-.363,1.214,1.214,0,0,0-.714.23L13.708,3A7.844,7.844,0,0,0,12.3,2.42l-.234-1.387A1.234,1.234,0,0,0,10.842,0H9.083a1.234,1.234,0,0,0-1.22,1.032L7.621,2.453a7.731,7.731,0,0,0-1.358.572L5.114,2.2a1.234,1.234,0,0,0-1.592.134L2.273,3.577a1.237,1.237,0,0,0-.134,1.592l.836,1.174a7.742,7.742,0,0,0-.556,1.366l-1.387.234A1.234,1.234,0,0,0,0,9.163v1.759a1.234,1.234,0,0,0,1.032,1.22l1.421.242a7.731,7.731,0,0,0,.572,1.358L2.2,14.887a1.232,1.232,0,0,0,.134,1.592l1.245,1.245a1.226,1.226,0,0,0,.873.363,1.214,1.214,0,0,0,.714-.23l1.174-.836a7.9,7.9,0,0,0,1.32.543l.234,1.4A1.234,1.234,0,0,0,9.116,20h1.763a1.234,1.234,0,0,0,1.22-1.032l.238-1.4A7.926,7.926,0,0,0,13.7,17l1.157.827a1.227,1.227,0,0,0,.719.23h0a1.226,1.226,0,0,0,.873-.363l1.245-1.245a1.237,1.237,0,0,0,.134-1.592L17,13.7a7.87,7.87,0,0,0,.564-1.362l1.4-.234A1.234,1.234,0,0,0,20,10.88V9.121A1.219,1.219,0,0,0,18.976,7.9Zm-.1,2.979a.108.108,0,0,1-.092.109l-1.755.292a.561.561,0,0,0-.451.414,6.688,6.688,0,0,1-.727,1.751.565.565,0,0,0,.025.614l1.032,1.454a.114.114,0,0,1-.013.142L15.655,16.9a.106.106,0,0,1-.079.033.1.1,0,0,1-.063-.021l-1.45-1.032a.565.565,0,0,0-.614-.025,6.688,6.688,0,0,1-1.751.727.555.555,0,0,0-.414.451l-.3,1.755a.108.108,0,0,1-.109.092H9.12a.108.108,0,0,1-.109-.092l-.292-1.755a.561.561,0,0,0-.414-.451,6.945,6.945,0,0,1-1.713-.7.578.578,0,0,0-.284-.075.55.55,0,0,0-.326.1l-1.462,1.04a.124.124,0,0,1-.063.021.112.112,0,0,1-.079-.033L3.133,15.693a.113.113,0,0,1-.013-.142L4.149,14.11a.572.572,0,0,0,.025-.618,6.625,6.625,0,0,1-.735-1.746.572.572,0,0,0-.451-.414l-1.767-.3a.108.108,0,0,1-.092-.109V9.163a.108.108,0,0,1,.092-.109l1.742-.292a.565.565,0,0,0,.455-.418A6.681,6.681,0,0,1,4.132,6.59.558.558,0,0,0,4.1,5.98L3.062,4.517a.114.114,0,0,1,.013-.142L4.32,3.13A.106.106,0,0,1,4.4,3.1a.1.1,0,0,1,.063.021L5.9,4.146a.572.572,0,0,0,.618.025,6.625,6.625,0,0,1,1.746-.735.572.572,0,0,0,.414-.451l.3-1.767a.108.108,0,0,1,.109-.092H10.85a.108.108,0,0,1,.109.092l.292,1.742a.565.565,0,0,0,.418.455,6.781,6.781,0,0,1,1.792.735.565.565,0,0,0,.614-.025l1.441-1.036a.124.124,0,0,1,.063-.021.112.112,0,0,1,.079.033L16.9,4.346a.113.113,0,0,1,.013.142l-1.032,1.45a.565.565,0,0,0-.025.614A6.688,6.688,0,0,1,16.586,8.3a.555.555,0,0,0,.451.414l1.755.3a.108.108,0,0,1,.092.109V10.88Z" transform="translate(0 -0.001)" fill="#e92e18"/>
        <path id="Path_627" data-name="Path 627" d="M140.423,136a4.323,4.323,0,1,0,4.323,4.323A4.326,4.326,0,0,0,140.423,136Zm0,7.516a3.193,3.193,0,1,1,3.193-3.193A3.2,3.2,0,0,1,140.423,143.517Z" transform="translate(-130.421 -130.326)" fill="#e92e18"/>
      </g>
    </g>
  </g>
  <g id="checked" transform="translate(100 -12)">
    <rect id="Rectangle_1-6" data-name="Rectangle 1" width="20" height="20" transform="translate(0 12)" fill="#eee" opacity="0"/>
    <g id="checked-2" data-name="checked" transform="translate(0 12)">
      <g id="Group_96" data-name="Group 96" transform="translate(4.749 2.513)">
        <g id="Group_95" data-name="Group 95">
          <path id="Path_613" data-name="Path 613" d="M136.246,64.549a.754.754,0,0,0-1.066,0l-9.042,9.018-3.262-3.543a.754.754,0,0,0-1.109,1.021l3.794,4.12a.753.753,0,0,0,.538.243h.016a.755.755,0,0,0,.532-.22l9.6-9.572A.754.754,0,0,0,136.246,64.549Z" transform="translate(-121.568 -64.327)" fill="#7be269"/>
        </g>
      </g>
      <g id="Group_98" data-name="Group 98">
        <g id="Group_97" data-name="Group 97">
          <path id="Path_614" data-name="Path 614" d="M19.245,9.246a.754.754,0,0,0-.754.754A8.492,8.492,0,1,1,10,1.507.754.754,0,1,0,10,0,10,10,0,1,0,20,10,.754.754,0,0,0,19.245,9.246Z" fill="#7be269"/>
        </g>
      </g>
    </g>
  </g>
</svg>
