<svg id="icons_spite_footer_social_20" xmlns="http://www.w3.org/2000/svg" width="80" height="20" viewBox="0 0 80 20">
  <g id="Facebook_Logo" transform="translate(0 -12)">
    <rect id="Rectangle_1" data-name="Rectangle 1" width="20" height="20" transform="translate(0 12)" fill="#eee" opacity="0"/>
    <path id="Facebook_Logo-2" data-name="Facebook_Logo" d="M5.283,17.028V8.513h2.35l.311-2.934H5.283l0-1.469c0-.765.073-1.175,1.172-1.175H7.929V0H5.578C2.754,0,1.76,1.423,1.76,3.817V5.579H0V8.513H1.76v8.515Z" transform="translate(6 14)" fill="#57799c"/>
  </g>
  <g id="Twitter_Logo" transform="translate(20 -12)">
    <rect id="Rectangle_1-2" data-name="Rectangle 1" width="20" height="20" transform="translate(0 12)" fill="#eee" opacity="0"/>
    <path id="Twitter_Logo-2" data-name="Twitter_Logo" d="M8.191,3.708l.037.6-.609-.074a9.913,9.913,0,0,1-5.8-2.855l-.8-.8L.8,1.174A3.551,3.551,0,0,0,1.56,4.816c.488.517.378.591-.463.283a1.437,1.437,0,0,0-.573-.135A4.409,4.409,0,0,0,.963,6.613a3.936,3.936,0,0,0,1.67,1.575l.6.283-.707.012c-.683,0-.707.012-.634.271a3.685,3.685,0,0,0,2.279,2.018l.756.258-.658.394A6.863,6.863,0,0,1,1,12.335a3.609,3.609,0,0,0-1,.1,9.273,9.273,0,0,0,2.353,1.083,10.3,10.3,0,0,0,8-.911,10.7,10.7,0,0,0,4.059-4.775,12.693,12.693,0,0,0,.829-3.692c0-.566.037-.64.719-1.317a8.036,8.036,0,0,0,.853-.948c.122-.234.11-.234-.512-.025-1.036.369-1.182.32-.67-.234A3.58,3.58,0,0,0,16.455.3c0-.037-.183.025-.39.135a6.8,6.8,0,0,1-1.073.418l-.658.209-.6-.406A4.961,4.961,0,0,0,12.7.115a4.164,4.164,0,0,0-2.133.049A3.523,3.523,0,0,0,8.191,3.708Z" transform="translate(2 15.191)" fill="#57799c"/>
  </g>
  <g id="Instagram_Logo" transform="translate(40 -12)">
    <rect id="Rectangle_1-3" data-name="Rectangle 1" width="20" height="20" transform="translate(0 12)" fill="#eee" opacity="0"/>
    <path id="Instagram_Logo-2" data-name="Instagram_Logo" d="M5.384,18.075A5.391,5.391,0,0,1,0,12.69V5.384A5.39,5.39,0,0,1,5.384,0H12.69a5.391,5.391,0,0,1,5.385,5.384V12.69a5.391,5.391,0,0,1-5.385,5.385ZM1.818,5.384V12.69a3.566,3.566,0,0,0,3.566,3.566H12.69a3.566,3.566,0,0,0,3.566-3.566V5.384A3.566,3.566,0,0,0,12.69,1.818H5.384A3.566,3.566,0,0,0,1.818,5.384ZM4.363,9.037a4.675,4.675,0,1,1,4.675,4.675A4.68,4.68,0,0,1,4.363,9.037Zm1.818,0A2.856,2.856,0,1,0,9.037,6.181,2.856,2.856,0,0,0,6.181,9.037ZM12.6,4.4a1.12,1.12,0,1,1,1.121,1.12A1.121,1.121,0,0,1,12.6,4.4Z" transform="translate(1 13)" fill="#57799c"/>
  </g>
  <g id="Linkedin_Logo" transform="translate(60 -12)">
    <rect id="Rectangle_1-4" data-name="Rectangle 1" width="20" height="20" transform="translate(0 12)" fill="#eee" opacity="0"/>
    <path id="Linkedin_Logo-2" data-name="Linkedin_Logo" d="M5.414,14.858s.044-9.084,0-10.026H8.77V6.251A3.347,3.347,0,0,1,11.8,4.6c2.208,0,3.866,1.433,3.866,4.513v5.746H12.306V9.494c0-1.348-.487-2.265-1.7-2.265A1.833,1.833,0,0,0,8.882,8.445a2.235,2.235,0,0,0-.112.813v5.6Zm-5.217,0V4.832H3.555V14.855ZM1.854,3.465A1.738,1.738,0,1,1,1.9,0a1.739,1.739,0,1,1-.021,3.465Z" transform="translate(2 14.096)" fill="#57799c"/>
  </g>
</svg>
