<svg id="icons_spite_resume_preview_60" xmlns="http://www.w3.org/2000/svg" width="540" height="60" viewBox="0 0 540 60">
  <g id="summary" transform="translate(0 -12)">
    <rect id="Rectangle_1" data-name="Rectangle 1" width="60" height="60" transform="translate(0 12)" fill="#eee" opacity="0"/>
    <g id="report" transform="translate(15 23)">
      <path id="Path_647" data-name="Path 647" d="M0,34.632A3.361,3.361,0,0,0,3.332,38H22.893a3.33,3.33,0,0,0,3.261-2.8,3.356,3.356,0,0,0,2.774-3.325V16.7h1.59a.542.542,0,0,0,.313-.092l2.908-2.016a.634.634,0,0,0,0-1.025l-2.908-2.037a.567.567,0,0,0-.313-.116h-1.59V8.072a.776.776,0,0,0-.255-.528l-6.62-7.2A.6.6,0,0,0,21.918.2L21.9.181A.555.555,0,0,0,21.49,0H6.058A3.343,3.343,0,0,0,2.786,2.8,3.366,3.366,0,0,0,0,6.128ZM9.762,15.476V12.641h20.17v2.835Zm21.319-.5V13.192l1.281.89ZM22.18,2.208l4.762,5.224H22.948a.725.725,0,0,1-.536-.222.827.827,0,0,1-.231-.563ZM6.058,1.226H21.032V6.646a1.964,1.964,0,0,0,1.916,2.011h4.831v2.758H9.217a.65.65,0,0,0-.6.647v.078L6.9,12.1H6.9a.612.612,0,0,0-.574.632L6.343,15.4a.594.594,0,0,0,.574.608h1.7v.09a.607.607,0,0,0,.6.6H10.43l-.008.919a1.4,1.4,0,0,0,.343.944,1.035,1.035,0,0,0,.744.358h6.973a.614.614,0,0,0,0-1.226H11.573c0-.077,0-.038,0-.048l.008-.948h16.2v15.17a2.154,2.154,0,0,1-2.16,2.144H6.058a2.173,2.173,0,0,1-2.182-2.144V3.465c0-.031.019-.063.019-.1a.624.624,0,0,0,0-.079A2.159,2.159,0,0,1,6.058,1.226Zm2.556,13.56H7.488l-.024-1.434,1.15.014ZM1.148,6.128A2.21,2.21,0,0,1,2.728,4.062v27.81a3.362,3.362,0,0,0,3.331,3.37h18.9a2.12,2.12,0,0,1-2.07,1.532H3.332a2.173,2.173,0,0,1-2.184-2.142Zm0,0" transform="translate(0 0)" fill="#12407d"/>
      <path id="Path_648" data-name="Path 648" d="M89.053,269.185h9.74a.592.592,0,1,0,0-1.185h-9.74a.592.592,0,1,0,0,1.185Zm0,0" transform="translate(-82.202 -247.445)" fill="#12407d"/>
      <path id="Path_649" data-name="Path 649" d="M89.053,308.185H106A.592.592,0,1,0,106,307H89.053a.592.592,0,0,0,0,1.185Zm0,0" transform="translate(-82.326 -283.454)" fill="#12407d"/>
      <path id="Path_650" data-name="Path 650" d="M89.053,347.185H106A.592.592,0,0,0,106,346H89.053a.592.592,0,0,0,0,1.185Zm0,0" transform="translate(-82.326 -319.463)" fill="#12407d"/>
      <path id="Path_651" data-name="Path 651" d="M89.053,386.185H106A.592.592,0,1,0,106,385H89.053a.592.592,0,0,0,0,1.185Zm0,0" transform="translate(-82.326 -355.471)" fill="#12407d"/>
    </g>
  </g>
  <g id="company" transform="translate(60 -12)">
    <rect id="Rectangle_1-2" data-name="Rectangle 1" width="60" height="60" transform="translate(0 12)" fill="#eee" opacity="0"/>
    <path id="suitcase" d="M36.1,5.667H27.867V3.148A3.161,3.161,0,0,0,24.7,0H13.3a3.161,3.161,0,0,0-3.167,3.148V5.667H1.9A1.9,1.9,0,0,0,0,7.556V21.571a1.9,1.9,0,0,0,1.267,1.778v8.763A1.9,1.9,0,0,0,3.167,34H34.833a1.9,1.9,0,0,0,1.9-1.889V23.349A1.9,1.9,0,0,0,38,21.571V7.556a1.9,1.9,0,0,0-1.9-1.889ZM11.4,3.148a1.9,1.9,0,0,1,1.9-1.889H24.7a1.9,1.9,0,0,1,1.9,1.889V5.667H25.333V3.148a.632.632,0,0,0-.633-.63H13.3a.632.632,0,0,0-.633.63V5.667H11.4ZM24.067,5.667H13.933V3.778H24.067Zm11.4,26.444a.632.632,0,0,1-.633.63H3.167a.632.632,0,0,1-.633-.63V23.565l13.933,1.91v1.6a1.9,1.9,0,0,0,1.9,1.889h1.267a1.9,1.9,0,0,0,1.9-1.889v-1.6l13.933-1.91Zm-15.2-5.037a.632.632,0,0,1-.633.63H18.367a.632.632,0,0,1-.633-.63V23.3a.632.632,0,0,1,.633-.63h1.267a.632.632,0,0,1,.633.63Zm16.467-5.5a.631.631,0,0,1-.545.624l-.176.024L21.533,24.2V23.3a1.9,1.9,0,0,0-1.9-1.889H18.367a1.9,1.9,0,0,0-1.9,1.889V24.2L1.812,22.2a.631.631,0,0,1-.545-.624V7.556a.632.632,0,0,1,.633-.63H36.1a.632.632,0,0,1,.633.63Zm0,0" transform="translate(11 25)" fill="#12407d"/>
  </g>
  <g id="education" transform="translate(120 -12)">
    <rect id="Rectangle_1-3" data-name="Rectangle 1" width="60" height="60" transform="translate(0 12)" fill="#eee" opacity="0"/>
    <g id="mortarboard" transform="translate(11 9.932)">
      <g id="Group_107" data-name="Group 107" transform="translate(0 17.068)">
        <g id="Group_106" data-name="Group 106">
          <path id="Path_652" data-name="Path 652" d="M342.75,443.745a.632.632,0,0,0-.768.46l-.633,2.533a.633.633,0,0,0,.461.768.614.614,0,0,0,.154.019.633.633,0,0,0,.614-.479l.633-2.533A.634.634,0,0,0,342.75,443.745Z" transform="translate(-315.997 -411.526)" fill="#12407d"/>
          <path id="Path_653" data-name="Path 653" d="M19,154.566a.627.627,0,0,0,.242-.048l6.967-2.883a.633.633,0,0,0-.485-1.17L19,153.247,1.267,145.91v-.21A.633.633,0,0,0,0,145.7v.633a.633.633,0,0,0,.391.585l18.367,7.6A.627.627,0,0,0,19,154.566Z" transform="translate(0 -135.371)" fill="#12407d"/>
          <path id="Path_654" data-name="Path 654" d="M105.536,240.055a.632.632,0,0,0-.848-.288,14.761,14.761,0,0,1-6.053,1.381v-5.682a.633.633,0,0,0-1.267,0v5.676c-7.864-.251-10.4-5.015-10.767-5.808v-4.3a.633.633,0,0,0-1.267,0v4.433a.641.641,0,0,0,.045.236c.11.274,2.806,6.731,12.622,6.731a16.277,16.277,0,0,0,7.247-1.53A.632.632,0,0,0,105.536,240.055Z" transform="translate(-79.002 -214.206)" fill="#12407d"/>
          <path id="Path_655" data-name="Path 655" d="M376.1,452.266a.633.633,0,0,0-.633.633v1.9a.633.633,0,0,0,1.267,0v-1.9A.633.633,0,0,0,376.1,452.266Z" transform="translate(-347.6 -419.433)" fill="#12407d"/>
          <path id="Path_656" data-name="Path 656" d="M37.367,26.727a.639.639,0,0,0-.633.644v.213l-7.6,3.181V29.6l8.475-3.567a.648.648,0,0,0,0-1.19L19.242,17.116a.624.624,0,0,0-.484,0L.391,24.844a.648.648,0,0,0,0,1.19l18.367,7.728a.622.622,0,0,0,.484,0l6.641-2.794a.647.647,0,0,0,.343-.841.63.63,0,0,0-.827-.348L19,32.471,2.289,25.439,19,18.408l16.71,7.031L28.439,28.5l-6.965-2.644a1.562,1.562,0,0,0,.059-.415c0-1.083-1.113-1.932-2.533-1.932s-2.533.849-2.533,1.932S17.579,27.371,19,27.371a3.023,3.023,0,0,0,1.639-.459l7.228,2.744V31.72h0v13.8a1.9,1.9,0,1,0,1.267,0V41.867a7.823,7.823,0,0,0,2.5-3.337.661.661,0,0,0,.035-.211V33.812a.633.633,0,1,0-1.267,0V38.2a6.6,6.6,0,0,1-1.267,1.946V32.158l8.475-3.547a.644.644,0,0,0,.392-.6v-.644A.639.639,0,0,0,37.367,26.727ZM19,26.083c-.773,0-1.267-.381-1.267-.644S18.227,24.8,19,24.8s1.267.381,1.267.644S19.773,26.083,19,26.083Zm9.5,21.9a.644.644,0,1,1,.633-.644A.639.639,0,0,1,28.5,47.98Z" transform="translate(0 -17.068)" fill="#12407d"/>
          <path id="Path_657" data-name="Path 657" d="M402.314,444.208a.633.633,0,0,0-1.229.308l.633,2.533a.634.634,0,0,0,.614.479.613.613,0,0,0,.154-.019.633.633,0,0,0,.461-.768Z" transform="translate(-371.299 -411.529)" fill="#12407d"/>
        </g>
      </g>
    </g>
  </g>
  <g id="language" transform="translate(180 -12)">
    <rect id="Rectangle_1-4" data-name="Rectangle 1" width="60" height="60" transform="translate(0 12)" fill="#eee" opacity="0"/>
    <g id="language-2" data-name="language" transform="translate(-4.997 -28)">
      <path id="Path_658" data-name="Path 658" d="M103.382,59.7a.643.643,0,0,0-.233-.465,14.056,14.056,0,0,0-7.592-3.166c-.462-.046-.932-.069-1.4-.069h-.02c-.47,0-.94.023-1.4.069a14.083,14.083,0,0,0-10.41,6.306l0,.007h0a14.149,14.149,0,0,0,.918,16.767.643.643,0,0,0,.465.233h.031a.643.643,0,0,0,.455-.188l19.009-19.009A.643.643,0,0,0,103.382,59.7ZM92.059,69.5H88.112a18.918,18.918,0,0,1,.8-4.84A40.823,40.823,0,0,0,93.5,65V68.06ZM81.3,69.5a12.785,12.785,0,0,1,1.839-6.016,40.606,40.606,0,0,0,4.482.989,20.208,20.208,0,0,0-.8,5.027ZM93.1,57.329c.133-.011.267-.02.4-.027V63.71a39.554,39.554,0,0,1-4.169-.29A18.742,18.742,0,0,1,93.1,57.329Zm-2.327,13.46-2.423,2.423a19.062,19.062,0,0,1-.238-2.423ZM94.788,65q.924-.015,1.85-.072l-1.85,1.85Zm3.253-1.475c-1.076.107-2.167.171-3.253.189V57.3c.134.007.268.016.4.027a18.815,18.815,0,0,1,3.536,5.508Zm-6.894-5.884a19.964,19.964,0,0,0-3.119,5.6,39.379,39.379,0,0,1-4.12-.873A12.787,12.787,0,0,1,91.147,57.637ZM83.79,77.772A12.885,12.885,0,0,1,81.3,70.788h5.524a20.309,20.309,0,0,0,.423,3.525ZM99.7,61.858a20.039,20.039,0,0,0-2.561-4.222,12.763,12.763,0,0,1,4.629,2.154Z" transform="translate(-58.859)" fill="#12407d"/>
      <path id="Path_659" data-name="Path 659" d="M162.122,118.537a14.188,14.188,0,0,0-.918-1.243.643.643,0,0,0-.95-.045l-19.009,19.009a.643.643,0,0,0,.045.95,14.057,14.057,0,0,0,7.592,3.166,14.4,14.4,0,0,0,2.7.012v3.273a.643.643,0,0,0,1.115.436l5.766-6.247a14.148,14.148,0,0,0,3.659-19.311Zm-4.455,18.3a.646.646,0,0,0-.1.09l-4.7,5.089v-2.351a.643.643,0,0,0-.734-.637c-.195.028-.375.05-.553.068a13.064,13.064,0,0,1-2.57,0,12.767,12.767,0,0,1-6.341-2.441l17.981-17.981q.208.281.4.571A12.863,12.863,0,0,1,157.667,136.835Z" transform="translate(-115.469 -56.302)" fill="#12407d"/>
      <ellipse id="Ellipse_14" data-name="Ellipse 14" cx="1" cy="1.5" rx="1" ry="1.5" transform="translate(33.73 74.977)" fill="#12407d"/>
      <ellipse id="Ellipse_15" data-name="Ellipse 15" cx="1" cy="1.5" rx="1" ry="1.5" transform="translate(37.68 74.977)" fill="#12407d"/>
      <ellipse id="Ellipse_16" data-name="Ellipse 16" cx="1" cy="1.5" rx="1" ry="1.5" transform="translate(41.629 74.977)" fill="#12407d"/>
      <path id="Path_660" data-name="Path 660" d="M21.14,92.2a.643.643,0,0,0-.718.558l-.054.434a16.719,16.719,0,0,1,1.868-21.555.643.643,0,1,0-.9-.914,18,18,0,0,0-2.044,23.166l-.543-.08a.643.643,0,0,0-.188,1.272l2.17.321a.643.643,0,0,0,.732-.556l.241-1.929a.643.643,0,0,0-.558-.718Z" transform="translate(0 -13.365)" fill="#12407d"/>
      <path id="Path_661" data-name="Path 661" d="M419.1,81.286a.643.643,0,1,0,0-1.286h-1.929a.643.643,0,0,0-.643.643v1.929a.643.643,0,1,0,1.286,0V82.36a16.717,16.717,0,0,1-1.625,21.62.643.643,0,0,0,.914.9,18,18,0,0,0,1.514-23.6Z" transform="translate(-368.315 -22.071)" fill="#12407d"/>
    </g>
  </g>
  <g id="skill" transform="translate(240 -12)">
    <rect id="Rectangle_1-5" data-name="Rectangle 1" width="60" height="60" transform="translate(0 12)" fill="#eee" opacity="0"/>
  </g>
  <g id="seminar" transform="translate(300 -12)">
    <rect id="Rectangle_1-6" data-name="Rectangle 1" width="60" height="60" transform="translate(0 12)" fill="#eee" opacity="0"/>
    <g id="seminar-2" data-name="seminar" transform="translate(16 23)">
      <path id="Path_662" data-name="Path 662" d="M25.742,26.968H24.516V22.538a4.27,4.27,0,0,0-3.325-4.18l-4.642-1.071V16.079a4.935,4.935,0,0,0,1.176-1.37H19a3.054,3.054,0,0,0,1.839-5.5V7.355a7.355,7.355,0,0,0-14.71,0V9.209a3.054,3.054,0,0,0,1.839,5.5H9.244a4.925,4.925,0,0,0,1.176,1.37v1.207L5.777,18.358a4.27,4.27,0,0,0-3.325,4.18v4.429H1.226A1.227,1.227,0,0,0,0,28.194v1.226a1.227,1.227,0,0,0,1.226,1.226V38H25.742V30.645a1.227,1.227,0,0,0,1.226-1.226V28.194A1.227,1.227,0,0,0,25.742,26.968ZM10.893,18.436l1.494,1.12-1.511.906-.325-1.949Zm5.182,0,.432.1-.389,1.943-1.537-.922ZM19,13.484h-.774a4.875,4.875,0,0,0,.161-1.226V9.806H19a1.839,1.839,0,0,1,0,3.677ZM7.355,7.355a6.129,6.129,0,0,1,12.258,0V8.643A3.067,3.067,0,0,0,19,8.581h-.613V7.355H17.161V7.7a3.593,3.593,0,0,1-1.48.771c.024-.023.05-.043.074-.067l-.867-.867a3.586,3.586,0,0,1-1.659.933c.024-.023.05-.043.074-.067l-.867-.867A3.6,3.6,0,0,1,9.912,8.581H9.806V7.355H8.581V8.581H7.968a3.067,3.067,0,0,0-.613.062Zm.613,6.129a1.839,1.839,0,0,1,0-3.677h.613v2.452a4.875,4.875,0,0,0,.161,1.226Zm1.839-1.226V9.806h.105a4.79,4.79,0,0,0,1.733-.332v.332h.718A4.79,4.79,0,0,0,14.1,9.475v.332h.718a4.824,4.824,0,0,0,2.346-.62v3.071a3.659,3.659,0,0,1-.215,1.226H13.484V14.71h2.734a3.672,3.672,0,0,1-6.411-2.452Zm3.677,4.9a4.87,4.87,0,0,0,1.839-.361v.667l-1.839,1.379-1.839-1.379V16.8A4.87,4.87,0,0,0,13.484,17.161ZM3.677,22.538a3.05,3.05,0,0,1,2.375-2.986l3.3-.762.608,3.65,3.521-2.113,3.495,2.1.722-3.614,3.214.742a3.05,3.05,0,0,1,2.375,2.986v4.429H20.226v-4.29H19v4.29H7.968v-4.29H6.742v4.29H3.677Zm4.29,14.236H6.742V33.71a.613.613,0,1,1,1.226,0Zm6.129,0H12.871V33.71a.613.613,0,1,1,1.226,0Zm6.129,0H19V33.71a.613.613,0,1,1,1.226,0Zm4.29,0H21.452V33.71a1.839,1.839,0,1,0-3.677,0v3.065H15.323V33.71a1.839,1.839,0,1,0-3.677,0v3.065H9.194V33.71a1.839,1.839,0,1,0-3.677,0v3.065H2.452V30.645H24.516ZM1.226,29.419V28.194H25.742v1.226Zm0,0" fill="#12407d"/>
      <path id="Path_663" data-name="Path 663" d="M316.871,0H305.839A1.841,1.841,0,0,0,304,1.839V9.194a1.841,1.841,0,0,0,1.839,1.839h2.315v3.73l4.643-3.73h4.075a1.841,1.841,0,0,0,1.839-1.839V1.839A1.841,1.841,0,0,0,316.871,0Zm.613,9.194a.613.613,0,0,1-.613.613h-4.506l-2.986,2.4v-2.4h-3.541a.613.613,0,0,1-.613-.613V1.839a.613.613,0,0,1,.613-.613h11.032a.613.613,0,0,1,.613.613Zm0,0" transform="translate(-280.71 0)" fill="#12407d"/>
      <path id="Path_664" data-name="Path 664" d="M336,32h1.226v1.226H336Zm0,0" transform="translate(-310.258 -29.548)" fill="#12407d"/>
      <path id="Path_665" data-name="Path 665" d="M368,32h7.355v1.226H368Zm0,0" transform="translate(-339.806 -29.548)" fill="#12407d"/>
      <path id="Path_666" data-name="Path 666" d="M336,64h9.806v1.226H336Zm0,0" transform="translate(-310.258 -59.097)" fill="#12407d"/>
      <path id="Path_667" data-name="Path 667" d="M336,96h9.806v1.226H336Zm0,0" transform="translate(-310.258 -88.645)" fill="#12407d"/>
    </g>
  </g>
  <g id="certificate" transform="translate(360 -12)">
    <rect id="Rectangle_1-7" data-name="Rectangle 1" width="60" height="60" transform="translate(0 12)" fill="#eee" opacity="0"/>
    <g id="certificate-2" data-name="certificate" transform="translate(11 22.984)">
      <path id="Path_668" data-name="Path 668" d="M31.869,206.06l-12.435-4.083a2.51,2.51,0,0,0-3.367-2.552l-8.683-7.5a.634.634,0,0,0-.963.162l-.976,1.7a3.8,3.8,0,0,0-4.618,1.661l-.317.548a3.8,3.8,0,0,0,1.42,5.21l9.677,4.96a2.539,2.539,0,0,0,.459,2.138l-2,3.457a.634.634,0,0,0,.713.929l1.986-.532.532,1.986a.633.633,0,0,0,.529.464.675.675,0,0,0,.083.006.635.635,0,0,0,.55-.317l2.733-4.734,6.663,4.3a3.8,3.8,0,0,0,5.2-1.394l.317-.548,2.852-4.94a.634.634,0,0,0-.352-.919ZM17.545,200.7a1.267,1.267,0,0,1,.463,1.732l-2.852,4.944a1.268,1.268,0,0,1-2.2-1.268l2.852-4.94a1.268,1.268,0,0,1,1.735-.468ZM7.138,193.383l6.347,5.486-6.931-4.476Zm-5.784,5.164a2.523,2.523,0,0,1,.253-1.924l.317-.548a2.535,2.535,0,0,1,3.436-.944L14.45,201l-2.312,4.006-9.6-4.92a2.516,2.516,0,0,1-1.181-1.539Zm12.774,13.784-.3-1.119a.634.634,0,0,0-.776-.448l-1.12.3,1.147-1.986a2.521,2.521,0,0,0,2.672-.452l.376.242Zm10.391.448L16.5,207.6l2.376-4.115,8.471,4.344a2.535,2.535,0,0,1,.928,3.463l-.317.548a2.536,2.536,0,0,1-3.436.942Zm5.16-3.929a3.785,3.785,0,0,0-1.728-2.14l-3.272-1.673,6.054,1.987Zm0,0" transform="translate(0 -176.591)" fill="#12407d"/>
      <path id="Path_669" data-name="Path 669" d="M155.058,6.99l.786-2.43a.634.634,0,0,0-.317-.761l-2.272-1.161L152.094.364a.634.634,0,0,0-.761-.317L148.9.836,146.473.049a.634.634,0,0,0-.76.317l-1.161,2.272L142.277,3.8c-.01.006-.017.015-.027.021H131.157a3.173,3.173,0,0,0-3.169,3.169V15.7a.634.634,0,1,0,1.268,0V6.99a1.9,1.9,0,0,1,1.9-1.9h10.977l.615,1.9-.786,2.43a.633.633,0,0,0,.317.76l2.275,1.162,1.162,2.275a.634.634,0,0,0,.761.317l2.427-.789.634.205V27.272a.634.634,0,0,0,1.268,0V13.76l.53.171a.633.633,0,0,0,.76-.317l1.162-2.275,2.275-1.162a.634.634,0,0,0,.317-.761Zm-1.268.195.683,2.111-1.976,1.01a.631.631,0,0,0-.276.276l-1.011,1.976-2.112-.683a.626.626,0,0,0-.39,0l-2.112.683-1.01-1.976a.631.631,0,0,0-.276-.276L143.335,9.3l.683-2.111a.619.619,0,0,0,0-.39l-.683-2.111,1.976-1.01a.632.632,0,0,0,.276-.276l1.01-1.976,2.112.683a.63.63,0,0,0,.39,0l2.112-.683L152.22,3.4a.632.632,0,0,0,.276.276l1.976,1.01-.683,2.111a.637.637,0,0,0,0,.39Zm0,0" transform="translate(-117.879 0)" fill="#12407d"/>
      <path id="Path_670" data-name="Path 670" d="M355.157,48.047a3.169,3.169,0,1,0,3.169,3.169A3.169,3.169,0,0,0,355.157,48.047Zm0,5.07a1.9,1.9,0,1,1,1.9-1.9A1.9,1.9,0,0,1,355.157,53.117Zm0,0" transform="translate(-324.133 -44.226)" fill="#12407d"/>
      <path id="Path_671" data-name="Path 671" d="M192.622,193.315H203.4a.634.634,0,0,0,0-1.268H192.622a.634.634,0,1,0,0,1.268Zm0,0" transform="translate(-176.796 -176.83)" fill="#12407d"/>
      <path id="Path_672" data-name="Path 672" d="M225.5,232.047h-8.873a.634.634,0,0,0,0,1.268H225.5a.634.634,0,1,0,0-1.268Zm0,0" transform="translate(-198.895 -213.664)" fill="#12407d"/>
      <path id="Path_673" data-name="Path 673" d="M277.058,272.047h-4.437a.634.634,0,0,0,0,1.268h4.437a.634.634,0,1,0,0-1.268Zm0,0" transform="translate(-250.46 -250.497)" fill="#12407d"/>
      <path id="Path_674" data-name="Path 674" d="M193.889,113.315h3.8a.634.634,0,0,0,0-1.268h-3.8a1.9,1.9,0,1,0,0,3.8h3.8a.634.634,0,0,0,0-1.268h-3.8a.634.634,0,0,1,0-1.268Zm0,0" transform="translate(-176.793 -103.163)" fill="#12407d"/>
    </g>
  </g>
  <g id="hobby" transform="translate(420 -12)">
    <rect id="Rectangle_1-8" data-name="Rectangle 1" width="60" height="60" transform="translate(0 12)" fill="#eee" opacity="0"/>
    <g id="hobby-2" data-name="hobby" transform="translate(-47.631 23)">
      <path id="Path_675" data-name="Path 675" d="M89.217,193.679l-8.184-3v-1.916a7.785,7.785,0,0,0,4.349-5.257h.79a2.119,2.119,0,0,0,2.149-2.083v-1.063a2.05,2.05,0,0,0-.705-1.541v-2.484a.573.573,0,0,0-.582-.564H74.341a.564.564,0,1,0,0,1.128H84.415v4.9a6.787,6.787,0,0,1-13.568,0v-4.9h.779a.564.564,0,1,0,0-1.128h-3.4a.573.573,0,0,0-.582.564v2.484a2.05,2.05,0,0,0-.705,1.541v1.063A2.119,2.119,0,0,0,69.09,183.5h.79a7.785,7.785,0,0,0,4.349,5.257v1.916l-8.184,3a5.154,5.154,0,0,0-3.414,4.789v2.016a.573.573,0,0,0,.582.564H81.7a.564.564,0,1,0,0-1.128H68.81v-1.714a.582.582,0,0,0-1.164,0v1.714H63.795v-1.453a4.019,4.019,0,0,1,2.662-3.734l8.559-3.139a.571.571,0,0,0,.376-.527v-1.874a8.2,8.2,0,0,0,4.478,0v1.874a.571.571,0,0,0,.376.527l8.559,3.139a4.019,4.019,0,0,1,2.662,3.734v1.453H87.616v-1.714a.582.582,0,0,0-1.164,0v1.714H84.418a.564.564,0,1,0,0,1.128h7.631a.573.573,0,0,0,.582-.564v-2.016A5.154,5.154,0,0,0,89.217,193.679Zm-2.06-12.257a.972.972,0,0,1-.985.955h-.616q.022-.285.022-.575v-2.4h.594a.972.972,0,0,1,.985.955v1.063Zm-.705-3.128a2.221,2.221,0,0,0-.28-.018h-.594V176.9h.874v1.4ZM68.81,176.9h.874v1.378H69.09a2.221,2.221,0,0,0-.28.018Zm.28,5.479a.972.972,0,0,1-.985-.955v-1.063a.972.972,0,0,1,.985-.955h.594v2.4q0,.29.022.575H69.09Z" transform="translate(0 -163.048)" fill="#12407d"/>
      <path id="Path_676" data-name="Path 676" d="M188.985,434.37h-3.8a.563.563,0,0,0-.252.06l-1.267.633-1.267-.633a.563.563,0,0,0-.252-.06h-3.8a.564.564,0,0,0,0,1.128h3.664l1.4.7a.564.564,0,0,0,.5,0l1.4-.7h3.664a.564.564,0,0,0,0-1.128Z" transform="translate(-106.038 -402.206)" fill="#12407d"/>
      <path id="Path_677" data-name="Path 677" d="M170.851,7.522a.564.564,0,0,0,.8-.8l-1.16-1.159a2.6,2.6,0,1,1,3.676-3.677l.607.607a.564.564,0,0,0,.8,0l.607-.607a2.6,2.6,0,0,1,3.894,3.429,2.105,2.105,0,0,0-1.333.527,2.123,2.123,0,0,0-2.9,3.1l.321.321-.986.986L173.52,8.6a.564.564,0,0,0-.8.8l2.05,2.049a.564.564,0,0,0,.8,0l1.385-1.385,1.385,1.385a.564.564,0,0,0,.8,0l2.5-2.5a2.126,2.126,0,0,0-.411-3.323,3.728,3.728,0,0,0-5.85-4.525l-.209.209-.209-.209a3.727,3.727,0,0,0-5.271,5.271Zm9.992.62-2.1,2.1-2.1-2.1a.995.995,0,0,1,1.407-1.407l.3.3a.564.564,0,0,0,.8,0l.3-.3a.995.995,0,0,1,1.407,1.407Z" transform="translate(-97.524 0)" fill="#12407d"/>
    </g>
  </g>
  <g id="reference" transform="translate(480 -12)">
    <rect id="Rectangle_1-9" data-name="Rectangle 1" width="60" height="60" transform="translate(0 12)" fill="#eee" opacity="0"/>
    <g id="rating" transform="translate(11 24)">
      <path id="Path_749" data-name="Path 749" d="M247.492,380.746a.746.746,0,1,1-.746-.746A.746.746,0,0,1,247.492,380.746Zm0,0" transform="translate(-227.746 -351.493)" fill="#12407d"/>
      <path id="Path_750" data-name="Path 750" d="M367.95,244.475a4.475,4.475,0,1,0-4.475,4.475A4.48,4.48,0,0,0,367.95,244.475Zm-4.475,2.983a2.983,2.983,0,1,1,2.983-2.983A2.987,2.987,0,0,1,363.475,247.458Zm0,0" transform="translate(-332.411 -221.967)" fill="#12407d"/>
      <path id="Path_751" data-name="Path 751" d="M31.1,341.492a7.234,7.234,0,0,0-5.006,2.045,8.878,8.878,0,0,0-14.184,0A7.236,7.236,0,0,0,6.9,341.492,6.9,6.9,0,0,0,0,348.2V349.7a.744.744,0,0,0,.742.746H37.258A.744.744,0,0,0,38,349.7V348.2A6.9,6.9,0,0,0,31.1,341.492ZM1.484,348.2A5.393,5.393,0,0,1,6.9,342.983a5.653,5.653,0,0,1,4.187,1.853,8.986,8.986,0,0,0-1,4.114H1.484ZM19,341.492a7.438,7.438,0,0,1,7.422,7.458H11.578A7.447,7.447,0,0,1,19,341.492Zm17.516,7.458H27.906a8.986,8.986,0,0,0-1-4.114,5.653,5.653,0,0,1,4.187-1.853,5.393,5.393,0,0,1,5.418,5.221Zm0,0" transform="translate(0 -314.442)" fill="#12407d"/>
      <path id="Path_752" data-name="Path 752" d="M41.95,244.475a4.475,4.475,0,1,0-4.475,4.475A4.48,4.48,0,0,0,41.95,244.475Zm-4.475,2.983a2.983,2.983,0,1,1,2.983-2.983A2.987,2.987,0,0,1,37.475,247.458Zm0,0" transform="translate(-30.539 -221.967)" fill="#12407d"/>
      <path id="Path_753" data-name="Path 753" d="M187.933,185.967a5.967,5.967,0,1,0-5.967,5.967A5.973,5.973,0,0,0,187.933,185.967Zm-5.967,4.475a4.475,4.475,0,1,1,4.475-4.475A4.48,4.48,0,0,1,181.967,190.442Zm0,0" transform="translate(-162.967 -166.462)" fill="#12407d"/>
      <path id="Path_754" data-name="Path 754" d="M187.547,4.338a.745.745,0,0,0-.6-.508l-3.217-.467L182.287.418a.746.746,0,0,0-1.34,0l-1.44,2.945-3.217.467a.746.746,0,0,0-.413,1.272l2.33,2.27-.55,3.206a.746.746,0,0,0,1.082.786l2.878-1.514,2.88,1.514a.746.746,0,0,0,1.082-.786l-.55-3.206,2.329-2.27a.746.746,0,0,0,.189-.764Zm-3.84,2.24a.746.746,0,0,0-.214.66l.361,2.1-1.888-.993a.746.746,0,0,0-.694,0l-1.888.993.361-2.1a.746.746,0,0,0-.215-.66L178,5.089l2.111-.306a.745.745,0,0,0,.563-.411l.943-1.929.943,1.929a.745.745,0,0,0,.563.411l2.111.306Zm0,0" transform="translate(-162.644)" fill="#12407d"/>
      <path id="Path_755" data-name="Path 755" d="M374.336,93.215a.745.745,0,0,0-.6-.508l-2.18-.317-.975-1.975a.745.745,0,0,0-.669-.416h0a.746.746,0,0,0-.669.416l-.975,1.975-2.18.317a.746.746,0,0,0-.413,1.272l1.577,1.538-.372,2.17a.746.746,0,0,0,1.082.786l1.95-1.025,1.95,1.025a.746.746,0,0,0,1.082-.786l-.372-2.17,1.577-1.538A.745.745,0,0,0,374.336,93.215Zm-3.088,1.508a.744.744,0,0,0-.214.66l.183,1.067-.959-.5a.746.746,0,0,0-.694,0l-.96.5.183-1.068a.746.746,0,0,0-.214-.66l-.776-.757,1.072-.156a.746.746,0,0,0,.562-.408l.48-.972.479.971a.746.746,0,0,0,.562.408l1.072.156Zm0,0" transform="translate(-338.379 -83.238)" fill="#12407d"/>
      <path id="Path_756" data-name="Path 756" d="M34.336,93.215a.745.745,0,0,0-.6-.508l-2.18-.317-.975-1.975a.746.746,0,0,0-1.338,0l-.975,1.975-2.18.317a.746.746,0,0,0-.413,1.272l1.577,1.538-.372,2.17a.746.746,0,0,0,1.082.786l1.95-1.025,1.95,1.025a.746.746,0,0,0,1.082-.786l-.372-2.17,1.577-1.538A.746.746,0,0,0,34.336,93.215Zm-3.088,1.508a.746.746,0,0,0-.214.66l.183,1.067-.959-.5a.745.745,0,0,0-.694,0l-.96.5.183-1.068a.745.745,0,0,0-.214-.66l-.776-.757,1.073-.156a.746.746,0,0,0,.561-.408l.48-.972.479.971a.746.746,0,0,0,.562.408l1.072.156Zm0,0" transform="translate(-23.551 -83.238)" fill="#12407d"/>
      <path id="Path_757" data-name="Path 757" d="M285.483,391.572a.746.746,0,0,0-.819,1.247,4.5,4.5,0,0,1,1.594,1.826A.746.746,0,0,0,287.6,394,5.991,5.991,0,0,0,285.483,391.572Zm0,0" transform="translate(-263.235 -362.054)" fill="#12407d"/>
    </g>
  </g>
</svg>
