<svg id="icons_spite_60_dark" xmlns="http://www.w3.org/2000/svg" width="120" height="60" viewBox="0 0 120 60">
  <g id="building" transform="translate(0 -12)">
    <rect id="Rectangle_1" data-name="Rectangle 1" width="60" height="60" transform="translate(0 12)" fill="#eee" opacity="0"/>
    <g id="building-2" data-name="building" transform="translate(-2 10)">
      <path id="Path_683" data-name="Path 683" d="M43,41a5,5,0,1,0,5-5,5,5,0,0,0-5,5Zm8,0a3,3,0,1,1-3-3A3,3,0,0,1,51,41Z" fill="#0d78c4"/>
      <path id="Path_684" data-name="Path 684" d="M51.48,55.31C54.52,51.39,59,44.94,59,41a11.021,11.021,0,0,0-9-10.81V8h2a1,1,0,0,0,1-1V3a1,1,0,0,0-1-1H6A1,1,0,0,0,5,3V7A1,1,0,0,0,6,8H8V48H6a1,1,0,0,0-1,1v3a1,1,0,0,0,1,1H42.79c.6.83,1.19,1.61,1.73,2.31C42.11,55.77,40,56.77,40,58.5c0,2.4,4.15,3.5,8,3.5s8-1.1,8-3.5C56,56.77,53.89,55.77,51.48,55.31ZM7,6V4H51V6ZM45,22H39a1,1,0,0,0-1,1v7H37v2h4.7A10.976,10.976,0,0,0,37,41c0,1.93,1.08,4.46,2.53,7H35V43a6,6,0,0,0-12,0v5H10V8H48V30a11.023,11.023,0,0,0-2,.19V23A1,1,0,0,0,45,22Zm-1,2v6H40V24ZM33,43v5H25V43a4,4,0,0,1,8,0ZM7,51V50H40.74c.22.34.44.67.66,1ZM39,41a9,9,0,0,1,18,0c0,3.87-5.93,11.77-9,15.46C44.93,52.77,39,44.87,39,41Zm9,19c-3.84,0-5.88-1.1-6-1.48.09-.31,1.37-1.1,3.96-1.39.71.87,1.2,1.43,1.29,1.53a1,1,0,0,0,1.5,0c.09-.1.58-.66,1.29-1.53,2.59.29,3.87,1.08,3.96,1.35C53.88,58.9,51.84,60,48,60Z" fill="#0d78c4"/>
      <path id="Path_685" data-name="Path 685" d="M46,18V11a1,1,0,0,0-1-1H39a1,1,0,0,0-1,1v7H37v2H47V18Zm-2,0H40V12h4Z" fill="#0d78c4"/>
      <path id="Path_686" data-name="Path 686" d="M33,18V11a1,1,0,0,0-1-1H26a1,1,0,0,0-1,1v7H24v2H34V18Zm-2,0H27V12h4Z" fill="#0d78c4"/>
      <path id="Path_687" data-name="Path 687" d="M20,18V11a1,1,0,0,0-1-1H13a1,1,0,0,0-1,1v7H11v2H21V18Zm-2,0H14V12h4Z" fill="#0d78c4"/>
      <path id="Path_688" data-name="Path 688" d="M20,30V23a1,1,0,0,0-1-1H13a1,1,0,0,0-1,1v7H11v2H21V30Zm-2,0H14V24h4Z" fill="#0d78c4"/>
      <path id="Path_689" data-name="Path 689" d="M33,30V23a1,1,0,0,0-1-1H26a1,1,0,0,0-1,1v7H24v2H34V30Zm-2,0H27V24h4Z" fill="#0d78c4"/>
    </g>
  </g>
  <g id="employee" transform="translate(60 -12)">
    <rect id="Rectangle_1-2" data-name="Rectangle 1" width="60" height="60" transform="translate(0 12)" fill="#eee" opacity="0"/>
    <g id="employee-2" data-name="employee" transform="translate(-73.447 12)">
      <g id="Group_108" data-name="Group 108" transform="translate(83.447)">
        <path id="Path_690" data-name="Path 690" d="M123.01,48.614a.879.879,0,0,0-.879.879v8.263a.486.486,0,0,1-.485.485h-4.725V40.934a.879.879,0,0,0-1.758,0V58.242H105.65l2.759-3.035a1.576,1.576,0,0,0,.38-1.264c0-.009,0-.018,0-.027l-2.628-15.523.708-1.066a1.993,1.993,0,0,0,1.258.546,1.539,1.539,0,0,0,1.378-.852h0l2.771-5.555,6.314,2.445a6.09,6.09,0,0,1,3.545,5.536v5.945a.879.879,0,0,0,1.758,0V39.447a7.844,7.844,0,0,0-4.639-7.163l-.017-.007-10.508-4.069V25.743a8.235,8.235,0,0,0,3.117-5.417,3.8,3.8,0,0,0,2.235-.912,3.731,3.731,0,0,0,.389-5.265V10.893a10.893,10.893,0,1,0-21.786,0v3.341a3.529,3.529,0,0,0-.906,2.352,3.724,3.724,0,0,0,1.3,2.828,3.8,3.8,0,0,0,2.234.911A8.148,8.148,0,0,0,98.6,25.873v2.334L88.1,32.276l-.017.007a7.844,7.844,0,0,0-4.639,7.163v18.31A2.246,2.246,0,0,0,85.69,60h8.374a.879.879,0,1,0,0-1.758H92.173V40.934a.879.879,0,0,0-1.758,0V58.242H85.69a.486.486,0,0,1-.485-.485V39.447a6.09,6.09,0,0,1,3.544-5.535l6.309-2.446,2.772,5.555a1.539,1.539,0,0,0,1.378.852,1.992,1.992,0,0,0,1.258-.546l.708,1.066L98.546,53.916c0,.009,0,.018,0,.026a1.576,1.576,0,0,0,.38,1.264l2.759,3.035H98.166a.879.879,0,1,0,0,1.758h23.48a2.246,2.246,0,0,0,2.243-2.243V49.493A.879.879,0,0,0,123.01,48.614ZM110.626,30.828l-2.584,5.179L104.935,33.8l3.192-3.939Zm-5.2,5.48-.67,1.009h-2.192l-.67-1.009,1.766-1.254Zm-5.074-7.818V26.846a8.918,8.918,0,0,0,3.323.63,8.251,8.251,0,0,0,3.287-.685V28.5l-3.3,4.076Zm13.258-11.9a1.969,1.969,0,0,1-.684,1.494,2.047,2.047,0,0,1-1.015.467V14.625A1.988,1.988,0,0,1,113.615,16.587ZM95.231,18.548a1.986,1.986,0,0,1-1.7-1.962,2.087,2.087,0,0,1,1.7-1.917Zm.047-5.67a4.345,4.345,0,0,0-.84.189V10.893a9.135,9.135,0,1,1,18.27,0v2.114a3.907,3.907,0,0,0-.792-.153c0-.848.007-.684-2.767-3.667a1.564,1.564,0,0,0-2-.243A16.945,16.945,0,0,1,96.908,11.7,1.563,1.563,0,0,0,95.279,12.878Zm1.711,6.362V13.468a18.782,18.782,0,0,0,10.985-2.963c1.272,1.366,1.961,2.083,2.184,2.355v6.38a6.585,6.585,0,0,1-13.169,0Zm2.3,16.767L96.7,30.828l2.5-.966,3.192,3.94Zm1.008,18.1,2.544-15.031h1.649l2.544,15.031-3.368,3.706Z" transform="translate(-83.447)" fill="#0d78c4"/>
      </g>
    </g>
  </g>
</svg>
