<svg xmlns="http://www.w3.org/2000/svg" width="48" height="16" viewBox="0 0 48 16">
  <g id="icons_spite_16_dark" transform="translate(0 0)">
    <g id="Icon_Phone" transform="translate(0 -12)">
      <rect id="Rectangle_1" data-name="Rectangle 1" width="16" height="16" transform="translate(0 12)" fill="#eee" opacity="0"/>
      <g id="Icon_Phone-2" data-name="Icon_Phone" transform="translate(-0.344 12)">
        <g id="Group_71" data-name="Group 71" transform="translate(0.344 0)">
          <path id="Path_591" data-name="Path 591" d="M12.995,36.39a1.577,1.577,0,0,0-1.143-.523,1.631,1.631,0,0,0-1.156.52L9.627,37.45c-.088-.047-.176-.091-.26-.135-.122-.061-.237-.118-.335-.179A11.607,11.607,0,0,1,6.249,34.6a6.839,6.839,0,0,1-.913-1.438c.277-.253.534-.517.784-.77.095-.095.189-.192.284-.287a1.547,1.547,0,0,0,0-2.336l-.923-.922c-.1-.1-.213-.213-.314-.321-.2-.209-.416-.425-.636-.628a1.6,1.6,0,0,0-1.133-.5,1.658,1.658,0,0,0-1.15.5l-.007.007-1.15,1.158a2.468,2.468,0,0,0-.734,1.57,5.91,5.91,0,0,0,.433,2.505A14.532,14.532,0,0,0,3.378,37.45a15.909,15.909,0,0,0,5.3,4.143,8.265,8.265,0,0,0,2.976.878c.071,0,.145.007.213.007a2.55,2.55,0,0,0,1.951-.837c0-.007.01-.01.014-.017a7.682,7.682,0,0,1,.592-.611c.145-.138.294-.284.44-.436a1.683,1.683,0,0,0,.511-1.168,1.621,1.621,0,0,0-.521-1.158Zm1.211,3.555s0,0,0,0c-.132.142-.267.27-.413.412a8.882,8.882,0,0,0-.653.675,1.631,1.631,0,0,1-1.271.537c-.051,0-.1,0-.156,0a7.342,7.342,0,0,1-2.637-.79,15.017,15.017,0,0,1-4.991-3.9A13.7,13.7,0,0,1,1.65,32.825a4.814,4.814,0,0,1-.379-2.113,1.549,1.549,0,0,1,.467-1l1.153-1.151a.769.769,0,0,1,.514-.24.724.724,0,0,1,.494.236l.01.01c.206.192.4.392.609.6.1.108.213.216.321.327l.923.922a.644.644,0,0,1,0,1.047c-.1.1-.193.2-.291.29-.284.29-.555.56-.849.824-.007.007-.014.01-.017.017a.688.688,0,0,0-.176.766l.01.03a7.4,7.4,0,0,0,1.092,1.779l0,0a12.4,12.4,0,0,0,3,2.728,4.619,4.619,0,0,0,.416.226c.122.061.237.118.335.179.014.007.027.017.041.024a.734.734,0,0,0,.335.084.723.723,0,0,0,.514-.233l1.156-1.155a.765.765,0,0,1,.511-.253.689.689,0,0,1,.487.246l.007.007,1.863,1.86A.667.667,0,0,1,14.205,39.945Z" transform="translate(-0.344 -26.477)" fill="#1675be"/>
          <path id="Path_592" data-name="Path 592" d="M245.32,86.833a4.361,4.361,0,0,1,3.551,3.551.455.455,0,0,0,.451.38.6.6,0,0,0,.078-.007.458.458,0,0,0,.376-.529,5.273,5.273,0,0,0-4.3-4.3.46.46,0,0,0-.529.373A.453.453,0,0,0,245.32,86.833Z" transform="translate(-236.679 -83.028)" fill="#1675be"/>
          <path id="Path_593" data-name="Path 593" d="M256.382,7.083A8.683,8.683,0,0,0,249.307.007a.457.457,0,1,0-.149.9,7.756,7.756,0,0,1,6.323,6.323.455.455,0,0,0,.451.38.605.605,0,0,0,.078-.007A.449.449,0,0,0,256.382,7.083Z" transform="translate(-240.389 0)" fill="#1675be"/>
        </g>
      </g>
    </g>
    <g id="Icon_Fax" transform="translate(16 -12)">
      <rect id="Rectangle_1-2" data-name="Rectangle 1" width="16" height="16" transform="translate(0 12)" fill="#eee" opacity="0"/>
      <g id="Icon_Fax-2" data-name="Icon_Fax" transform="translate(0 3.367)">
        <path id="Path_594" data-name="Path 594" d="M14.871,13.1H13.079V10.125a.488.488,0,0,0-.484-.492H3.4a.488.488,0,0,0-.484.492V13.1H1.129A1.139,1.139,0,0,0,0,14.246v6.309A1.139,1.139,0,0,0,1.129,21.7H2.921v2.439a.488.488,0,0,0,.484.492H12.6a.488.488,0,0,0,.484-.492V21.7h1.792A1.139,1.139,0,0,0,16,20.555V14.246A1.139,1.139,0,0,0,14.871,13.1ZM3.888,10.616h8.223V13.1H3.888ZM12.112,23.65H3.888V18.772h8.223Zm2.921-3.095a.165.165,0,0,1-.161.164H13.079V18.28a.488.488,0,0,0-.484-.492H3.4a.488.488,0,0,0-.484.492v2.439H1.129a.165.165,0,0,1-.161-.164V14.246a.165.165,0,0,1,.161-.164H14.871a.165.165,0,0,1,.161.164v6.309Z" fill="#1f73b9"/>
        <circle id="Ellipse_9" data-name="Ellipse 9" cx="0.668" cy="0.668" r="0.668" transform="translate(11.939 15.261)" fill="#1f73b9"/>
        <path id="Path_595" data-name="Path 595" d="M87.153,163.822H82.877a.47.47,0,1,0,0,.94h4.276a.47.47,0,0,0,0-.94Z" transform="translate(-77.015 -144.049)" fill="#1f73b9"/>
        <path id="Path_596" data-name="Path 596" d="M87.153,193.623H82.877a.47.47,0,1,0,0,.94h4.276a.47.47,0,0,0,0-.94Z" transform="translate(-77.015 -171.797)" fill="#1f73b9"/>
      </g>
    </g>
    <g id="Icon_Mail" transform="translate(32 -12)">
      <rect id="Rectangle_1-3" data-name="Rectangle 1" width="16" height="16" transform="translate(0 12)" fill="#eee" opacity="0"/>
      <g id="Icon_Mail-2" data-name="Icon_Mail" transform="translate(0 -43.75)">
        <g id="Group_72" data-name="Group 72" transform="translate(0 57.75)">
          <path id="Path_597" data-name="Path 597" d="M14.045,57.75H1.956A1.958,1.958,0,0,0,0,59.706v8.262a1.958,1.958,0,0,0,1.956,1.956H14.042A1.958,1.958,0,0,0,16,67.969V59.71A1.956,1.956,0,0,0,14.045,57.75Zm1.063,10.219a1.064,1.064,0,0,1-1.063,1.063H1.956A1.064,1.064,0,0,1,.894,67.969V59.71a1.064,1.064,0,0,1,1.063-1.063H14.042A1.064,1.064,0,0,1,15.1,59.71v8.259Z" transform="translate(0 -57.75)" fill="#2871b4"/>
          <path id="Path_598" data-name="Path 598" d="M64,113.194l3.913-3.509a.448.448,0,1,0-.6-.665l-5.4,4.843-1.053-.94s-.007-.007-.007-.01a.662.662,0,0,0-.073-.063L56.5,109.017a.448.448,0,1,0-.6.669l3.959,3.539-3.942,3.691a.449.449,0,0,0-.02.632.457.457,0,0,0,.328.142.448.448,0,0,0,.3-.119l4-3.744,1.086.97a.446.446,0,0,0,.6,0l1.116-1,3.979,3.78a.448.448,0,0,0,.632-.017.449.449,0,0,0-.017-.632Z" transform="translate(-53.907 -107.209)" fill="#2871b4"/>
        </g>
      </g>
    </g>
  </g>
</svg>
