<svg id="icons_spite_resume_preview_18" xmlns="http://www.w3.org/2000/svg" width="72" height="18" viewBox="0 0 72 18">
  <g id="Icon_Phone" transform="translate(0 -12)">
    <rect id="Rectangle_1" data-name="Rectangle 1" width="18" height="18" transform="translate(0 12)" fill="#eee" opacity="0"/>
    <g id="Icon_Phone-2" data-name="Icon_Phone" transform="translate(0 12)">
      <g id="Group_71" data-name="Group 71" transform="translate(0 0)">
        <path id="Path_591" data-name="Path 591" d="M14.576,37.513a1.774,1.774,0,0,0-1.286-.589,1.834,1.834,0,0,0-1.3.585l-1.2,1.2c-.1-.053-.2-.1-.293-.152-.137-.068-.266-.133-.377-.2A13.058,13.058,0,0,1,6.987,35.5,7.694,7.694,0,0,1,5.96,33.886c.312-.285.6-.581.883-.866.107-.106.213-.217.32-.323a1.741,1.741,0,0,0,0-2.628L6.123,29.032c-.118-.118-.24-.239-.354-.361-.228-.235-.468-.479-.715-.706a1.8,1.8,0,0,0-1.274-.558,1.865,1.865,0,0,0-1.293.558l-.008.008-1.293,1.3A2.777,2.777,0,0,0,.36,31.041a6.649,6.649,0,0,0,.487,2.818,16.349,16.349,0,0,0,2.91,4.847,17.9,17.9,0,0,0,5.961,4.66,9.3,9.3,0,0,0,3.348.988c.08,0,.164.008.24.008a2.869,2.869,0,0,0,2.195-.942c0-.008.011-.011.015-.019a8.643,8.643,0,0,1,.666-.687c.164-.156.331-.319.495-.49a1.893,1.893,0,0,0,.574-1.314,1.824,1.824,0,0,0-.586-1.3Zm1.362,4s0,0,0,0c-.148.16-.3.3-.464.463a9.992,9.992,0,0,0-.734.76,1.835,1.835,0,0,1-1.43.6c-.057,0-.118,0-.175,0a8.26,8.26,0,0,1-2.967-.889,16.894,16.894,0,0,1-5.615-4.391A15.415,15.415,0,0,1,1.813,33.5a5.416,5.416,0,0,1-.426-2.378A1.742,1.742,0,0,1,1.912,30l1.3-1.3a.865.865,0,0,1,.578-.27.814.814,0,0,1,.555.266l.011.011c.232.216.453.441.685.68.118.122.24.243.361.368l1.039,1.037a.724.724,0,0,1,0,1.177c-.11.11-.217.22-.327.327-.32.327-.624.63-.955.927-.008.008-.015.011-.019.019a.774.774,0,0,0-.2.862l.011.034a8.322,8.322,0,0,0,1.229,2l0,0a13.955,13.955,0,0,0,3.378,3.069,5.2,5.2,0,0,0,.468.254c.137.068.266.133.377.2.015.008.03.019.046.027a.826.826,0,0,0,.377.095.814.814,0,0,0,.578-.262l1.3-1.3a.861.861,0,0,1,.574-.285.775.775,0,0,1,.548.277l.008.008,2.1,2.093A.75.75,0,0,1,15.938,41.513Z" transform="translate(-0.344 -26.361)" fill="#1675be"/>
        <path id="Path_592" data-name="Path 592" d="M245.367,86.946a4.906,4.906,0,0,1,4,4,.512.512,0,0,0,.507.427.68.68,0,0,0,.088-.008.515.515,0,0,0,.423-.595,5.933,5.933,0,0,0-4.834-4.834.517.517,0,0,0-.595.419A.509.509,0,0,0,245.367,86.946Z" transform="translate(-235.646 -82.666)" fill="#1675be"/>
        <path id="Path_593" data-name="Path 593" d="M257.333,7.968a9.769,9.769,0,0,0-7.96-7.96.514.514,0,1,0-.168,1.014,8.726,8.726,0,0,1,7.114,7.114.511.511,0,0,0,.507.427.681.681,0,0,0,.088-.008A.505.505,0,0,0,257.333,7.968Z" transform="translate(-239.341 0)" fill="#1675be"/>
      </g>
    </g>
  </g>
  <g id="Icon_Mail" transform="translate(18 -12)">
    <rect id="Rectangle_1-2" data-name="Rectangle 1" width="18" height="18" transform="translate(0 12)" fill="#eee" opacity="0"/>
    <g id="Icon_Mail-2" data-name="Icon_Mail" transform="translate(0 14.25)">
      <g id="Group_72" data-name="Group 72">
        <path id="Path_597" data-name="Path 597" d="M15.8,57.75H2.2a2.2,2.2,0,0,0-2.2,2.2v9.3a2.2,2.2,0,0,0,2.2,2.2H15.8a2.2,2.2,0,0,0,2.2-2.2V59.955A2.2,2.2,0,0,0,15.8,57.75Zm1.2,11.5a1.2,1.2,0,0,1-1.2,1.2H2.2a1.2,1.2,0,0,1-1.2-1.2V59.955a1.2,1.2,0,0,1,1.2-1.2H15.8a1.2,1.2,0,0,1,1.2,1.2v9.291Z" transform="translate(0 -57.75)" fill="#2871b4"/>
        <path id="Path_598" data-name="Path 598" d="M65.027,113.73l4.4-3.947a.5.5,0,1,0-.674-.749l-6.07,5.448L61.5,113.425s-.007-.007-.007-.011a.744.744,0,0,0-.082-.071l-4.819-4.312a.5.5,0,1,0-.67.752l4.454,3.981-4.435,4.152a.5.5,0,0,0-.022.711.514.514,0,0,0,.369.16.5.5,0,0,0,.343-.134l4.5-4.212,1.221,1.091a.5.5,0,0,0,.67,0l1.255-1.125,4.476,4.253a.5.5,0,0,0,.711-.019.5.5,0,0,0-.019-.711Z" transform="translate(-53.676 -106.997)" fill="#2871b4"/>
      </g>
    </g>
  </g>
  <g id="Icon_Web" transform="translate(36 -12)">
    <rect id="Rectangle_1-3" data-name="Rectangle 1" width="18" height="18" transform="translate(0 12)" fill="#eee" opacity="0"/>
    <g id="Icon_Web-2" data-name="Icon_Web" transform="translate(-46.811 -51.987)">
      <path id="Path_638" data-name="Path 638" d="M334.2,421.039a.438.438,0,0,0-.6-.159l-.014.008a.438.438,0,0,0,.439.757l.014-.008a.438.438,0,0,0,.159-.6Z" transform="translate(-273.725 -340.857)" fill="#2871b4"/>
      <path id="Path_639" data-name="Path 639" d="M63.6,68.49a9,9,0,1,0-4.574,12.9.438.438,0,1,0-.314-.817A8.05,8.05,0,0,1,51,79.542l.291-1.521.1-.032a1.174,1.174,0,0,0,.753-1.477l-.11-.339a.3.3,0,0,1,0-.184,1.172,1.172,0,0,0-.889-1.516l-.765-.15-1.5-1.14a.438.438,0,0,0-.4-.068l-.776.252c-.009-.2-.011-.408,0-.611a.442.442,0,0,0,.332.115,5.038,5.038,0,0,0,.637-.072c.282-.042.559-.088.59-.093a.438.438,0,0,0,.289-.678l-.377-.554.54-.386a.434.434,0,0,0,.125-.138l.942-1.645.375-.4a1.56,1.56,0,0,0,.3-1.654,1.674,1.674,0,0,0-.564-.718,8.11,8.11,0,0,1,4.642-1.658l-.486.61-2.28.8a.438.438,0,0,0-.26.246l-.644,1.56a.435.435,0,0,0,.048.421l.9,1.254a4.063,4.063,0,0,0-.378.483c-.067.1-.131.186-.173.234l-.116.131a3.326,3.326,0,0,0-.574.8,2.164,2.164,0,0,0,.18,2.187,2.042,2.042,0,0,0,1.928.828,2.793,2.793,0,0,0,.351-.071c.306-.076.35-.065.406-.013l.017.017a.694.694,0,0,1,0,.117,1.45,1.45,0,0,0,.034.367,1.191,1.191,0,0,0,.315.52.869.869,0,0,1,.11.135c.1.229.057.346-.045.658l-.027.082a2.021,2.021,0,0,0,.259,1.461c.062.136.12.265.158.376.323.958.567,1.181.784,1.28a.817.817,0,0,0,.34.072h0a2.041,2.041,0,0,0,1.335-.794,1.165,1.165,0,0,0,.234-.547.553.553,0,0,1,.034-.127.838.838,0,0,1,.1-.133,1.3,1.3,0,0,0,.3-.5.684.684,0,0,1,.216-.336l.078-.083a1.2,1.2,0,0,0,.237-1.385c-.087-.281.043-.459.505-.89a3.827,3.827,0,0,0,.565-.61.831.831,0,0,0,.156-.783.882.882,0,0,0-.772-.434,1.423,1.423,0,0,1-.268-.057,1.592,1.592,0,0,1-.442-.681c-.026-.057-.051-.113-.076-.168-.044-.094-.089-.21-.136-.332a2.983,2.983,0,0,0-.533-.987,2.278,2.278,0,0,0-1.04-.469c-.121-.033-.235-.063-.308-.09A.436.436,0,0,0,56.316,70a.983.983,0,0,0-.406.171.52.52,0,0,0-.1.116c-.093-.052-.2-.122-.281-.175a.579.579,0,0,0-.049-.332c-.22-.466-.918-.431-1.056-.419-.07.006-.161.009-.256.012s-.222.008-.342.017a.8.8,0,0,1,.7-.419h.2a.438.438,0,1,0,0-.875h-.2a1.688,1.688,0,0,0-1.349.684l-.416-.582.477-1.155,2.214-.776a.438.438,0,0,0,.2-.14l.971-1.218a8.146,8.146,0,0,1,6.228,4.018,8.044,8.044,0,0,1,.8,1.917l-.106.095a1.019,1.019,0,0,0-.279.412L63.131,71a.958.958,0,0,0-.173-.3l-.429-.5a.961.961,0,0,0-.732-.338h-.525a.594.594,0,0,0-.494.923l.009.013a3.8,3.8,0,0,1-.988.587L59.127,70.1v-.285a.439.439,0,0,0-.135-.316l-.648-.618a.435.435,0,0,0-.157-.1l-.583-.2a.438.438,0,0,0-.29.826l.494.174.444.424v.206a.439.439,0,0,0,.05.2l.9,1.725a.438.438,0,0,0,.539.208l.262-.1a4.644,4.644,0,0,0,1.665-1.066.439.439,0,0,0,.108-.441h.02a.088.088,0,0,1,.067.031l.429.5a.087.087,0,0,1,.016.027l.473,1.3a.436.436,0,0,0,.317.278.443.443,0,0,0,.4-.118l.225-.225a1.146,1.146,0,0,0,.172-.221,8.173,8.173,0,0,1-3.063,7.059.438.438,0,1,0,.54.688A9,9,0,0,0,63.6,68.49ZM48.2,71.614l.228.335-.258.034-.034-.032c-.078-.072-.182-.165-.334-.3a8.18,8.18,0,0,1,2.377-4.518.81.81,0,0,1,.459.448.682.682,0,0,1-.132.724l-.409.439a.441.441,0,0,0-.06.081l-.92,1.606-.81.579A.44.44,0,0,0,48.2,71.614Zm3,4.829.11.339a.3.3,0,0,1-.191.374l-.346.112a.438.438,0,0,0-.295.334L50.228,78.9a8.224,8.224,0,0,1-1.451-1.846,8.062,8.062,0,0,1-.989-2.792l.74-.24,1.4,1.063a.44.44,0,0,0,.181.081l.865.169a.3.3,0,0,1,.225.384A1.165,1.165,0,0,0,51.2,76.442Zm3.328-6.1a.44.44,0,0,0,.226.319c.062.033.151.092.245.155a2.064,2.064,0,0,0,.914.42.669.669,0,0,0,.542-.223L56.457,71,56.462,71a.461.461,0,0,0,.073-.077l.1.027.011,0a2.689,2.689,0,0,1,.633.224,2.427,2.427,0,0,1,.353.7c.053.136.1.265.16.387.021.045.042.091.062.137l.008.018a2.243,2.243,0,0,0,.761,1.055,1.351,1.351,0,0,0,.538.178c-.1.109-.213.219-.336.333a1.692,1.692,0,0,0-.745,1.789c.112.362.109.365-.046.534l-.071.076a1.522,1.522,0,0,0-.412.671.458.458,0,0,1-.123.189,1.627,1.627,0,0,0-.205.272,1.219,1.219,0,0,0-.136.4.362.362,0,0,1-.054.165,1.93,1.93,0,0,1-.418.369.715.715,0,0,1-.2.1,3.073,3.073,0,0,1-.329-.751c-.051-.153-.122-.308-.19-.458a1.465,1.465,0,0,1-.223-.83l.026-.08a1.613,1.613,0,0,0,.021-1.267,1.328,1.328,0,0,0-.27-.387.945.945,0,0,1-.112-.137.7.7,0,0,1-.009-.154.953.953,0,0,0-.3-.778,1,1,0,0,0-.707-.275,2.1,2.1,0,0,0-.509.078,2.091,2.091,0,0,1-.241.05,1.163,1.163,0,0,1-1.115-.47,1.288,1.288,0,0,1-.1-1.3,2.577,2.577,0,0,1,.437-.591l.007-.008.115-.131c.071-.082.147-.19.227-.3a3.006,3.006,0,0,1,.319-.405,2.3,2.3,0,0,1,.736-.1c.1,0,.206-.007.3-.015l.029,0A.44.44,0,0,0,54.525,70.338Z" transform="translate(0 0)" fill="#2871b4"/>
      <path id="Path_640" data-name="Path 640" d="M319.158,313.892a1.246,1.246,0,0,0-.019,1.242.812.812,0,0,0,.665.407h0a.665.665,0,0,0,.106-.009c.393-.064.682-.454.911-1.225l.409-1.38a.437.437,0,0,0,0-.237l-.167-.631a.438.438,0,0,0-.808-.1c-.04.073-.075.149-.108.222a1.482,1.482,0,0,1-.16.294.865.865,0,0,1-.176.1,1.045,1.045,0,0,0-.626.617,1.113,1.113,0,0,0-.026.531c.015.1.015.116,0,.156Zm.866-.428a.9.9,0,0,1,.164-.092l-.137.462a1.458,1.458,0,0,0-.02-.235A.316.316,0,0,1,320.023,313.464Z" transform="translate(-259.977 -236.654)" fill="#2871b4"/>
      <path id="Path_641" data-name="Path 641" d="M246.453,155.795l-.023-.008a.438.438,0,0,0-.29.826l.023.008a.438.438,0,1,0,.29-.826Z" transform="translate(-190.124 -87.665)" fill="#2871b4"/>
    </g>
  </g>
  <g id="Icon_Linkedin" transform="translate(54 -12)">
    <rect id="Rectangle_1-4" data-name="Rectangle 1" width="18" height="18" transform="translate(0 12)" fill="#eee" opacity="0"/>
    <g id="Icon_Linkedin-2" data-name="Icon_Linkedin" transform="translate(5 6.292)">
      <g id="Ellipse_12" data-name="Ellipse 12" transform="translate(-5 5.708)" fill="none" stroke="#2871b4" stroke-width="1">
        <circle cx="9" cy="9" r="9" stroke="none"/>
        <circle cx="9" cy="9" r="8.5" fill="none"/>
      </g>
      <g id="Group_105" data-name="Group 105" transform="translate(0 9.708)">
        <rect id="Rectangle_78" data-name="Rectangle 78" width="1.838" height="5.521" transform="translate(0.106 2.657)" fill="#2871b4"/>
        <path id="Path_642" data-name="Path 642" d="M156.616,139.963a1.979,1.979,0,0,0-1.532-.632,2.207,2.207,0,0,0-.638.086,1.448,1.448,0,0,0-.485.242,2.076,2.076,0,0,0-.532.584v-.785H151.6l.006.267q.006.267.006,1.649t-.011,3.6h1.833V141.9a1.345,1.345,0,0,1,.061-.451,1.183,1.183,0,0,1,.354-.476.9.9,0,0,1,.588-.192.793.793,0,0,1,.7.331,1.612,1.612,0,0,1,.226.916v2.952H157.2v-3.164A2.652,2.652,0,0,0,156.616,139.963Z" transform="translate(-148.639 -136.802)" fill="#2871b4"/>
        <path id="Path_643" data-name="Path 643" d="M1.036,9.708a1.049,1.049,0,0,0-.749.27A.9.9,0,0,0,0,10.661a.913.913,0,0,0,.279.68,1,1,0,0,0,.735.273h.011a1.05,1.05,0,0,0,.755-.273.882.882,0,0,0,.281-.68.929.929,0,0,0-.284-.682A1.019,1.019,0,0,0,1.036,9.708Z" transform="translate(0 -9.708)" fill="#2871b4"/>
      </g>
    </g>
  </g>
</svg>
