<svg xmlns="http://www.w3.org/2000/svg" width="97" height="32" viewBox="0 0 97 32">
  <path id="coca-bw" d="M81.047,27.289l-.3.268c-.426.384-.865.8-1.395.59a.535.535,0,0,1-.274-.4,6.985,6.985,0,0,1,.944-3.11l.122-.26c1.371-2.307,2.965-5.024,5.306-6.91a1.31,1.31,0,0,1,1.274-.34.668.668,0,0,1,.225.437.74.74,0,0,1-.075.242c-.654,1.064-1.276,2.182-1.882,3.254a45.037,45.037,0,0,1-3.945,6.232ZM68.365,21.853A2.638,2.638,0,0,1,66.388,19.9a2.684,2.684,0,0,1,1.449-2.762,1.44,1.44,0,0,1,1.3-.242,1.33,1.33,0,0,1,.47,1.18,7.267,7.267,0,0,1-.074.876l-.007.063a11.954,11.954,0,0,1-1.163,2.834Zm-6.04,6a1.405,1.405,0,0,1-.22-.79c-.031-1.754,1.84-4.893,3.162-6.6h0A5.151,5.151,0,0,0,67.835,22.8c-.94,2.11-4.165,6.63-5.51,5.056Zm22.821.311c-.313.215-.753.05-.588-.442a25.708,25.708,0,0,1,2.037-3.8l4.534-8.1H88.024c-.148.245-.464.806-.464.806a4.277,4.277,0,0,0-.75-.894,2.714,2.714,0,0,0-2.64.184c-3.34,1.967-5.776,5.854-7.7,8.884,0,0-2.023,3.37-3.146,3.62-.876.071-.786-1.118-.748-1.4a22.835,22.835,0,0,1,1.92-5.633,43.016,43.016,0,0,0,5.125-4.22,51.638,51.638,0,0,0,7.138-8.341,7.106,7.106,0,0,1-1.056.116c-2.793,3.925-8.508,9.63-10.24,10.478.767-1.86,5.726-10.737,9.946-14.984l.664-.644C87.1,2.783,88.167,1.746,89,1.576c.088-.009.2,0,.3.206a3.888,3.888,0,0,1-.587,2.03l-.468.965a10.827,10.827,0,0,0,1.1-.268A5.209,5.209,0,0,0,90.193,1.2a.947.947,0,0,0-.75-.8c-1.26-.241-2.631.7-3.735,1.458l-.045.026C79.99,6.37,75.2,12.823,71.008,21.64a2.979,2.979,0,0,1-1.677.375,14.42,14.42,0,0,0,1.2-3.263,8.737,8.737,0,0,0,.087-1.082,2.284,2.284,0,0,0-.868-1.994,2.978,2.978,0,0,0-2.462.09c-3,1.251-5.233,4.345-6.848,6.892a15.205,15.205,0,0,0-1.974,5.337c-.17,1.556.175,2.557,1.052,3.058A2.92,2.92,0,0,0,62,30.8c3.033-1.61,5.153-4.837,6.824-7.787a9.872,9.872,0,0,0,1.669-.215.038.038,0,0,1,.028.01c-.04.133-.4,1.206-.4,1.206-1.059,3.129-1.549,5.257-.548,6.518,1.43,1.779,3.8-.063,5.72-2.5-.412,2.915,1.087,3.37,2.23,3.147a9.157,9.157,0,0,0,3.454-2.494c-.218.85-.158,2.37,1.036,2.521a3.188,3.188,0,0,0,2.14-.68c2.542-1.4,5.586-6.043,6.376-7.387H89.5c-1.123,1.71-2.553,3.953-4.35,5.017h0ZM45.976,10.808h2.91L50.53,8.12H47.62l-1.643,2.688ZM92.46,3.668a11.766,11.766,0,0,1-7.3,1.806q-1.163,1.309-2.216,2.71c3.908,1,8.05-1.226,10.361-3.344A16.418,16.418,0,0,0,97,.012a19.443,19.443,0,0,1-4.54,3.656ZM67.99,2.99c-.462,5.346-4.587,8.485-5.608,8.734-.618.125-1.674-.152-.732-2.395a14.883,14.883,0,0,1,6.3-6.9,1.377,1.377,0,0,1,.042.563ZM59.953,16.463a1.8,1.8,0,0,0-1.745-1.01c-2.428.223-4.8,2.235-6.05,5.122a14.836,14.836,0,0,0-1.245,4.658,12.8,12.8,0,0,1,4.043-3.1,8.5,8.5,0,0,1,1.45-3.531c.459-.689,1.377-1.8,2.408-1.5.9.3.584,2.816-.613,5.247a16.858,16.858,0,0,1-3.613,4.81c-1.213,1.038-3.007,2.29-4.577,1.324a3.486,3.486,0,0,1-1.386-3.416c.472-4.514,2.512-8.359,5.43-12.74,3.01-4.067,6.329-8.242,10.8-10.469a3,3,0,0,1,2.485-.286,16.368,16.368,0,0,0-6.2,6.625c-.508,1.091-1.216,2.566-.5,3.871a1.491,1.491,0,0,0,1.565.7c2.452-.572,4.036-2.878,5.33-4.988a11.7,11.7,0,0,0,1.417-4.962c0-.215-.01-.5-.029-.716,1.172-.625,3.573.483,3.573.483,1.877.626,5.874,3.71,7.221,4.3.658-.768,1.739-1.93,2.347-2.511l-.88-.546c-1.41-.867-2.9-1.69-4.369-2.5A8.671,8.671,0,0,0,69.391.63c-.543.2-1.038.366-1.038.366C67.329-.13,65.649-.025,64.412.28,59.96,1.567,55.827,4.705,51.4,10.15A36.142,36.142,0,0,0,45.04,21.736c-.83,2.45-1.082,6.053.944,8.19,1.723,1.814,4.008,1.42,5.621.768a17.9,17.9,0,0,0,8.2-9.771c.378-1.279.8-3.085.147-4.462ZM21.208,12.315c-.006.018-.593,1.376-.593,1.376-.085.072-.22.036-.374,0l-.264-.045a2.376,2.376,0,0,1-1.646-1.474,2.9,2.9,0,0,1,1.307-2.665,1.445,1.445,0,0,1,1.6-.16,1.693,1.693,0,0,1,.354,1.126,6.161,6.161,0,0,1-.38,1.842ZM19.946,14.9s-.027.081-.04.107c0,0-1.337,2.19-1.337,2.19a10.25,10.25,0,0,1-3.064,3.094c-.372.125-.886.206-1.148-.125-.556-.67-.27-1.6-.037-2.351l.082-.268a22.355,22.355,0,0,1,2.756-4.927.135.135,0,0,1,.052-.017.069.069,0,0,1,.009.026,4.422,4.422,0,0,0,2.765,2.1c.006,0,.011.01.011.027a.443.443,0,0,1-.05.143Zm16.672-1.439a42.691,42.691,0,0,1,2.754-3.433c1.423-1.261,1.992-.706,2.041-.313q-2.125,3.838-4.368,7.608c0-.009-.461.706-.461.706a6.826,6.826,0,0,1-2.375,2.459.687.687,0,0,1-.571-.063.613.613,0,0,1-.258-.59c.064-.769.84-3.12,3.238-6.374ZM21.843,8.022c-1.839-1.215-5.536,1.109-8.5,5.1-2.708,3.576-3.877,7.733-2.6,9.655,1.892,2.262,5.406-1.028,6.9-2.789l.193-.206A21.909,21.909,0,0,0,20.4,16.086l.731-1.216c.432-.08.952-.2,1.538-.375-.008.026-2.242,3.808-2.014,5.685.071.573.017,2.665,2.044,3.3,2.7.456,4.86-1.654,6.763-3.532l.508-.49c-.047.187-.107.436-.107.436-.791,2.772.275,3.353.942,3.568,2.016.59,4.424-2.36,4.432-2.36-.062.93-.245,1.7.727,2.315a2.937,2.937,0,0,0,2.553-.647,27.516,27.516,0,0,0,6.247-7.076H43.705c-.012,0-2.6,3.786-4.288,4.608,0,0-.309.159-.485.033-.219-.187-.132-.578,0-.854.009-.018,6.5-11.36,6.5-11.36H42.369s-.335.545-.362.58c-.02-.017-.07-.11-.1-.156C40,5.9,35.7,9.969,32.467,14.689a30.9,30.9,0,0,1-4.479,5.334s-2.437,2.251-3.479.634a3.152,3.152,0,0,1-.049-2.326,19.354,19.354,0,0,1,5.68-8.538A1.765,1.765,0,0,1,31.9,9.337a.78.78,0,0,1,.183,1.064,1.7,1.7,0,0,0-1.358.527A2.135,2.135,0,0,0,30,13.083c1.1,1.573,3.286-1.538,3.18-3.433a2.04,2.04,0,0,0-.934-1.637,3.2,3.2,0,0,0-2.812.028,12.536,12.536,0,0,0-3.71,2.9c-1.23,1.368-3.34,2.888-4,2.718.216-.582,2-4.256.123-5.632ZM37.248,27.914c-3.61-2.342-8.508-2.753-16.408-.545-8.421,1.994-11.23,3.272-14.917.706C4.506,26.815,4,24.785,4.378,21.862c.88-4.765,3.257-9.352,7.48-14.438,2.357-2.646,4.543-4.917,7.43-5.83,2.212-.571,2.006,1.18,1.738,1.431a2.13,2.13,0,0,0-1.124.286,2.937,2.937,0,0,0-1.159,1.994c-.063,1.547,1.526,1.225,2.21.376.74-.957,1.83-2.79.972-4.5A2.519,2.519,0,0,0,20.172.013c-2.644-.153-5.106,1.117-7.378,2.52A32.421,32.421,0,0,0,1.6,16.1C.305,19.287-.868,23.846.89,27.557c1.36,2.575,4.183,3.942,7.552,3.656a59.246,59.246,0,0,0,7.14-1.483c1.921-.466,11.755-3.872,14.987,2.056a4.364,4.364,0,0,1,3.76-2.146A12.31,12.31,0,0,1,42.041,32a19.7,19.7,0,0,0-4.791-4.086h0Z" transform="translate(0 0)" fill="#12407d" opacity="0.5"/>
</svg>
