<svg xmlns="http://www.w3.org/2000/svg" width="101" height="49" viewBox="0 0 101 49">
  <g id="universal-bw" opacity="0.5">
    <path id="Path_722" data-name="Path 722" d="M67.7,31.285c-.186-.248.031-.619.031-.619H54.171l1.51,1.313a1.734,1.734,0,0,1,.943.97c.453,1.194-.22.225-.22,2.03,0,1.661-.471,1.392-.471,1.392a6.114,6.114,0,0,1-1.12,3.166.82.82,0,0,0-.146,1.186s-.219.123-.537,1.545c-.1.46.49,1.17,1.005.993.385-.132-.937-.26.494-.859.554-.232.1-.67.1-.67s.93-.072,1.452-1.466c.923.133.58-.43,2.482-.837.5-.109.61-.258.548-.729s.62.068,2.5-1.844c1.486-1.508.95-1.847,1.978-2.4,1.083-.575,1.185.05,1.547-.42a4.711,4.711,0,0,0,.884-1.686l.243-.379s.522-.444.335-.69m6.241.536C70.827,41.484,62.057,49,50.945,49,39.16,49,31.236,41.585,28.054,32.031c3.311,8.9,12.317,15.28,22.907,15.28,10.672,0,19.743-6.481,22.984-15.489M54.728,15.862c-.837.025-.846-.654-1.432-.53s-.485-.5-.912-.51c-.316-.007-.762-.156-.91.067-.244.363.282-.155.826.307.773.654.711.209,1.173.582.3.243.055.382.232.294a1.194,1.194,0,0,1,.856.081s1.008-.315.167-.29m3.195,1.206c.12,0,.286-.029.3-.178a.6.6,0,0,0-.36-.121l.06.3m-2.714-.3h.181c.151-.043.271.136.3.241.452-.36.966-.255,1.448-.36-.482-.2-.889-.584-1.448-.6-.722.016-.06.375-.482.72M50.944,0C38.55,0,31.136,7.444,28,17.081A23.69,23.69,0,0,1,43.462,2.769a.362.362,0,0,0-.142.2c-.67.417-.44.9-.773,1.006-.578.193-1.21,1.952-1.21,1.952s.358.24-.764,1.492a5.956,5.956,0,0,0-1.2,2.593,4.693,4.693,0,0,1,.495,2.4c-.089.978-.13.252.3.96.25.416.522,1.866.687,1.3.318-1.08-.575-2.078-.427-3.152.033.135.34-.426.33.08C40.723,12.928,42.4,15.48,42.4,15.48s-.625.632.028.632l-.165.391a1.316,1.316,0,0,1,.8.227c.313.255.584.57.87.57h4.811a6.1,6.1,0,0,1,.62-1.7c.28-.246-.558,0-.807-.246s-.4.216-.527.463-.28.68-.652.8a7.112,7.112,0,0,1-1.456.186c-.187,0-.748-1.056-.748-1.056-.495-.8-.126-1.792.437-2.76a2.06,2.06,0,0,1,2.48-.65c1.078-.846,1.337.063,2.292-.348,1.255-.54.555,1.436,1.767,1.934.5-1.33-1.145-2.331-.11-2.958.737-.448,1.293-.726,1.6-1.325.43-.856.6-1.48.93-1.592a.842.842,0,0,0,.6-.982,1.6,1.6,0,0,0,1.448-.355c-.484-.258-1.19-.481-1-1,.218-.61,1.86.63,2.343-.37C56.971,4.92,55.975,4,55.378,3.791c-.408.442-.663.265-1.19-.15-.892-.7-.968-.036-1.524-.517-.446.888.225.817.43,1.041.574.624-.578-.561-.467,1.031.027.412-.587.49-1.043-.407-.237-.465-2.131-.367-2.418-.814A6.525,6.525,0,0,1,55.081,2.05c-.1-.04-.207-.075-.313-.112A23.939,23.939,0,0,1,74,17.29C70.923,7.545,62.463,0,50.944,0M10,20H6.263l.558.661v4.886c0,1.1-.73,1.562-1.821,1.562s-1.822-.464-1.822-1.562V20.661L3.738,20H0l.56.661v4.965C.56,28.06,1.927,29,5,29s4.442-.94,4.442-3.374V20.66L10,20m13,0H19.832l.561.674v4.534L15.848,20H13l.563.674v7.652L13,29h3.169l-.562-.674V23.71L20.433,29h2.006V20.674L23,20m8,9-.593-.674V20.674L31,20H27l.595.674v7.652L27,29h4m11-9H38.885l.55.674-2.2,4.952-2.12-4.952.55-.674H32l4.07,9h1.82L42,20m11,9V26.558l-.638.566H48.018V25.4H50.77l.625.568v-2.93l-.625.566H48.018V21.874h4.344l.638.568V20H45l.535.674v7.652L45,29h8" fill="#12407d"/>
    <path id="Path_723" data-name="Path 723" d="M66,29l-2.315-3.549a2.912,2.912,0,0,0,1.93-2.726c0-1.5-.868-2.725-3.3-2.725H57l.537.674v7.652L57,29h3.567l-.538-.674V25.775H61.1l1.636,2.551L62.2,29Zm-2.941-6.085a1.281,1.281,0,0,1-1.406,1.174H60.029V21.874h1.93A1,1,0,0,1,63.059,22.915Z" fill="#12407d" fill-rule="evenodd"/>
    <path id="Path_724" data-name="Path 724" d="M77,25.95c0-1.493-1.117-2.323-2.746-2.887-1.05-.35-2.544-.6-2.544-1.348,0-.365.417-.62,1.13-.62a9.52,9.52,0,0,1,3.716,1.042V19l-.7.718a8.587,8.587,0,0,0-2.908-.662C69.96,19.056,69,20.464,69,21.742c0,1.745,1.08,2.505,2.777,3.137,1.265.464,2.437.507,2.437,1.28,0,.66-.727.745-1.09.745a7.722,7.722,0,0,1-4.073-1.377V29l.7-.816a10.663,10.663,0,0,0,3.494.76c2.6,0,3.756-1.224,3.756-2.995" fill="#12407d"/>
    <path id="Path_725" data-name="Path 725" d="M90,29l-4.378-9H82.63l.327.674L79,29h3.263l-.557-.674.435-.944H86.37l.435.944L86.247,29Zm-4.283-3.238H82.78l1.468-3.225Z" fill="#12407d" fill-rule="evenodd"/>
    <path id="Path_726" data-name="Path 726" d="M101,29V26.558l-.659.566H96.12v-6.45L96.672,20H93l.551.674v7.652L93,29h8m-1.9-7.5c0,.752.408,1.359.906,1.359s.906-.607.906-1.358-.41-1.362-.906-1.362-.907.609-.907,1.362Zm-.1,0c0-.828.453-1.5,1.006-1.5s.994.672.994,1.5-.442,1.5-.994,1.5S99,22.33,99,21.5Z" fill="#12407d"/>
    <path id="Path_727" data-name="Path 727" d="M99.987,20.12A.67.67,0,0,0,99.6,20a.507.507,0,1,0-.013,1,.681.681,0,0,0,.418-.133V20.74a.578.578,0,0,1-.418.173.416.416,0,1,1,0-.826.561.561,0,0,1,.4.157v-.125" fill="#12407d" fill-rule="evenodd"/>
  </g>
</svg>
