<svg xmlns="http://www.w3.org/2000/svg" width="169.655" height="30" viewBox="0 0 169.655 30">
  <g id="johnson-bw" opacity="0.5">
    <path id="Path_715" data-name="Path 715" d="M60.931,10.863a.4.4,0,0,1,.424-.418c.4,0,1,.418,1.344,1.254-.122,0-.306.036-.429.036C61.542,11.735,60.931,11.395,60.931,10.863Zm-44.026,0a.392.392,0,0,1,.426-.418c.39,0,.969.418,1.305,1.254-1.124,0-1.731-.24-1.731-.836ZM25.4,6.543c0-4.472.885-5.159,1.16-5.159.487,0,.545.3.545,2.015a10.153,10.153,0,0,1-1.7,5.334Zm30.911,4.41a5.123,5.123,0,0,0-.948,3.055c0,2.52,1.459,4.925,4.294,4.925,2.74,0,4.66-2.133,4.66-5.107a6.143,6.143,0,0,0-.09-1.341,7.422,7.422,0,0,0,1.614-1.026,1.669,1.669,0,0,1,.853-.42c.273,0,.393.21.393.6v5.884c0,.958.308,1.41,1.066,1.41a1.655,1.655,0,0,0,1.462-1.052c1.007-2.07,2.466-4.83,3.1-5.877.153-.24.278-.424.365-.424.122,0,.185.091.185.48v4.684c0,1.318.611,2.19,1.946,2.19,1.4,0,2.1-1.325,3.327-3.364a.682.682,0,0,0,.084-.3.446.446,0,0,0-.483-.424c-.276,0-.429.273-1.34,1.26-.185.187-.364.448-.7.448-.12,0-.214-.145-.214-.328V10.977c0-1.41-.64-1.98-1.462-1.98a2.068,2.068,0,0,0-1.8,1.111,52.217,52.217,0,0,0-2.677,4.71c-.065.125-.153.3-.212.3s-.09-.093-.09-.305v-3.84c0-1.107-.305-1.98-1.5-1.98-1.25,0-1.888.842-2.8,1.471a8.758,8.758,0,0,1-1.49.9,3.154,3.154,0,0,0-2.68-2.282,1.522,1.522,0,0,0-1.617,1.566,2.067,2.067,0,0,0,1.43,1.976,3.815,3.815,0,0,0,1.495.214,2.015,2.015,0,0,0,.483-.034A5.626,5.626,0,0,1,63,13.862,2.682,2.682,0,0,1,60.479,16.8c-1.71,0-2.71-1.62-2.71-3.478a5.125,5.125,0,0,1,1.119-3.387c.281-.3.49-.485.49-.762,0-.14-.209-.175-.394-.175a7.909,7.909,0,0,0-3.316.96,19.821,19.821,0,0,0-3.658,2.583c-.548-1.2-1.217-2.253-1.554-3.066-.121-.33-.21-.712-.454-.712-.216,0-.31.21-.459.623a37.238,37.238,0,0,1-4.11,6.875c-.061.086-.15.18-.179.18-.066,0-.1-.029-.1-.212V10.977c0-1.41-.578-1.98-1.364-1.98a2.029,2.029,0,0,0-1.8,1.111c-1,1.5-2.226,3.694-2.8,4.771-.093.186-.185.243-.216.243s-.055-.12-.055-.305v-3.84c0-1.41-.581-1.98-1.374-1.98a2,2,0,0,0-1.828,1.111c-1.276,2.133-3.406,5.4-3.8,5.94a.5.5,0,0,1-.183.181c-.06,0-.1-.058-.1-.207V10.977c0-1.41-.577-1.98-1.364-1.98-1.1,0-1.7,1-2.1,1.622-.55.87-1.278,2.042-1.855,3.124a5.192,5.192,0,0,1-.857,1.379c-.059,0-.059-.273-.059-.78v-4.02a11.13,11.13,0,0,0,3.1-7.5C28.5,1.2,27.773.3,26.649.3c-2.106,0-3.716,3.241-3.716,7.078V10.5a8.446,8.446,0,0,1-3.019,1.112c-.576-1.677-1.8-2.548-2.767-2.525a1.524,1.524,0,0,0-1.615,1.566c0,1.588,1.584,2.248,2.982,2.248h.4a5.035,5.035,0,0,1,.06.961A2.681,2.681,0,0,1,16.447,16.8c-1.7,0-2.712-1.62-2.712-3.478a5.094,5.094,0,0,1,1.123-3.387c.277-.3.492-.572.492-.762,0-.14-.215-.175-.4-.175-1.156,0-3.711,1.536-6.758,4.536A63.893,63.893,0,0,1,7.615,6.51a25.8,25.8,0,0,1,.634-5.338,6.105,6.105,0,0,0,.1-.807C8.348.124,8.218,0,7.89,0,5.42,0,0,3.872,0,9.662c0,4.106,1.526,6.087,4.17,8.637-1.605,2.55-2.893,5.58-2.893,8.28C1.277,28.526,1.739,30,3.2,30c3.045,0,5.327-6.236,5.327-10.86,0-1.378-.056-2.76-.176-4.137a20.3,20.3,0,0,1,3.283-2.912,7.061,7.061,0,0,0-.3,1.917c0,2.52,1.465,4.925,4.294,4.925,2.653,0,4.66-2.133,4.66-5.107,0-.384-.032-.718-.06-1.076a8.03,8.03,0,0,0,2.712-.928v6.03A1,1,0,0,0,24,18.933c.7,0,1.069-.483,1.582-1.587.43-.9,1.584-2.972,2.284-4.206.551-.963.856-1.588,1.1-1.588.057,0,.122.147.122.507v5.132c0,1.38.731,1.742,1.364,1.742a1.7,1.7,0,0,0,1.4-.871c1.585-2.222,3.262-4.859,3.927-6,.123-.2.274-.36.4-.36s.18.065.18.45v5.374c0,.958.305,1.41,1.07,1.41a1.605,1.605,0,0,0,1.424-1.052c1.012-2.07,2.5-4.8,3.142-5.877.15-.24.3-.452.393-.452.127,0,.155.147.155.54v5.1c0,1.38.73,1.742,1.374,1.742a2.6,2.6,0,0,0,1.947-1.29c1-1.3,2.462-3.6,3.347-5.073a12.876,12.876,0,0,1,.916,1.682,4.937,4.937,0,0,0-1.464,2.906,1.663,1.663,0,0,0,1.615,1.775,2.94,2.94,0,0,0,2.675-3.15,6.378,6.378,0,0,0-.481-2.189,10.505,10.505,0,0,1,3.837-2.642ZM6.148,17.491a30.983,30.983,0,0,1,.46,4.38c0,2.874-.971,6.236-2.647,6.208-.647,0-1.191-.637-1.218-1.741A14.119,14.119,0,0,1,6.148,17.491Zm44.46-2.045a3.939,3.939,0,0,1,.278,1.353c0,.481-.184.962-.52.962-.24,0-.485-.27-.485-.691a3.528,3.528,0,0,1,.727-1.624ZM7.248,1.14c0,.183-.427,1.02-.973,2.522a18.625,18.625,0,0,0-1.13,6.446,42.833,42.833,0,0,0,.736,5.822l-.975,1.3A10.726,10.726,0,0,1,2.378,9.662c0-5.1,3.136-8.635,4.747-8.635.1,0,.123.026.123.113Zm144.581,9.723a.392.392,0,0,1,.427-.418A1.786,1.786,0,0,1,153.6,11.7c-.12,0-.3.036-.433.036-.73,0-1.342-.34-1.342-.872Zm-44.382,0a.4.4,0,0,1,.43-.418c.4,0,.988.418,1.319,1.254-1.135,0-1.75-.24-1.75-.836Zm8.564-4.32c0-4.472.886-5.159,1.165-5.159.49,0,.552.3.552,2.015a10.127,10.127,0,0,1-1.717,5.334ZM96.617,17.492a32.4,32.4,0,0,1,.462,4.38c0,2.874-.98,6.236-2.673,6.208-.644,0-1.2-.637-1.227-1.741a14.04,14.04,0,0,1,3.438-8.847Zm44.808-2.045A3.883,3.883,0,0,1,141.7,16.8c0,.481-.184.962-.522.962-.242,0-.495-.27-.495-.691a3.492,3.492,0,0,1,.742-1.624ZM97.716,1.14c0,.183-.425,1.02-.981,2.522A18.612,18.612,0,0,0,95.6,10.108a43.312,43.312,0,0,0,.745,5.822l-.985,1.3a10.7,10.7,0,0,1-2.55-7.563c0-5.1,3.167-8.635,4.791-8.635.09,0,.116.026.116.113Zm-5.117,15a18.177,18.177,0,0,0,2.023,2.16c-1.628,2.55-2.915,5.578-2.915,8.28,0,1.946.463,3.42,1.937,3.42,3.066,0,5.365-6.236,5.365-10.86,0-1.378-.06-2.76-.183-4.137a20.221,20.221,0,0,1,3.317-2.912,6.964,6.964,0,0,0-.313,1.917c0,2.52,1.475,4.925,4.332,4.925,2.667,0,4.692-2.133,4.692-5.107,0-.384-.028-.718-.062-1.076a8.079,8.079,0,0,0,2.734-.928v6.03a1.009,1.009,0,0,0,1.068,1.081c.715,0,1.083-.483,1.6-1.587.428-.9,1.6-2.972,2.3-4.206.55-.963.858-1.588,1.11-1.588.057,0,.114.147.114.507v5.132c0,1.38.735,1.742,1.38,1.742a1.725,1.725,0,0,0,1.419-.871c1.59-2.222,3.28-4.859,3.954-6,.123-.2.279-.36.4-.36s.187.065.187.45v5.374c0,.958.3,1.41,1.07,1.41a1.63,1.63,0,0,0,1.445-1.052c1.013-2.07,2.516-4.8,3.158-5.877.157-.24.31-.452.4-.452.12,0,.154.147.154.54v5.1c0,1.38.73,1.742,1.373,1.742a2.6,2.6,0,0,0,1.966-1.29,60.874,60.874,0,0,0,3.379-5.073,13.36,13.36,0,0,1,.924,1.682,4.88,4.88,0,0,0-1.474,2.906,1.662,1.662,0,0,0,1.624,1.775,2.948,2.948,0,0,0,2.7-3.15,6.28,6.28,0,0,0-.49-2.189,10.681,10.681,0,0,1,3.867-2.642,5.136,5.136,0,0,0-.952,3.056c0,2.52,1.475,4.925,4.33,4.925,2.762,0,4.69-2.133,4.69-5.107a6.265,6.265,0,0,0-.085-1.341,7.716,7.716,0,0,0,1.628-1.026,1.676,1.676,0,0,1,.853-.42c.277,0,.407.21.407.6v5.884c0,.958.3,1.41,1.07,1.41a1.671,1.671,0,0,0,1.474-1.052c1.007-2.07,2.483-4.83,3.125-5.877.153-.24.279-.424.371-.424.125,0,.185.091.185.48v4.684c0,1.318.608,2.19,1.962,2.19,1.416,0,2.12-1.325,3.35-3.364a.7.7,0,0,0,.087-.3.453.453,0,0,0-.49-.424c-.274,0-.43.273-1.349,1.26-.182.187-.369.448-.705.448-.127,0-.213-.145-.213-.328V10.977c0-1.41-.653-1.98-1.48-1.98a2.085,2.085,0,0,0-1.807,1.111,50.762,50.762,0,0,0-2.7,4.71c-.066.125-.156.3-.221.3s-.09-.093-.09-.305v-3.84C160.6,9.87,160.3,9,159.1,9c-1.262,0-1.9.842-2.822,1.471a8.883,8.883,0,0,1-1.51.9,3.162,3.162,0,0,0-2.694-2.282,1.525,1.525,0,0,0-1.626,1.566,2.067,2.067,0,0,0,1.435,1.976,3.9,3.9,0,0,0,1.513.214,2.142,2.142,0,0,0,.489-.034,6.1,6.1,0,0,1,.028,1.053,2.691,2.691,0,0,1-2.551,2.938c-1.718,0-2.726-1.62-2.726-3.478a5.081,5.081,0,0,1,1.13-3.387c.279-.3.5-.485.5-.762,0-.14-.217-.175-.4-.175a8.071,8.071,0,0,0-3.344.96,19.887,19.887,0,0,0-3.681,2.583c-.554-1.2-1.225-2.253-1.567-3.066-.127-.33-.21-.712-.465-.712-.212,0-.306.21-.457.623a37.387,37.387,0,0,1-4.142,6.875c-.062.086-.154.18-.186.18-.058,0-.092-.029-.092-.212V10.977c0-1.41-.579-1.98-1.384-1.98a2.055,2.055,0,0,0-1.809,1.111c-1.014,1.5-2.239,3.694-2.822,4.771-.09.186-.18.243-.21.243s-.066-.12-.066-.305v-3.84c0-1.41-.58-1.98-1.378-1.98a2.012,2.012,0,0,0-1.843,1.111c-1.293,2.133-3.438,5.4-3.84,5.94a.425.425,0,0,1-.184.181c-.055,0-.09-.058-.09-.207V10.977c0-1.41-.582-1.98-1.383-1.98-1.108,0-1.717,1-2.119,1.622-.552.87-1.284,2.042-1.87,3.124a5.164,5.164,0,0,1-.857,1.379c-.062,0-.062-.273-.062-.78v-4.02a11.062,11.062,0,0,0,3.129-7.5C119.14,1.2,118.405.3,117.266.3c-2.115,0-3.74,3.241-3.74,7.078V10.5a8.564,8.564,0,0,1-3.043,1.112c-.579-1.677-1.807-2.548-2.783-2.525a1.527,1.527,0,0,0-1.63,1.566c0,1.588,1.59,2.248,3,2.248h.4a5.389,5.389,0,0,1,.056.961,2.687,2.687,0,0,1-2.545,2.938c-1.72,0-2.728-1.62-2.728-3.478a5.1,5.1,0,0,1,1.13-3.387c.275-.3.492-.572.492-.762,0-.14-.217-.175-.4-.175-1.168,0-3.744,1.536-6.817,4.536a63.913,63.913,0,0,1-.58-7.024,25.464,25.464,0,0,1,.645-5.338,5.994,5.994,0,0,0,.094-.807C98.826.124,98.7,0,98.369,0c-2.486,0-7.95,3.872-7.95,9.662a9.85,9.85,0,0,0,1.442,5.518A4.805,4.805,0,0,0,91,15.122a11.548,11.548,0,0,0-2.476.36v-.6a6.817,6.817,0,0,0-.865-3.658.354.354,0,0,0-.243-.088,2.02,2.02,0,0,0-.891.3c-.372.18-.74.363-.74.48a.432.432,0,0,0,.092.266,4.422,4.422,0,0,1,1.012,2.316,5.071,5.071,0,0,0-3.8-1.474c-1.845,0-2.4.807-2.4,1.622,0,1.56,2.118,2.34,4.792,2.34a7.545,7.545,0,0,0,1.59-.214c0,.481.062.907.062,1.264,0,.51.089.9.43.9.52,0,.83-1.024.889-2.491a11.928,11.928,0,0,1,2.766-.449,7.724,7.724,0,0,1,1.38.147Zm-6.045-.3a10.386,10.386,0,0,1-1.38.06c-1.2,0-2.084-.453-2.084-1.107,0-.419.212-.663.826-.663C84.9,14.13,85.693,14.793,86.554,15.84Z" fill="#12407d" fill-rule="evenodd"/>
  </g>
</svg>
