<svg xmlns="http://www.w3.org/2000/svg" width="127.297" height="29.207" viewBox="0 0 127.297 29.207">
  <g id="airliquide-bw" transform="translate(-0.079 -0.233)" opacity="0.5">
    <path id="Path_693" data-name="Path 693" d="M50.818,10.8v1.37a3.181,3.181,0,0,1,2.74-1.68H54.1v2.344h-.539a2.4,2.4,0,0,0-2.47,2.563v5.26H48.26V10.8h2.56Zm29.276,4.818a2.75,2.75,0,0,0-2.829-2.7,2.7,2.7,0,0,0-2.784,2.608,2.73,2.73,0,0,0,2.784,2.785h2.829Zm.225-3.624V10.8h2.559V24.191H80.049V20.7H77.131a5.129,5.129,0,1,1-.179-10.255,4.3,4.3,0,0,1,3.367,1.547ZM45.43,10.8v9.9H42.6V10.8h2.83Zm0-3.668V9.516H42.6V7.129h2.83Zm-10.6,2.386a3.182,3.182,0,0,0-3.278,3.05V13.98h5.074V9.515ZM36.674,20.7V16.19H31.6v4.464H28.727V12.786a5.89,5.89,0,0,1,6.106-5.658H39.5V20.654H36.674V20.7ZM69.857,7.129V9.516h-2.83V7.129Zm0,3.668v9.9h-2.83V10.8h2.83Zm31.251-3.668V9.516H98.28V7.129h2.83Zm0,3.668v9.9H98.28V10.8h2.83Zm-15.715,0h2.829v5.525a2.268,2.268,0,1,0,4.535,0V10.8h2.829v9.9H92.98V19.506l-.045.044a4.31,4.31,0,0,1-7.543-2.829V10.8ZM61.46,7.129V18.312h3.682V20.7h-6.51V7.129Zm49.886,8.751a2.808,2.808,0,1,1-2.829-2.7h2.829v2.7Zm.27,3.581v1.193h2.559V7.13h-2.83v3.624h-2.918a5.129,5.129,0,1,0-.18,10.255,4.407,4.407,0,0,0,3.368-1.547Zm7.274-4.641h5.747a2.8,2.8,0,0,0-2.784-2.078,3.115,3.115,0,0,0-2.964,2.078Zm3.008,6.188a5.491,5.491,0,0,1-5.7-5.26,5.491,5.491,0,0,1,5.7-5.26,5.292,5.292,0,0,1,5.478,5.26,6.121,6.121,0,0,1-.045.884h-8.442a3.055,3.055,0,0,0,2.964,2.122,3.329,3.329,0,0,0,2.829-1.194l2.02,1.282a6.022,6.022,0,0,1-4.8,2.166ZM12.248.233H.079V12.212A12.056,12.056,0,0,0,12.248,24.191a12.056,12.056,0,0,0,12.168-11.98A12.084,12.084,0,0,0,12.248.233ZM20.868,20.7h-8.62a8.558,8.558,0,0,1-8.622-8.487,8.557,8.557,0,0,1,8.622-8.487,8.556,8.556,0,0,1,8.62,8.487Zm-8.62-13.57a5.124,5.124,0,0,1,5.163,5.083v5.04H12.248a5.125,5.125,0,0,1-5.164-5.084,5.146,5.146,0,0,1,5.164-5.04Z" fill="#12407d"/>
    <g id="Group_110" data-name="Group 110">
      <path id="Path_694" data-name="Path 694" d="M30.94,28.358a1.859,1.859,0,0,1-.718-.136,1.225,1.225,0,0,1-.539-.406,2.486,2.486,0,0,1-.359-.587,2,2,0,0,1,0-1.443,1.294,1.294,0,0,1,.36-.587,1.224,1.224,0,0,1,.538-.406,1.864,1.864,0,0,1,.719-.135,1.574,1.574,0,0,1,1.033.315,1.4,1.4,0,0,1,.494.9h-.54a.944.944,0,0,0-.313-.587.97.97,0,0,0-.63-.226,1.641,1.641,0,0,0-.493.09,1.216,1.216,0,0,0-.36.316,1.411,1.411,0,0,0-.224.451,1.674,1.674,0,0,0,0,1.083,1.413,1.413,0,0,0,.225.451,1.2,1.2,0,0,0,.359.316.887.887,0,0,0,.494.09,1.1,1.1,0,0,0,.674-.225A.759.759,0,0,0,31.93,27h.538a1.379,1.379,0,0,1-.45.993,1.635,1.635,0,0,1-1.077.362Zm2.875-3.068a2.143,2.143,0,0,1,.45-.452,1.025,1.025,0,0,1,.628-.18h.135c.045,0,.045,0,.09.045v.541c-.045,0-.09-.045-.135-.045h-.135a1.3,1.3,0,0,0-.4.09.809.809,0,0,0-.315.226.986.986,0,0,0-.224.36,1.349,1.349,0,0,0-.09.452v1.985h-.539V24.748h.54v.541Zm3.593,3.068a1.86,1.86,0,0,1-.719-.136,1.225,1.225,0,0,1-.539-.406,1.462,1.462,0,0,1-.314-.587,2,2,0,0,1,0-1.443,1.294,1.294,0,0,1,.36-.587,1.23,1.23,0,0,1,.538-.406,1.859,1.859,0,0,1,1.392,0,1.094,1.094,0,0,1,.494.406,2.744,2.744,0,0,1,.315.632,2.243,2.243,0,0,1,.09.812h-2.74a1.63,1.63,0,0,0,.09.5,1.889,1.889,0,0,0,.224.406.694.694,0,0,0,.36.27,1.582,1.582,0,0,0,.494.09.872.872,0,0,0,.629-.18,1.142,1.142,0,0,0,.359-.541h.539a1.533,1.533,0,0,1-.54.9,1.846,1.846,0,0,1-1.032.272Zm-.045-3.294a1.336,1.336,0,0,0-.45.09.8.8,0,0,0-.314.226.986.986,0,0,0-.224.36,1.343,1.343,0,0,0-.09.452H38.4a1.329,1.329,0,0,0-.314-.858.824.824,0,0,0-.718-.27Zm5.255,3.248a.6.6,0,0,1-.63-.541c-.044.09-.134.135-.179.226-.09.045-.18.135-.27.18s-.224.09-.314.135a1.214,1.214,0,0,1-.4.046,1.8,1.8,0,0,1-.494-.046,1.577,1.577,0,0,1-.4-.18,1.925,1.925,0,0,1-.27-.316,1.336,1.336,0,0,1-.09-.451.81.81,0,0,1,.135-.5,1.055,1.055,0,0,1,.315-.316,1.6,1.6,0,0,1,.494-.18c.18-.046.4-.09.628-.136.135,0,.225-.045.36-.045.09-.045.18-.045.27-.09a.614.614,0,0,0,.179-.135.342.342,0,0,0,.045-.226.556.556,0,0,0-.225-.451,1,1,0,0,0-.584-.18.868.868,0,0,0-.628.18.78.78,0,0,0-.225.586h-.539a1.929,1.929,0,0,1,.09-.5,1.073,1.073,0,0,1,.27-.406,1.4,1.4,0,0,1,.448-.225,2.606,2.606,0,0,1,.63-.09,2.179,2.179,0,0,1,.538.045.839.839,0,0,1,.4.18.7.7,0,0,1,.27.361.978.978,0,0,1,.09.541V27.5a.53.53,0,0,0,.09.316c.045.09.134.09.314.045v.406c-.045,0-.09.045-.135.045-.045-.046-.09,0-.18,0Zm-1.662-.406a1.611,1.611,0,0,0,.494-.09.568.568,0,0,0,.314-.226.725.725,0,0,0,.18-.315,1.159,1.159,0,0,0,.09-.316v-.587a3.278,3.278,0,0,1-.36.136,1.585,1.585,0,0,1-.449.09c-.134.045-.27.045-.4.09a2.21,2.21,0,0,0-.314.135.977.977,0,0,0-.225.18.653.653,0,0,0-.09.316.67.67,0,0,0,.045.316.351.351,0,0,0,.18.18c.09.046.135.09.224.09h.315Zm2.424-3.2h.495V23.575h.539V24.7h.674v.451h-.674v2.3a.379.379,0,0,0,.09.27.374.374,0,0,0,.27.09h.179c.044,0,.09-.044.134-.044v.5a1.924,1.924,0,0,1-.224.045h-.225a.958.958,0,0,1-.539-.135.615.615,0,0,1-.224-.542V25.2h-.494v-.5Zm2.65,0h.54v3.564h-.54Zm0-1.354h.54v.677h-.54ZM47.243,24.7h.584l.719,2.256c.045.09.045.18.09.27s.044.18.09.226c.044.09.044.18.09.27a.638.638,0,0,1,.089-.27c.045-.09.045-.18.09-.226.045-.09.045-.18.09-.225l.763-2.256h.584l-1.257,3.564h-.63l-1.3-3.609Zm5.3,3.655a1.86,1.86,0,0,1-.719-.136,1.228,1.228,0,0,1-.539-.406,1.474,1.474,0,0,1-.314-.587,2,2,0,0,1,0-1.443,1.294,1.294,0,0,1,.36-.587,1.219,1.219,0,0,1,.538-.406,1.859,1.859,0,0,1,1.392,0,1.094,1.094,0,0,1,.494.406,2.744,2.744,0,0,1,.315.632,2.243,2.243,0,0,1,.09.812H51.42a1.63,1.63,0,0,0,.09.5,1.846,1.846,0,0,0,.224.406.694.694,0,0,0,.36.27,1.576,1.576,0,0,0,.494.09.868.868,0,0,0,.628-.18,1.151,1.151,0,0,0,.36-.541h.539a1.533,1.533,0,0,1-.54.9,1.846,1.846,0,0,1-1.032.272Zm0-3.294a1.331,1.331,0,0,0-.45.09.8.8,0,0,0-.314.226.986.986,0,0,0-.224.36,1.343,1.343,0,0,0-.09.452h2.11a1.329,1.329,0,0,0-.314-.858.947.947,0,0,0-.718-.27Zm5.344,3.294a1.861,1.861,0,0,1-.719-.136,1.225,1.225,0,0,1-.539-.406,2.554,2.554,0,0,1-.359-.587,2,2,0,0,1,0-1.443,1.294,1.294,0,0,1,.36-.587,1.224,1.224,0,0,1,.538-.406,1.982,1.982,0,0,1,1.438,0,1.233,1.233,0,0,1,.539.406,2.554,2.554,0,0,1,.359.587,2,2,0,0,1,0,1.443,1.587,1.587,0,0,1-.36.587,1.224,1.224,0,0,1-.538.406,1.86,1.86,0,0,1-.719.136Zm0-.452a1.605,1.605,0,0,0,.494-.09,1.2,1.2,0,0,0,.36-.316,1.427,1.427,0,0,0,.224-.45,1.677,1.677,0,0,0,0-1.084,1.408,1.408,0,0,0-.225-.45,1.207,1.207,0,0,0-.36-.317.881.881,0,0,0-.493-.09,1.605,1.605,0,0,0-.494.09,1.216,1.216,0,0,0-.36.316,1.391,1.391,0,0,0-.224.451,1.674,1.674,0,0,0,0,1.083,1.413,1.413,0,0,0,.225.451,1.2,1.2,0,0,0,.359.316A1.611,1.611,0,0,0,57.887,27.906Zm3.548-1.489L60.267,24.7H60.9l.853,1.308L62.6,24.7h.628l-1.167,1.624,1.392,1.94h-.674l-1.033-1.534-1.033,1.534h-.628Zm3.188,3.023h-.269c-.09,0-.135-.045-.224-.045v-.5h.044a.165.165,0,0,0,.135.045h.225a.646.646,0,0,0,.314-.09.558.558,0,0,0,.225-.361l.134-.361-1.392-3.474H64.4l.854,2.21c.044.09.044.181.09.226.044.09.044.135.089.226s.045.18.09.225c.045-.09.045-.135.09-.225s.044-.136.089-.226.045-.18.09-.226l.808-2.21h.584l-1.527,3.835a4.181,4.181,0,0,1-.225.45c-.09.136-.134.226-.224.271a.391.391,0,0,1-.27.136.481.481,0,0,1-.314.09Zm4.581,0a1.915,1.915,0,0,1-1.078-.27.815.815,0,0,1-.4-.723h.494a.577.577,0,0,0,.314.407,1.5,1.5,0,0,0,.674.135,1.279,1.279,0,0,0,.764-.226.79.79,0,0,0,.269-.676v-.5a1.3,1.3,0,0,1-.449.407,1.19,1.19,0,0,1-.629.135A1.428,1.428,0,0,1,68.531,28a2,2,0,0,1-.494-.361,2.14,2.14,0,0,1-.315-.542,1.876,1.876,0,0,1-.09-.722,1.726,1.726,0,0,1,.135-.722,1.561,1.561,0,0,1,.315-.541,2.016,2.016,0,0,1,.493-.361,1.244,1.244,0,0,1,.584-.135,1.192,1.192,0,0,1,.63.135,1.283,1.283,0,0,1,.448.406V24.7h.539v3.383a2,2,0,0,1-.09.586,1.66,1.66,0,0,1-.314.452,1.74,1.74,0,0,1-.494.27c-.225,0-.45.045-.674.045Zm-.045-1.76a1.357,1.357,0,0,0,.494-.09.976.976,0,0,0,.315-.27,1.625,1.625,0,0,0,.18-.406,2.025,2.025,0,0,0,.045-.541,1.35,1.35,0,0,0-.27-.9,1.081,1.081,0,0,0-1.572.045A1.946,1.946,0,0,0,68.4,27.41a1.3,1.3,0,0,0,.763.27Zm4.132.678a1.86,1.86,0,0,1-.719-.136,1.228,1.228,0,0,1-.538-.406,1.476,1.476,0,0,1-.315-.587,2.009,2.009,0,0,1,0-1.443,1.294,1.294,0,0,1,.36-.587,1.222,1.222,0,0,1,.539-.406,1.86,1.86,0,0,1,1.392,0,1.1,1.1,0,0,1,.494.406,2.783,2.783,0,0,1,.314.632,2.243,2.243,0,0,1,.09.812h-2.74a1.63,1.63,0,0,0,.09.5,1.852,1.852,0,0,0,.225.406.692.692,0,0,0,.359.27,1.582,1.582,0,0,0,.494.09.872.872,0,0,0,.629-.18,1.149,1.149,0,0,0,.359-.541h.539a1.533,1.533,0,0,1-.54.9A1.846,1.846,0,0,1,73.291,28.358Zm0-3.294a1.325,1.325,0,0,0-.449.09.8.8,0,0,0-.314.226.986.986,0,0,0-.225.36,1.343,1.343,0,0,0-.09.452h2.111a1.329,1.329,0,0,0-.314-.858A.948.948,0,0,0,73.291,25.064Zm3.009.09a1.407,1.407,0,0,1,.494-.406,1.5,1.5,0,0,1,.674-.135,1.087,1.087,0,0,1,1.167,1.173v2.481H78.1V25.831a.747.747,0,0,0-.224-.542.829.829,0,0,0-.584-.18,1.314,1.314,0,0,0-.4.09.72.72,0,0,0-.314.18,1.82,1.82,0,0,0-.224.316,1.32,1.32,0,0,0-.09.406v2.166h-.54V24.7h.54v.451H76.3Z" fill="#12407d"/>
    </g>
  </g>
</svg>
