<svg xmlns="http://www.w3.org/2000/svg" width="96.611" height="23.721" viewBox="0 0 96.611 23.721">
  <path id="veolia-bw" d="M12.307,18.645c1.46-1.626,2.915-3.85,2.54-5.674a2.676,2.676,0,0,0-2.6-2.44,2.669,2.669,0,0,0-2.6,2.44c-.385,1.823,1.08,4.048,2.54,5.674a8.391,8.391,0,1,1,.118,0ZM.385,11.858A11.86,11.86,0,1,0,12.248,0,11.863,11.863,0,0,0,.385,11.858ZM60.6,8.413c-2.38,0-3.4,1.273-3.4,4.194-.024,2.925,1.058,4.252,3.42,4.252,2.318,0,3.365-1.327,3.365-4.268,0-2.867-1.066-4.178-3.385-4.178Zm-4.386,9.328c-1.36-.957-2.107-2.754-2.107-5.038,0-4.31,2.107-6.386,6.47-6.386s6.473,2.1,6.473,6.477c0,4.049-2.145,6.162-6.276,6.162a8.144,8.144,0,0,1-4.56-1.215Zm16.37-1.727c-.448-.39-.56-.658-.619-1.867V7.927a1.191,1.191,0,0,0-1.2-1.156H69.183v6.665c0,2.08.209,3.006.916,3.824.808.941,2,1.369,3.884,1.369H77.72V16.511H75.335C73.615,16.511,73.055,16.4,72.584,16.014Zm15.96-2.241,1.77-4.161,1.77,4.16h-3.54Zm1.423-7.007A1.821,1.821,0,0,0,88.351,7.8l-4.7,10.82h1.9A1.8,1.8,0,0,0,87.2,17.581l.739-1.712h4.741l.75,1.728a1.8,1.8,0,0,0,1.642,1.027H97L91.845,6.766H89.967ZM79.459,7.911V18.624h1.55a1.193,1.193,0,0,0,1.205-1.14V6.767H80.657a1.2,1.2,0,0,0-1.2,1.145Zm-42-.091-2.91,7.3L31.439,7.83A1.8,1.8,0,0,0,29.8,6.782H27.9L33.15,18.64h1.514a1.8,1.8,0,0,0,1.594-1L41.169,6.782H39.082A1.822,1.822,0,0,0,37.456,7.82ZM48.48,8.884H52.1V6.766H47.394a7.852,7.852,0,0,0-1.824.171,3.694,3.694,0,0,0-.955.353,4.315,4.315,0,0,0-1.078.765,5.06,5.06,0,0,0-1.055,1.573,6.514,6.514,0,0,0-.61,2.968v.2a6.514,6.514,0,0,0,.61,2.968,4.834,4.834,0,0,0,1.124,1.632,4.068,4.068,0,0,0,1.341.866,3.224,3.224,0,0,0,.565.182,7.922,7.922,0,0,0,1.882.182H52.1V16.511s-3.6,0-3.624,0c-1.724-.021-2.67-.37-3.13-1.316A3.913,3.913,0,0,1,45,13.82v-.1h6.8V11.676H45.006v-.107A3.935,3.935,0,0,1,45.35,10.2c.46-.941,1.407-1.3,3.13-1.316Z" transform="translate(-0.385)" fill="#12407d" opacity="0.5"/>
</svg>
