<svg xmlns="http://www.w3.org/2000/svg" width="74.427" height="28.015" viewBox="0 0 74.427 28.015">
  <g id="iwc" transform="translate(0 -0.349)" opacity="0.5">
    <path id="Path_695" data-name="Path 695" d="M15.859.455V.682a3.268,3.268,0,0,1,1.488,1.194v13.7a2.753,2.753,0,0,1-1.087.91v.34H20.9v-.34a2.146,2.146,0,0,1-.973-.91V1.819A2.4,2.4,0,0,1,21.3.625V.4h-5.44V.455Zm12.423,0h-5.21V.682a2.278,2.278,0,0,1,1.317,1.194l5.554,14.608c.057.17.515.17.572,0l3.32-9.208c.115-.284.287-.284.344,0l3.55,9.208c.057.17.515.17.573,0l5.21-14.608A2.382,2.382,0,0,1,44.6.682V.455H41.107V.682c.8.284,1.26.682,1.088,1.194l-3.321,9.663c-.114.284-.286.284-.343,0L35.21,2.558a1.317,1.317,0,0,1,.916-1.82V.513h-5.21V.74c.687.114,1.2.739,1.66,1.819l.745,1.819a.839.839,0,0,1,0,.739L31.088,11.54c-.057.227-.286.17-.344,0L27.595,2.559c-.343-1.023-.114-1.705.745-1.82V.456h-.058Zm30.916,5h.172l-.172-5h-.171c-.745,1.42-1.89.284-4.008,0C49.866-.285,44.943,2.9,44.943,8.981c0,5.286,4.236,8.526,9.1,8.3,2.29-.114,4.122-1.535,5.553-3.695h-.172a7.255,7.255,0,0,1-5.381,2.558c-3.779,0-6.183-2.842-6.126-7.162.057-5.116,2-7.787,6.126-7.73,2.862,0,4.294,1.7,5.152,4.206Z" fill="#12407d"/>
    <path id="Path_696" data-name="Path 696" d="M4.294,26.943a.69.69,0,0,1-.172.512.89.89,0,0,1-.458.34,1.157,1.157,0,0,1-.63.171,2.579,2.579,0,0,1-.63.057H1.947a1.682,1.682,0,0,1-.516-.114l-.515-.17a3.426,3.426,0,0,1-.458-.227L.573,27.4a1.429,1.429,0,0,0,.4.227c.172.057.287.114.458.17s.287.058.458.114c.172,0,.287.057.4.057h.4c.173,0,.287-.057.459-.057.114-.056.286-.113.4-.17a1.237,1.237,0,0,0,.287-.227c.057-.057.057-.114.114-.17a.339.339,0,0,0,.058-.228.82.82,0,0,0-.115-.4c-.057-.114-.172-.17-.229-.284a1.253,1.253,0,0,1-.286-.17c-.115-.058-.23-.058-.286-.115-.058,0-.115-.056-.172-.056s-.115-.057-.172-.057l-.973-.228-.515-.17a2.391,2.391,0,0,1-.4-.228c-.115-.113-.23-.17-.286-.34a1.065,1.065,0,0,1-.115-.455A.69.69,0,0,1,.63,24.1a.89.89,0,0,1,.458-.341,1.156,1.156,0,0,1,.63-.17,2.579,2.579,0,0,1,.63-.057,5.008,5.008,0,0,1,.915.113,2.306,2.306,0,0,1,.916.455l-.114.114a1.473,1.473,0,0,0-.4-.228c-.173-.056-.287-.113-.459-.17s-.286-.057-.458-.114c-.172,0-.286-.057-.4-.057h-.4c-.115,0-.287.057-.4.057-.115.057-.286.114-.4.17a1.542,1.542,0,0,0-.343.285c-.058.057-.058.114-.115.227a.341.341,0,0,0-.057.228.823.823,0,0,0,.114.4c.058.113.172.17.287.284l.343.17a.823.823,0,0,0,.344.114c.057,0,.114.057.171.057s.115.057.172.057l.8.227.515.17a2.449,2.449,0,0,1,.4.228,1.513,1.513,0,0,1,.287.34c.172-.056.229.115.229.285Z" fill="#12407d"/>
    <path id="Path_697" data-name="Path 697" d="M2.4,28.364a1.6,1.6,0,0,1-.516-.057,1.681,1.681,0,0,1-.515-.113l-.515-.17a2.341,2.341,0,0,1-.515-.285L0,27.569.63,27l.229.17c.114.057.229.171.343.228s.287.114.4.17.286.057.4.114a1.639,1.639,0,0,0,.745,0c.115,0,.286-.057.4-.057.115-.057.23-.057.344-.113.058-.057.172-.114.23-.17a.2.2,0,0,0,.057-.115v-.113a.339.339,0,0,0-.058-.228l-.171-.17a.435.435,0,0,0-.23-.114c-.114-.057-.171-.057-.286-.114-.057,0-.114-.056-.171-.056l-1.145-.285q-.29-.073-.573-.17a2.316,2.316,0,0,1-.515-.284,1.067,1.067,0,0,1-.344-.4.933.933,0,0,1-.114-.569A1.137,1.137,0,0,1,.4,23.987a2.256,2.256,0,0,1,.572-.454A3.314,3.314,0,0,1,1.66,23.3a4.384,4.384,0,0,1,1.718.057,4.335,4.335,0,0,1,1.03.512L4.7,24.1l-.573.568-.229-.17c-.114-.057-.229-.17-.343-.227a2.759,2.759,0,0,0-.4-.17c-.172-.171-.286-.228-.4-.228a1.4,1.4,0,0,0-.688,0c-.114,0-.229.057-.4.057-.115.056-.23.056-.344.113a.79.79,0,0,0-.23.17.2.2,0,0,0-.056.114v.114c0,.057,0,.17.057.17l.172.171c.114.057.171.114.286.17s.229.058.286.114c.057,0,.115.057.172.057s.114.057.172.057l.8.227c.172.057.4.114.573.17a2.387,2.387,0,0,1,.515.285,1.061,1.061,0,0,1,.343.4,1.085,1.085,0,0,1,.172.568,1.193,1.193,0,0,1-.286.74,2.261,2.261,0,0,1-.573.454,3.3,3.3,0,0,1-.687.228,1.143,1.143,0,0,1-.63.113Zm8.53-4.377-.114.114a2.06,2.06,0,0,0-.687-.455,1.84,1.84,0,0,0-.8-.17,2.33,2.33,0,0,0-.859.17,2.06,2.06,0,0,0-.687.455,4.844,4.844,0,0,0-.458.682,2.2,2.2,0,0,0,0,1.7,2.063,2.063,0,0,0,.458.683,1.821,1.821,0,0,0,.687.454,2.311,2.311,0,0,0,.86.17,1.829,1.829,0,0,0,.8-.17,2.377,2.377,0,0,0,.688-.454l.114.113a2.02,2.02,0,0,1-.744.455,2.388,2.388,0,0,1-1.775,0,1.744,1.744,0,0,1-.744-.512,2.163,2.163,0,0,1-.516-.739,2.5,2.5,0,0,1,0-1.819,2.167,2.167,0,0,1,.516-.738,2.177,2.177,0,0,1,.744-.512,2.6,2.6,0,0,1,.916-.17,1.919,1.919,0,0,1,.859.17c.286.227.515.4.744.568Z" fill="#12407d"/>
    <path id="Path_698" data-name="Path 698" d="M9.332,28.364a2.348,2.348,0,0,1-1.088-.227,2.268,2.268,0,0,1-.859-.569,2.236,2.236,0,0,1-.572-.852,3.284,3.284,0,0,1-.229-1.023,2.069,2.069,0,0,1,.229-1.024,2.244,2.244,0,0,1,.572-.852,2.272,2.272,0,0,1,.86-.569,2.6,2.6,0,0,1,2.06,0,2.41,2.41,0,0,1,.8.512l.229.227-.573.569-.229-.228a2.056,2.056,0,0,0-.572-.4,2.066,2.066,0,0,0-1.431,0,1.457,1.457,0,0,0-.573.4,2.311,2.311,0,0,0-.4.626,1.564,1.564,0,0,0-.173.739,1.751,1.751,0,0,0,.172.739,2.389,2.389,0,0,0,.4.625,2.081,2.081,0,0,0,.573.4,1.79,1.79,0,0,0,1.43,0,2.051,2.051,0,0,0,.573-.4l.23-.228.63.569-.23.227a2.159,2.159,0,0,1-.859.512,2.039,2.039,0,0,1-.973.227Zm7.786-.4h-.171v-2.16H13.74v2.16h-.171V23.42h.171v2.217H17V23.42h.172v4.547Z" fill="#12407d"/>
    <path id="Path_699" data-name="Path 699" d="M17.462,28.307h-.8v-2.16H14.027v2.16h-.8V23.135h.8v2.217H16.66V23.135h.8Zm6.527-.341h-.172l-.63-1.364H20.5l-.63,1.364h-.172l2.06-4.547h.172Zm-.916-1.534-1.26-2.786-1.26,2.786Z" fill="#12407d"/>
    <path id="Path_700" data-name="Path 700" d="M24.447,28.307h-.916l-.63-1.364h-2.29l-.573,1.364h-.916l2.405-5.172H22.1Zm-3.436-2.16h1.546l-.744-1.7Zm8.817-2.557H26.622v1.989h2.863v.17H26.622v2.217H26.45V23.42h3.378v.17Z" fill="#12407d"/>
    <path id="Path_701" data-name="Path 701" d="M26.908,28.307h-.8V23.135h4.065v.8H26.908v1.364h2.92v.8h-2.92Zm8.76-4.717H32.462v1.989h2.862v.17H32.462v2.217H32.29V23.42h3.378v.17Z" fill="#12407d"/>
    <path id="Path_702" data-name="Path 702" d="M32.805,28.307h-.858V23.135h4.064v.8H32.805v1.364h2.863v.8H32.805Z" fill="#12407d"/>
    <g id="Group_111" data-name="Group 111">
      <path id="Path_703" data-name="Path 703" d="M41.737,27.966h-.172v-2.16H38.3v2.16H38.13V23.42H38.3v2.217h3.263V23.42h.172Z" fill="#12407d"/>
      <path id="Path_704" data-name="Path 704" d="M42.08,28.307h-.859v-2.16H38.645v2.16h-.8V23.135h.8v2.217h2.576V23.135h.86Z" fill="#12407d"/>
    </g>
    <g id="Group_112" data-name="Group 112">
      <path id="Path_705" data-name="Path 705" d="M48.55,27.966h-.172l-.63-1.364h-2.69l-.63,1.364h-.172l2.06-4.547h.173l2.06,4.547Zm-.86-1.534-1.259-2.786-1.26,2.786h2.52Z" fill="#12407d"/>
      <path id="Path_706" data-name="Path 706" d="M49.065,28.307h-.916l-.63-1.364h-2.29l-.63,1.364h-.916l2.4-5.172h.572l2.4,5.172Zm-3.435-2.16h1.546l-.8-1.7-.744,1.7Z" fill="#12407d"/>
    </g>
    <g id="Group_113" data-name="Group 113">
      <path id="Path_707" data-name="Path 707" d="M54.962,23.476v2.671a1.562,1.562,0,0,1-.172.74,2.361,2.361,0,0,1-.4.625,1.49,1.49,0,0,1-.63.4,1.776,1.776,0,0,1-.745.171,1.6,1.6,0,0,1-.744-.17,2.393,2.393,0,0,1-.63-.4,1.459,1.459,0,0,1-.4-.626,1.74,1.74,0,0,1-.172-.739V23.476h.171v2.671a2.839,2.839,0,0,0,.115.682,2.045,2.045,0,0,0,.4.569,2.081,2.081,0,0,0,.573.4,1.471,1.471,0,0,0,.687.113A2.875,2.875,0,0,0,53.7,27.8a1.312,1.312,0,0,0,.573-.4,2.01,2.01,0,0,0,.4-.569,1.425,1.425,0,0,0,.115-.682V23.42h.172v.057Z" fill="#12407d"/>
      <path id="Path_708" data-name="Path 708" d="M53.015,28.364a2.4,2.4,0,0,1-.916-.17,3.284,3.284,0,0,1-.744-.455A2,2,0,0,1,50.9,27a2.267,2.267,0,0,1-.172-.853V23.135h.8v3.012a2.026,2.026,0,0,0,.114.569,1.256,1.256,0,0,0,.286.455,1.269,1.269,0,0,0,.458.284,1.35,1.35,0,0,0,1.146,0,1.194,1.194,0,0,0,.744-.739,1.675,1.675,0,0,0,.114-.569V23.135h.8v3.012a2.054,2.054,0,0,1-.172.853,3.19,3.19,0,0,1-.458.739,3.48,3.48,0,0,1-.744.512,3.4,3.4,0,0,1-.8.113Z" fill="#12407d"/>
    </g>
    <g id="Group_114" data-name="Group 114">
      <path id="Path_709" data-name="Path 709" d="M61.489,26.943a.694.694,0,0,1-.172.512.89.89,0,0,1-.458.34,1.159,1.159,0,0,1-.63.171,2.579,2.579,0,0,1-.63.057h-.458a1.676,1.676,0,0,1-.515-.114l-.515-.17a3.367,3.367,0,0,1-.458-.227l.114-.114a1.443,1.443,0,0,0,.4.227c.173.057.287.114.459.17s.286.058.458.114a1.121,1.121,0,0,0,.4.057h.4c.172,0,.287-.057.459-.057.114-.056.286-.113.4-.17a1.236,1.236,0,0,0,.287-.227c.057-.057.057-.114.114-.17a.344.344,0,0,0,.057-.228.82.82,0,0,0-.114-.4c-.057-.114-.172-.17-.23-.284a1.253,1.253,0,0,1-.285-.17c-.115-.058-.23-.058-.287-.115-.057,0-.114-.056-.171-.056s-.115-.057-.172-.057l-.974-.228-.515-.17a2.378,2.378,0,0,1-.4-.228c-.115-.113-.23-.17-.287-.34a1.065,1.065,0,0,1-.114-.455.694.694,0,0,1,.171-.512.89.89,0,0,1,.458-.341,1.159,1.159,0,0,1,.63-.17,2.583,2.583,0,0,1,.63-.057,5.03,5.03,0,0,1,.916.113,2.312,2.312,0,0,1,.916.455l-.114.114a1.478,1.478,0,0,0-.4-.228c-.172-.056-.286-.113-.458-.17s-.286-.057-.458-.114c-.172,0-.287-.057-.4-.057h-.4c-.115,0-.287.057-.4.057-.114.057-.286.114-.4.17a1.523,1.523,0,0,0-.344.285c-.057.057-.057.114-.114.227a.337.337,0,0,0-.058.228.823.823,0,0,0,.115.4c.057.113.172.17.286.284l.344.17a.814.814,0,0,0,.343.114c.057,0,.115.057.172.057s.114.057.172.057l.8.227.516.17a2.492,2.492,0,0,1,.4.228,1.513,1.513,0,0,1,.287.34c.171-.056.229.115.229.285Z" fill="#12407d"/>
      <path id="Path_710" data-name="Path 710" d="M59.6,28.364a1.593,1.593,0,0,1-.516-.057,1.668,1.668,0,0,1-.515-.113l-.516-.17a2.387,2.387,0,0,1-.515-.285l-.343-.227.63-.569.228.17c.115.058.23.171.344.228s.286.114.4.17.287.057.4.114a1.639,1.639,0,0,0,.745,0c.114,0,.286-.057.4-.057.115-.056.23-.056.344-.113.057-.057.172-.114.229-.17a.2.2,0,0,0,.057-.114v-.114a.344.344,0,0,0-.057-.228l-.172-.17a.435.435,0,0,0-.229-.114c-.114-.057-.171-.057-.286-.113-.057,0-.114-.057-.172-.057l-1.145-.284c-.229-.057-.4-.114-.572-.171a2.322,2.322,0,0,1-.516-.284,1.067,1.067,0,0,1-.343-.4.926.926,0,0,1-.115-.569,1.133,1.133,0,0,1,.23-.738,2.2,2.2,0,0,1,.572-.455,3.3,3.3,0,0,1,.687-.228,4.4,4.4,0,0,1,1.718.057,4.335,4.335,0,0,1,1.03.512l.286.227-.572.569-.23-.17c-.114-.058-.228-.171-.343-.228a2.8,2.8,0,0,0-.4-.17.966.966,0,0,0-.4-.058,1.421,1.421,0,0,0-.687,0c-.115,0-.23.057-.4.057-.115.057-.229.057-.344.114a.79.79,0,0,0-.229.17.2.2,0,0,0-.057.114v.114c0,.057,0,.17.057.17l.172.17c.115.058.172.115.286.171s.23.057.287.114c.057,0,.114.057.171.057s.115.057.172.057l.8.227c.172.057.4.114.572.17a2.328,2.328,0,0,1,.516.285,1.07,1.07,0,0,1,.343.4,1.085,1.085,0,0,1,.172.568,1.2,1.2,0,0,1-.286.74,2.261,2.261,0,0,1-.573.454,3.233,3.233,0,0,1-.687.227H59.6Z" fill="#12407d"/>
    </g>
    <g id="Group_115" data-name="Group 115">
      <path id="Path_711" data-name="Path 711" d="M67.672,27.966H64.237V23.42h3.435v.17H64.408v1.99h2.92v.17h-2.92v2.1h3.264Z" fill="#12407d"/>
      <path id="Path_712" data-name="Path 712" d="M67.958,28.307H63.893V23.135h4.065v.8H64.695v1.364h2.92v.8h-2.92v1.42h3.263Z" fill="#12407d"/>
    </g>
    <g id="Group_116" data-name="Group 116">
      <path id="Path_713" data-name="Path 713" d="M74.084,27.966h-.172L70.477,23.7v4.263h-.172V23.42h.172l3.435,4.263V23.42h.172Z" fill="#12407d"/>
      <path id="Path_714" data-name="Path 714" d="M74.427,28.307H73.74l-2.977-3.694.058,3.694h-.86V23.135h.688l2.977,3.694V23.135h.8Z" fill="#12407d"/>
    </g>
  </g>
</svg>
