<svg xmlns="http://www.w3.org/2000/svg" width="100.216" height="100.495" viewBox="0 0 100.216 100.495">
  <g id="Iskur" transform="translate(-239.933 -347.402)">
    <path id="path2" d="M273.294,395.787l29.3,44.165,56.016-79.03-54.026,50.1Z" transform="translate(-22.04 -3.283)" fill="#19286d" fill-rule="evenodd"/>
    <path id="path4" d="M271.724,395.305l28.716,44.272,59.235-80.765L302.031,411Z" transform="translate(-21.656 -2.767)" fill="#009ee0" stroke="#009ee0" stroke-width="0.567" fill-rule="evenodd"/>
    <path id="Path_599" data-name="Path 599" d="M-13291.125,902.125l-9.5,4.25,6.75,13,9,9L-13277,934l13.5,4.25,14,1.5,12.5-3,10.5-5.5,7.5-6.125,7-9.25,3.875-8-6.5-4.25-2.5,2.75-7,8.75-3.875,4.25-9,5.75-4.5,3.25-12.25,1.125-9.75-.625-1.75-1.625-4.125-1.25-5.25-2.25-1.625-1.625-6.625-5.625-4.875-7.625Z" transform="translate(13544.041 -492.99)" fill="#fff" stroke="#fff" stroke-width="1"/>
    <path id="path6" d="M290.041,347.51a49.773,49.773,0,0,1,35.377,14.708l-9.545,8.278a37.493,37.493,0,1,0,7.542,10.1l8.207-10.792a49.975,49.975,0,1,1-41.582-22.291Zm-42.015,65.058a3.711,3.711,0,0,1,1.558-.51,2.666,2.666,0,0,1,1.024.148,2.393,2.393,0,0,1,.863.514,3.767,3.767,0,0,1,.823,1.2,3.335,3.335,0,0,1-1.531,4.581,2.779,2.779,0,0,1-4.227-1.376,3.516,3.516,0,0,1-.233-2.595A3.43,3.43,0,0,1,248.026,412.568Zm.619,1.255a2.462,2.462,0,0,0-1.215,1.276,1.918,1.918,0,0,0,.069,1.492,1.633,1.633,0,0,0,1.04.95,2.2,2.2,0,0,0,1.671-.329,2.453,2.453,0,0,0,1.217-1.254,1.908,1.908,0,0,0-.089-1.49,1.655,1.655,0,0,0-1.04-.972A2.174,2.174,0,0,0,248.645,413.823Zm3.4-1.55.917-.507.46,1.01-.917.507Zm.821,1.8.917-.507.461,1.01-.917.507Zm-4.363,6.376.926-.714,5.194.407-1.667-2.623.862-.665,2.613,4.112-.8.615-5.4-.424,2.029,3.194-.862.664Zm3.663,5.19,4.736-4.451,2.992,3.861-.8.752-2.173-2.8-1.051.988,2.021,2.608-.8.752-2.021-2.608-1.283,1.206,2.252,2.907-.8.752Zm4.061,4.853,4.077-5.106.947.917-3.382,4.236,2.344,2.27-.695.87Zm5.84,5.184,3.646-5.558,1.022.813-3.646,5.558Zm4.02-6.029.662-1.009.951.757-.662,1.009Zm-1.018,5.524,1.119.567a1.8,1.8,0,0,0-.071,1.106,1.448,1.448,0,0,0,.638.78,1.3,1.3,0,0,0,.916.263.764.764,0,0,0,.568-.4.686.686,0,0,0,.079-.43,1.167,1.167,0,0,0-.253-.506c-.1-.131-.342-.4-.727-.816a3.759,3.759,0,0,1-.907-1.374,1.953,1.953,0,0,1,.142-1.512,1.694,1.694,0,0,1,.682-.7,1.552,1.552,0,0,1,.988-.169,2.907,2.907,0,0,1,1.164.473,2.77,2.77,0,0,1,1.255,1.471,2.212,2.212,0,0,1-.165,1.662l-1.11-.66a1.3,1.3,0,0,0,.053-.849,1.627,1.627,0,0,0-1.423-.9.458.458,0,0,0-.368.259.572.572,0,0,0-.03.463,3.544,3.544,0,0,0,.783,1.039,6.477,6.477,0,0,1,.94,1.178,2.065,2.065,0,0,1,.273.984,2.2,2.2,0,0,1-.287,1.08,1.92,1.92,0,0,1-.763.788,1.634,1.634,0,0,1-1.076.192,3.327,3.327,0,0,1-1.284-.538,2.883,2.883,0,0,1-1.289-1.527,2.846,2.846,0,0,1,.149-1.927Zm5.816,5.8,1.938-5.283-1.71-.76.394-1.075,4.58,2.037-.394,1.074-1.7-.757-1.938,5.283Zm3.873,1.436,2.046-6.476,1.191.456-2.046,6.476Zm2.281-7.045.372-1.176,1.109.425-.371,1.176Zm.3,7.933,1.454-6.667,1.226.324-.573,2.626,2.384.631.573-2.626,1.226.324-1.454,6.668-1.226-.324.636-2.915L279.2,440.7l-.636,2.915Zm6.868-5.405,2.284.214a4.087,4.087,0,0,1,1.168.241,2.1,2.1,0,0,1,.884.718,3.121,3.121,0,0,1,.506,1.162,5.6,5.6,0,0,1,.077,1.633,4.884,4.884,0,0,1-.3,1.436,3.011,3.011,0,0,1-.756,1.145,2.111,2.111,0,0,1-.92.463,3.42,3.42,0,0,1-1.118.041l-2.352-.221Zm1.167,1.273-.35,4.523.931.087a3.074,3.074,0,0,0,.759.005,1.086,1.086,0,0,0,.526-.237,1.45,1.45,0,0,0,.377-.628,4.847,4.847,0,0,0,.224-1.239,4.477,4.477,0,0,0-.033-1.227,1.632,1.632,0,0,0-.3-.695,1.18,1.18,0,0,0-.553-.375,5.183,5.183,0,0,0-1.019-.161Zm10.453,5.7-1.355.1-.631-1.518-2.492.184-.421,1.6-1.33.1,1.995-7.02,1.329-.1Zm-2.465-2.544-1.018-2.468-.684,2.594Zm3.356,2.495-1.044-6.76,1.862-.349,1.812,4.4.375-4.814,1.866-.349,1.044,6.76-1.149.215-.826-5.321-.388,5.548-1.194.224-2.026-5.1.818,5.322Zm7.143-8.883,2.322-.989a6.814,6.814,0,0,1,1.051-.375,1.5,1.5,0,0,1,.7.005,1.558,1.558,0,0,1,1.074,1.015,1.743,1.743,0,0,1,.069.915,1.659,1.659,0,0,1-.4.815,1.521,1.521,0,0,1,1.018.236,1.638,1.638,0,0,1,.623.845,2.229,2.229,0,0,1,.115.929,1.964,1.964,0,0,1-.272.876,1.858,1.858,0,0,1-.68.639q-.28.158-1.4.645l-1.978.842Zm1.549.562.517,1.474.768-.327q.683-.291.842-.384a.872.872,0,0,0,.393-.429.787.787,0,0,0,0-.57.735.735,0,0,0-.317-.417.656.656,0,0,0-.519-.036q-.182.052-1.008.4Zm.89,2.537.6,1.715,1.087-.463a5.6,5.6,0,0,0,.791-.381.847.847,0,0,0,.336-.437.931.931,0,0,0-.026-.615.886.886,0,0,0-.3-.436.713.713,0,0,0-.469-.137,3.963,3.963,0,0,0-1.073.351Zm2.773-5.34,1.1-.685,1.665,3.232a7.957,7.957,0,0,0,.554.971.989.989,0,0,0,.633.382,1.222,1.222,0,0,0,.83-.225,1.316,1.316,0,0,0,.587-.644,1.038,1.038,0,0,0,.016-.691,8.133,8.133,0,0,0-.474-1.043l-1.7-3.3,1.1-.685L315,434.132a9.675,9.675,0,0,1,.694,1.574,2.127,2.127,0,0,1,.06.953,2.167,2.167,0,0,1-.384.882,4.1,4.1,0,0,1-2.219,1.367,1.765,1.765,0,0,1-.9-.119,1.711,1.711,0,0,1-.646-.471,8.381,8.381,0,0,1-.887-1.448Zm.678-1.139-.507-.983.893-.558.506.983Zm1.592-.995-.507-.983.893-.558.506.983Zm6.453,4.588-3.823-5.412,2.09-1.791a4.477,4.477,0,0,1,1.248-.835,1.3,1.3,0,0,1,.938.028,1.821,1.821,0,0,1,.818.668,1.958,1.958,0,0,1,.387,1.284,2.258,2.258,0,0,1-.616,1.33,2.613,2.613,0,0,1,.849,0,6.564,6.564,0,0,1,1.184.4l1.345.542-1.186,1.017-1.546-.572a7.989,7.989,0,0,0-1.086-.344.885.885,0,0,0-.457.032,2.1,2.1,0,0,0-.545.37l-.2.173,1.6,2.26Zm-1.21-3.974.734-.629a5.022,5.022,0,0,0,.844-.83.8.8,0,0,0,.116-.467.945.945,0,0,0-.187-.493.754.754,0,0,0-.445-.328.7.7,0,0,0-.522.108q-.135.085-.737.6l-.775.664Zm3.99-2.412a4.4,4.4,0,0,1-.955-1.448,3.493,3.493,0,0,1-.214-1.113,2.952,2.952,0,0,1,.152-1.068,3.837,3.837,0,0,1,.754-1.254,2.821,2.821,0,0,1,2.145-1.1,3.158,3.158,0,0,1,2.288,1.161,3.744,3.744,0,0,1,1.135,2.456,3.363,3.363,0,0,1-.905,2.392,2.823,2.823,0,0,1-2.145,1.105A3.1,3.1,0,0,1,320.58,429.753Zm.868-1.06a2.266,2.266,0,0,0,1.5.838,1.527,1.527,0,0,0,1.255-.568,1.851,1.851,0,0,0,.467-1.4,2.708,2.708,0,0,0-.838-1.626,2.266,2.266,0,0,0-1.479-.847,1.522,1.522,0,0,0-1.246.589,1.869,1.869,0,0,0-.486,1.4,2.677,2.677,0,0,0,.83,1.608Zm4.694-3.272.617-1.175a1.19,1.19,0,0,0,1.758-.446,1.635,1.635,0,0,0,.324-.98.871.871,0,0,0-.308-.66.539.539,0,0,0-.382-.127.98.98,0,0,0-.48.231c-.128.1-.4.338-.806.721a3.333,3.333,0,0,1-1.327.866,1.51,1.51,0,0,1-1.354-.3,1.776,1.776,0,0,1-.569-.813,2.036,2.036,0,0,1-.061-1.1,3.552,3.552,0,0,1,.536-1.232,2.634,2.634,0,0,1,1.447-1.239,1.707,1.707,0,0,1,1.487.336l-.7,1.156a.99.99,0,0,0-.763-.138,1.276,1.276,0,0,0-.633.57,1.65,1.65,0,0,0-.313.906.522.522,0,0,0,.2.427.441.441,0,0,0,.416.076,3.241,3.241,0,0,0,1.013-.761,6.061,6.061,0,0,1,1.153-.922,1.614,1.614,0,0,1,.915-.208,1.762,1.762,0,0,1,.949.415,2,2,0,0,1,.641.91,2.147,2.147,0,0,1,.073,1.2,4.054,4.054,0,0,1-.606,1.358,2.738,2.738,0,0,1-1.5,1.271A2.182,2.182,0,0,1,326.141,425.421Zm-.012-7.634.634-1.2,2.916,1.87a6.915,6.915,0,0,0,.922.532.927.927,0,0,0,.722-.021,1.383,1.383,0,0,0,.615-.655,1.479,1.479,0,0,0,.212-.881.977.977,0,0,0-.3-.605,7.046,7.046,0,0,0-.887-.639l-2.979-1.909.634-1.2,2.829,1.814a8.421,8.421,0,0,1,1.319.975,1.96,1.96,0,0,1,.487.791,2.269,2.269,0,0,1,.072.975,4.719,4.719,0,0,1-1.293,2.411,1.844,1.844,0,0,1-.828.394,1.556,1.556,0,0,1-.774-.049,7.262,7.262,0,0,1-1.428-.759Z" transform="translate(0)" fill="#19286d" stroke="#1b1918" stroke-width="0.216" fill-rule="evenodd"/>
    <path id="path8" d="M299.1,354.487l-.708,1.7a7.074,7.074,0,0,0-5.558.956s-.637.991,1.2.885c0,0,4.461-1.629,5.93-.443a2.476,2.476,0,0,1,.389,3.08s-2.815,3.558-8.709,1.947l.779-1.682a7.413,7.413,0,0,0,5.682-.531s1.208-1.274-.089-1.54-4.6,1.558-6.372.673a2.191,2.191,0,0,1-.088-3.576A9.357,9.357,0,0,1,299.1,354.487Z" transform="translate(-17.537 -1.65)" fill="#fff" fill-rule="evenodd"/>
    <path id="path10" d="M298.082,366.107l1.911-.726.513,1.2-1.823.814Z" transform="translate(-19.704 -4.374)" fill="#fff" fill-rule="evenodd"/>
    <path id="path12" d="M286.443,360.9l-1.77,1.009,2.893,5.425,1.761-1.071Z" transform="translate(-15.239 -3.278)" fill="#fff" fill-rule="evenodd"/>
    <path id="path14" d="M285.851,359.814l-1.788,1.044-.668-1.381,1.743-.938Z" transform="translate(-14.719 -2.7)" fill="#fff" fill-rule="evenodd"/>
    <path id="path16" d="M308.744,352.131l-2,.089.3,8.142,2.089-.036-.106-2.62,1.823-1.469,3.841,3.646,2.779-.159-5.08-4.62,4.071-3.363-2.9.142-4.655,3.894Z" transform="translate(-23.153 -1.036)" fill="#fff" fill-rule="evenodd"/>
    <path id="path18" d="M325.655,352.447l-2.018-.5-.956,4.85s-.885,2.761,3.576,4.107,5.735-1.735,5.735-1.735l1.1-5.275-2.018-.531-.885,4.284s.035,2.584-3.292,1.664c0,0-2.478-.283-2.124-2.478s.885-4.39.885-4.39Z" transform="translate(-28.64 -1.087)" fill="#fff" fill-rule="evenodd"/>
    <path id="path20" d="M341.011,356.312l-3.54,7.151,1.805,1.026,1.274-2.549,3.08,1.522.425,3.4,2.124.92-.319-3.292a2.754,2.754,0,0,0,2.69-3.646s.6-.956-7.54-4.531Zm1.026,2.407-.708,1.7,3.469,1.77s1.168.5,1.735-.354-.85-1.416-.85-1.416Z" transform="translate(-33.863 -2.154)" fill="#fff" fill-rule="evenodd"/>
  </g>
</svg>
