<svg xmlns="http://www.w3.org/2000/svg" width="55.459" height="50.213" viewBox="0 0 55.459 50.213">
  <g id="maif-bw" transform="translate(-0.5)" opacity="0.5">
    <path id="Path_716" data-name="Path 716" d="M1,41.154H55.459v8.559H1Z" fill="none" stroke="#12407d" stroke-width="1" fill-rule="evenodd"/>
    <g id="Group_117" data-name="Group 117">
      <path id="Path_717" data-name="Path 717" d="M5.978,47.354a.456.456,0,0,1-.333-.114.431.431,0,0,1-.123-.358,1.35,1.35,0,0,1-.508.358,1.962,1.962,0,0,1-.631.114,1.824,1.824,0,0,1-.42-.049,1.315,1.315,0,0,1-.351-.146.665.665,0,0,1-.228-.26.924.924,0,0,1-.088-.391.953.953,0,0,1,.088-.423.608.608,0,0,1,.245-.26,2.206,2.206,0,0,1,.35-.164,3.394,3.394,0,0,1,.4-.08,3.591,3.591,0,0,1,.42-.066,1.917,1.917,0,0,0,.351-.065.828.828,0,0,0,.245-.114.27.27,0,0,0,.088-.212.389.389,0,0,0-.07-.26.487.487,0,0,0-.175-.146.525.525,0,0,0-.228-.065,1.368,1.368,0,0,0-.263-.017,1.132,1.132,0,0,0-.56.114.494.494,0,0,0-.246.456H3.4a.954.954,0,0,1,.123-.472.87.87,0,0,1,.3-.31,1.518,1.518,0,0,1,.438-.178,2.61,2.61,0,0,1,.526-.05,4.033,4.033,0,0,1,.438.033,1.377,1.377,0,0,1,.386.114.708.708,0,0,1,.28.26.774.774,0,0,1,.105.424v1.562a1.045,1.045,0,0,0,.018.26.138.138,0,0,0,.14.082A.525.525,0,0,0,6.31,46.9v.39a.651.651,0,0,1-.333.066Zm-.754-1.53c-.105.016-.228.033-.35.049l-.368.049A1.964,1.964,0,0,0,4.173,46a.63.63,0,0,0-.246.163.493.493,0,0,0-.035.5.516.516,0,0,0,.14.13.61.61,0,0,0,.21.082,1.182,1.182,0,0,0,.246.016,1.27,1.27,0,0,0,.456-.065,1.347,1.347,0,0,0,.315-.163.542.542,0,0,0,.176-.227.6.6,0,0,0,.052-.228v-.5a.477.477,0,0,1-.263.114Zm2.244.781a.645.645,0,0,0,.193.18.812.812,0,0,0,.28.1,2.1,2.1,0,0,0,.315.033,1.363,1.363,0,0,0,.263-.017,1.55,1.55,0,0,0,.263-.065.779.779,0,0,0,.193-.13.3.3,0,0,0,.07-.228.322.322,0,0,0-.158-.293,1.645,1.645,0,0,0-.385-.163,4.925,4.925,0,0,0-.508-.113,2.281,2.281,0,0,1-.509-.147A.915.915,0,0,1,7.1,45.5a.633.633,0,0,1-.158-.456.73.73,0,0,1,.105-.39.83.83,0,0,1,.28-.26,1.51,1.51,0,0,1,.386-.147,1.865,1.865,0,0,1,.438-.05,2.413,2.413,0,0,1,.509.05,1.551,1.551,0,0,1,.42.146.673.673,0,0,1,.28.293,1.172,1.172,0,0,1,.123.456H8.94a.382.382,0,0,0-.088-.244.8.8,0,0,0-.175-.163,1.066,1.066,0,0,0-.245-.081,1.452,1.452,0,0,0-.263-.033,1.272,1.272,0,0,0-.246.016A.917.917,0,0,0,7.7,44.7a.379.379,0,0,0-.158.114.333.333,0,0,0-.07.2.256.256,0,0,0,.1.211,1.505,1.505,0,0,0,.245.147c.105.032.21.065.333.1s.246.049.386.082.263.065.386.1a1.056,1.056,0,0,1,.333.163.844.844,0,0,1,.245.244.73.73,0,0,1,.088.358.746.746,0,0,1-.123.456,1.3,1.3,0,0,1-.316.293,1.353,1.353,0,0,1-.455.162,2.51,2.51,0,0,1-.491.05,2.846,2.846,0,0,1-.526-.05,1.157,1.157,0,0,1-.438-.179.87.87,0,0,1-.3-.309,1,1,0,0,1-.123-.472h.544a1.392,1.392,0,0,0,.105.244Zm3.348,0a.654.654,0,0,0,.192.18.812.812,0,0,0,.28.1,2.131,2.131,0,0,0,.316.033,1.363,1.363,0,0,0,.263-.017,1.485,1.485,0,0,0,.263-.065.779.779,0,0,0,.193-.13.3.3,0,0,0,.07-.228.322.322,0,0,0-.158-.293,1.645,1.645,0,0,0-.385-.163,4.886,4.886,0,0,0-.509-.113,2.281,2.281,0,0,1-.508-.147.918.918,0,0,1-.386-.26.636.636,0,0,1-.157-.456.73.73,0,0,1,.1-.39.83.83,0,0,1,.28-.26,1.51,1.51,0,0,1,.386-.147,1.865,1.865,0,0,1,.438-.05,2.4,2.4,0,0,1,.508.05,1.558,1.558,0,0,1,.421.146.673.673,0,0,1,.28.293,1.172,1.172,0,0,1,.123.456h-.543A.382.382,0,0,0,12.2,44.9a.8.8,0,0,0-.175-.163,1.066,1.066,0,0,0-.245-.081,1.452,1.452,0,0,0-.263-.033,1.272,1.272,0,0,0-.246.016.917.917,0,0,0-.228.065.379.379,0,0,0-.157.114.333.333,0,0,0-.07.2.256.256,0,0,0,.105.211,1.505,1.505,0,0,0,.245.147c.1.032.21.065.333.1s.246.049.386.082.263.065.385.1a1.035,1.035,0,0,1,.333.163.844.844,0,0,1,.246.244.73.73,0,0,1,.087.358.753.753,0,0,1-.122.456,1.3,1.3,0,0,1-.316.293,1.351,1.351,0,0,1-.456.162,2.51,2.51,0,0,1-.49.05,2.839,2.839,0,0,1-.526-.05,1.157,1.157,0,0,1-.438-.179.87.87,0,0,1-.3-.309,1,1,0,0,1-.123-.472h.543a1.4,1.4,0,0,0,.106.244Zm5.135.684V46.8h-.017a.932.932,0,0,1-.439.406,1.473,1.473,0,0,1-.63.13,1.834,1.834,0,0,1-.544-.08.749.749,0,0,1-.35-.229.842.842,0,0,1-.193-.341,1.733,1.733,0,0,1-.053-.456V44.245h.544v2.05a.524.524,0,0,0,.175.44.68.68,0,0,0,.49.162,1.129,1.129,0,0,0,.421-.065.763.763,0,0,0,.3-.195.615.615,0,0,0,.175-.31,1.252,1.252,0,0,0,.053-.374V44.245h.543v3.027h-.473v.016Zm2-3.027V44.9h.017a1.384,1.384,0,0,1,.473-.537,1.22,1.22,0,0,1,.719-.163v.52a1.717,1.717,0,0,0-.544.082.716.716,0,0,0-.368.244,1.07,1.07,0,0,0-.21.39,2.23,2.23,0,0,0-.07.521v1.351h-.543V44.278h.525v-.016Zm4.013,2.832a1.508,1.508,0,0,1-.929.26,1.759,1.759,0,0,1-.683-.114,1.67,1.67,0,0,1-.491-.325,1.645,1.645,0,0,1-.3-.505,1.97,1.97,0,0,1,0-1.269,1.4,1.4,0,0,1,.806-.83,1.51,1.51,0,0,1,.614-.114,1.31,1.31,0,0,1,1.174.586,1.922,1.922,0,0,1,.3,1.155H20.018a1.3,1.3,0,0,0,.052.374.913.913,0,0,0,.175.31.812.812,0,0,0,.316.211,1.247,1.247,0,0,0,.456.082.978.978,0,0,0,.56-.147.667.667,0,0,0,.281-.44h.526a.99.99,0,0,1-.42.766Zm-.14-1.953a1,1,0,0,0-.193-.277.884.884,0,0,0-.3-.179,1.074,1.074,0,0,0-.736,0,1.116,1.116,0,0,0-.28.18.809.809,0,0,0-.193.276,1,1,0,0,0-.088.325h1.876a.819.819,0,0,0-.088-.325Zm3.611,2.148V46.8h-.018a.932.932,0,0,1-.438.406,1.477,1.477,0,0,1-.631.13,1.822,1.822,0,0,1-.543-.08.749.749,0,0,1-.35-.229.842.842,0,0,1-.194-.341,1.733,1.733,0,0,1-.052-.456V44.245h.543v2.05a.527.527,0,0,0,.175.44.683.683,0,0,0,.491.162,1.124,1.124,0,0,0,.42-.065.763.763,0,0,0,.3-.195.615.615,0,0,0,.175-.31,1.285,1.285,0,0,0,.053-.374V44.245h.543v3.027h-.473v.016Zm1.98-3.027V44.9h.018a1.384,1.384,0,0,1,.473-.537,1.22,1.22,0,0,1,.719-.163v.52a1.717,1.717,0,0,0-.544.082.716.716,0,0,0-.368.244,1.07,1.07,0,0,0-.21.39,2.23,2.23,0,0,0-.07.521v1.351h-.543V44.278h.525v-.016Zm4.277,0v.44h.018a1.222,1.222,0,0,1,1.051-.521,1.147,1.147,0,0,1,.544.114.724.724,0,0,1,.35.39.954.954,0,0,1,.438-.374,1.182,1.182,0,0,1,.6-.13,1.827,1.827,0,0,1,.439.048.705.705,0,0,1,.333.163.747.747,0,0,1,.227.277.943.943,0,0,1,.088.407v2.213h-.543V45.3a1.189,1.189,0,0,0-.018-.26.767.767,0,0,0-.087-.211.423.423,0,0,0-.193-.147.908.908,0,0,0-.316-.049.88.88,0,0,0-.63.212.719.719,0,0,0-.229.57v1.887H33.2V45.32a1.3,1.3,0,0,0-.036-.277.489.489,0,0,0-.1-.211.423.423,0,0,0-.193-.147.746.746,0,0,0-.3-.049.973.973,0,0,0-.4.082.847.847,0,0,0-.263.211,1.383,1.383,0,0,0-.157.26.6.6,0,0,0-.053.228v1.888h-.543V44.278l.543-.016Zm5.1-.553v-.6h.543v.6Zm.543.553v3.027h-.543V44.262Zm1.6-1.155v4.182h-.543V43.107Zm1.052.6v-.6h.543v.6Zm.543.553v3.027h-.543V44.262Zm2.419,0v.44H42.3v1.887a.371.371,0,0,0,.018.147.158.158,0,0,0,.053.08.258.258,0,0,0,.122.033c.053,0,.123.017.21.017h.246v.44h-.4a1.951,1.951,0,0,1-.35-.033.545.545,0,0,1-.246-.1.415.415,0,0,1-.14-.195.888.888,0,0,1-.053-.342v-1.92h-.56v-.44h.56v-.911H42.3v.911h.649v-.016Zm3.3,3.092a.456.456,0,0,1-.334-.114.431.431,0,0,1-.123-.358,1.35,1.35,0,0,1-.508.358,1.962,1.962,0,0,1-.63.114,1.841,1.841,0,0,1-.422-.049,1.315,1.315,0,0,1-.35-.146.665.665,0,0,1-.228-.26.87.87,0,0,1-.088-.391.953.953,0,0,1,.088-.423.608.608,0,0,1,.245-.26,2.218,2.218,0,0,1,.351-.164,3.378,3.378,0,0,1,.4-.08,3.591,3.591,0,0,1,.42-.066,1.9,1.9,0,0,0,.351-.065.828.828,0,0,0,.246-.114.27.27,0,0,0,.087-.212.389.389,0,0,0-.07-.26.487.487,0,0,0-.175-.146.525.525,0,0,0-.228-.065,1.368,1.368,0,0,0-.263-.017,1.132,1.132,0,0,0-.56.114.5.5,0,0,0-.246.456h-.543a.954.954,0,0,1,.122-.472.87.87,0,0,1,.3-.31,1.518,1.518,0,0,1,.438-.178,2.61,2.61,0,0,1,.526-.05,4.033,4.033,0,0,1,.438.033,1.377,1.377,0,0,1,.386.114.7.7,0,0,1,.28.26.774.774,0,0,1,.106.424v1.562a1.105,1.105,0,0,0,.017.26.139.139,0,0,0,.14.082.519.519,0,0,0,.158-.033v.39a.651.651,0,0,1-.333.066Zm-.755-1.53c-.1.016-.227.033-.35.049l-.368.049a1.964,1.964,0,0,0-.333.081.647.647,0,0,0-.246.163.493.493,0,0,0-.035.5.347.347,0,0,0,.14.13.61.61,0,0,0,.21.082,1.108,1.108,0,0,0,.229.016,1.261,1.261,0,0,0,.455-.065,1.355,1.355,0,0,0,.316-.163.542.542,0,0,0,.175-.227.6.6,0,0,0,.053-.228V45.71a.478.478,0,0,1-.246.114Zm2.385-1.741v.5h.017A1.209,1.209,0,0,1,49.009,44a1.743,1.743,0,0,1,.56.081.839.839,0,0,1,.369.244.867.867,0,0,1,.192.374,1.964,1.964,0,0,1,.053.472v2.1h-.561V45.108a.626.626,0,0,0-.193-.472.732.732,0,0,0-.508-.179,1.323,1.323,0,0,0-.456.082.7.7,0,0,0-.315.211,1.028,1.028,0,0,0-.193.326,1.421,1.421,0,0,0-.07.406v1.807h-.561V44.1h.543v-.016Zm4.644,0v.472h-.683V46.54a.351.351,0,0,0,.017.147.168.168,0,0,0,.07.081.271.271,0,0,0,.123.033c.052,0,.123.016.21.016h.263v.456h-.438a2.192,2.192,0,0,1-.368-.033.472.472,0,0,1-.246-.1.52.52,0,0,1-.14-.211,1.044,1.044,0,0,1-.052-.358V44.555h-.579v-.472h.579v-.96h.56v.96h.684Z" fill="#12407d"/>
    </g>
    <g id="Group_119" data-name="Group 119">
      <path id="Path_719" data-name="Path 719" d="M8.415,0H48.028V36.777H8.415Z" fill="#12407d" opacity="0.5"/>
      <path id="Path_720" data-name="Path 720" d="M12.62,29.86H43.785L28.221,3.239Z" fill="#12407d"/>
      <g id="Group_118" data-name="Group 118">
        <path id="Path_721" data-name="Path 721" d="M35.74,17.3a4.47,4.47,0,0,0-.123,1.09v5.24a5.327,5.327,0,0,0,.158,1.074H32.918a4.031,4.031,0,0,0,.14-1.041V18.6a6.253,6.253,0,0,0-.193-1.286Zm9.64,0v1.595a3.293,3.293,0,0,0-.911-.13H40.052v1.969h4.242a4.727,4.727,0,0,0,1.086-.147v1.806a3.95,3.95,0,0,0-1.086-.146l-.824-.016H40.087v1.334a6.18,6.18,0,0,0,.14,1.14H37.44a5.759,5.759,0,0,0,.123-1.84v-4.54A4.844,4.844,0,0,0,37.4,17.3H45.38ZM22.331,19.023v4.491a5.293,5.293,0,0,0,.158,1.172H19.7a6.749,6.749,0,0,0,.14-1.888s.018-3.808,0-3.84l-2.208,4.507a4.876,4.876,0,0,0-.438,1.22H15.408a4.766,4.766,0,0,0-.438-1.17l-2.279-4.557.018,4.768a4.131,4.131,0,0,0,.157.944H11.043a5.643,5.643,0,0,0,.14-1.367V18.958a5.529,5.529,0,0,0-.192-1.709c0-.016,0,0,.017,0h3.558a6.033,6.033,0,0,0,.614,1.514l1.613,3.27,1.56-3.091a7.143,7.143,0,0,0,.683-1.677c-.035-.016.018,0,0,0h3.453a6.493,6.493,0,0,0-.158,1.758Zm3.769-.976a2.79,2.79,0,0,0,.228-.765h2.751a3.539,3.539,0,0,0,.316.846l3.3,6.558H29.78c-.034-.114-.052-.228-.087-.342a9.441,9.441,0,0,0-.56-1.3H25.346a7.451,7.451,0,0,0-.438.912c-.088.227-.158.488-.228.732H22.857l.964-1.985L26.1,18.047Zm1.122,1.041-1.3,2.8h2.612Z" fill="#fff"/>
      </g>
    </g>
  </g>
</svg>
