<svg xmlns="http://www.w3.org/2000/svg" width="15" height="20" viewBox="0 0 15 20">
  <g id="Arrow" transform="translate(-41.674 20) rotate(-90)">
    <g id="Group_109" data-name="Group 109" transform="translate(0 41.674)">
      <path id="Path_691" data-name="Path 691" d="M18.876,47.758l.031.006H5.524l4.207-3.807a.93.93,0,0,0,0-1.4l-.655-.591a1.18,1.18,0,0,0-1.546,0L.319,48.473a.928.928,0,0,0,0,1.4l7.212,6.512a1.181,1.181,0,0,0,1.546,0l.655-.591a.933.933,0,0,0,.319-.7.906.906,0,0,0-.319-.685L5.476,50.584H18.891A1.081,1.081,0,0,0,20,49.571v-.836A1.067,1.067,0,0,0,18.876,47.758Z" transform="translate(0 -41.674)" fill="#fff"/>
    </g>
  </g>
</svg>
