<svg xmlns="http://www.w3.org/2000/svg" width="34.949" height="38" viewBox="0 0 34.949 38">
  <path id="Andsss" d="M825.632,320.51a9.9,9.9,0,0,1,6.113,1.7,5.623,5.623,0,0,1,2.25,4.757,8.61,8.61,0,0,1-2.25,6,29.609,29.609,0,0,1-6.343,5.017,74.168,74.168,0,0,0,8.535,11.476,31.819,31.819,0,0,0,2.364-4.21,9.362,9.362,0,0,0,.923-2.537.732.732,0,0,0-.548-.721,4.092,4.092,0,0,0-1.24-.231,3.2,3.2,0,0,1-.808-.087,1.6,1.6,0,0,1-.115-.694.9.9,0,0,1,.173-.634h4.556q.864,0,1.816-.058t2.249-.116q1.3-.055,2.278-.114c.192.114.288.365.288.749,0,.577-.116.865-.345.865a9.5,9.5,0,0,0-2.134.346,7.387,7.387,0,0,0-1.845.634q-.058.058-.807,1.3t-2.191,3.374a40.373,40.373,0,0,1-3,3.921q1.326,1.384,1.845,1.9t1.384,1.3a7.025,7.025,0,0,0,1.384,1.038,2.31,2.31,0,0,0,1.039.26,2.624,2.624,0,0,0,1.758-.98,5.93,5.93,0,0,0,1.241-1.673,1.417,1.417,0,0,1,.893.346.939.939,0,0,1,.433.694q-.231.463-.519.923A13.482,13.482,0,0,1,844,356.373a5.264,5.264,0,0,1-1.961,1.412,6.834,6.834,0,0,1-2.8.548,6.056,6.056,0,0,1-3.172-1.038,10.467,10.467,0,0,1-2.538-2.076l-.923-1.038a15.765,15.765,0,0,1-10.5,4.325,12.484,12.484,0,0,1-8.159-2.48,8.334,8.334,0,0,1-3.028-6.8,8.44,8.44,0,0,1,2.538-6.257,28.484,28.484,0,0,1,7.035-4.815q-1.1-1.845-1.643-2.97a20.923,20.923,0,0,1-1.125-3.028,12.873,12.873,0,0,1-.577-3.747,7.438,7.438,0,0,1,2.423-5.593A8.436,8.436,0,0,1,825.632,320.51Zm5.651,32.35a45.582,45.582,0,0,1-4.036-4.844q-2.366-3.171-3.863-5.478l-1.557-2.306q-2.076,1.442-3.056,2.22a8.607,8.607,0,0,0-1.932,2.393,7.73,7.73,0,0,0,1.413,9.284,8.99,8.99,0,0,0,5.824,1.9,9.888,9.888,0,0,0,3.835-.865,9.562,9.562,0,0,0,3.374-2.307Zm-5.363-30.276a4.554,4.554,0,0,0-3.229,1.24,4.184,4.184,0,0,0-1.326,3.2q0,3.691,3,9.113a14.753,14.753,0,0,0,4.353-3.489,7.813,7.813,0,0,0,1.356-4.872,5.937,5.937,0,0,0-1.153-3.633,3.569,3.569,0,0,0-3-1.559Z" transform="translate(-810.923 -320.506)" fill="#fff"/>
</svg>
