<svg xmlns="http://www.w3.org/2000/svg" width="150.5" height="62.016" viewBox="0 0 150.5 62.016">
  <g id="Logo" transform="translate(-709.496 -437.5)">
    <path id="Partners" d="M3.2,21.2q-.17,0-3.094.142a.686.686,0,0,1-.113-.468c0-.237.038-.355.114-.355a4.177,4.177,0,0,0,1.008-.185q.667-.185.724-.383a8.6,8.6,0,0,0,.2-1.987V6.245a2.26,2.26,0,0,0-.4-1.533,1.448,1.448,0,0,0-.7-.468,2.385,2.385,0,0,0-.682-.128c-.18,0-.27-.019-.27-.057q0-.681.171-.709a33.486,33.486,0,0,0,3.917-.738.806.806,0,0,0,.142-.03c.056,0,.085.052.085.156a3.189,3.189,0,0,1-.03.384c-.019.15-.028.237-.028.255v.17a6.4,6.4,0,0,1,1.319-.638,4.533,4.533,0,0,1,1.576-.355A5.253,5.253,0,0,1,11.4,4.384a5.984,5.984,0,0,1,1.533,3.9,6.881,6.881,0,0,1-1.9,4.8,5.734,5.734,0,0,1-4.316,2.073q-.426,0-.752-.03a3.248,3.248,0,0,1-.582-.1,4.082,4.082,0,0,1-.4-.127q-.142-.056-.366-.152c-.15-.066-.246-.108-.284-.128a.572.572,0,0,0-.114.368v2.441a10.73,10.73,0,0,0,.227,2.526q.057.2.738.383a4.348,4.348,0,0,0,.965.185c.057,0,.095.118.114.355a1.069,1.069,0,0,1-.03.468Q3.395,21.2,3.2,21.2ZM4.784,4.414a1.647,1.647,0,0,0-.567,1.349v6.386a1.519,1.519,0,0,0,.823,1.291,3.262,3.262,0,0,0,1.788.525,3.057,3.057,0,0,0,2.668-1.5,6,6,0,0,0,1-3.379A5.351,5.351,0,0,0,9.228,5.321,3.935,3.935,0,0,0,6.233,3.944,2.2,2.2,0,0,0,4.784,4.414ZM82.418,15.172a11.852,11.852,0,0,1-1.178-.242q-.681-.17-1.051-.227a8.046,8.046,0,0,1-.326-1.419,10.1,10.1,0,0,1-.156-1.533.689.689,0,0,1,.34-.171q.426,0,.454.171a3.134,3.134,0,0,0,1.064,1.66,2.845,2.845,0,0,0,1.945.809,2.216,2.216,0,0,0,1.491-.5,1.781,1.781,0,0,0,.581-1.434A2.162,2.162,0,0,0,85.4,11.4a1.989,1.989,0,0,0-.6-.738,7.337,7.337,0,0,0-.766-.539q-.355-.212-1.007-.553t-.965-.539q-2.214-1.278-2.214-3.037a3.027,3.027,0,0,1,1.235-2.5,4.543,4.543,0,0,1,2.881-.965,10.122,10.122,0,0,1,1.576.156q.95.156,1.319.213a16.443,16.443,0,0,1,.34,2.9c0,.095-.123.142-.369.142q-.4,0-.426-.2a2.96,2.96,0,0,0-.809-1.5,2.038,2.038,0,0,0-1.518-.71q-2.044,0-2.044,1.675a2.284,2.284,0,0,0,.114.753,1.55,1.55,0,0,0,.44.624q.326.3.5.425a8.184,8.184,0,0,0,.752.454q.581.326.724.412c.076.038.3.165.667.383s.629.374.779.468.373.255.667.482a3.365,3.365,0,0,1,.639.611,3.783,3.783,0,0,1,.382.681,2.017,2.017,0,0,1,.185.837,3.537,3.537,0,0,1-1.306,2.8,4.554,4.554,0,0,1-3.066,1.122,7.8,7.8,0,0,1-1.091-.071Zm-44.082-.979a3.574,3.574,0,0,1-.951-2.668V4.314H35.739c-.1,0-.141-.2-.141-.6a.384.384,0,0,1,.028-.2,5.485,5.485,0,0,0,1.788-1.5,7.593,7.593,0,0,0,.609-.837q.3-.468.5-.809A2.684,2.684,0,0,0,38.72,0q.852,0,.852.142v2.81q.738,0,2.242.014l1.589.014q.227,0,.227.255a2.417,2.417,0,0,1-.284,1.079H39.572V11.27a2.7,2.7,0,0,0,.581,1.816,1.9,1.9,0,0,0,1.518.681,3.448,3.448,0,0,0,1.76-.54c.057-.037.142.043.255.242s.16.308.142.326a4.651,4.651,0,0,1-1.306.894,4.019,4.019,0,0,1-1.817.44,3.242,3.242,0,0,1-2.37-.938Zm-23.585.24a2.536,2.536,0,0,1-.851-2.086,2.354,2.354,0,0,1,.313-1.178,3.225,3.225,0,0,1,.738-.908,6.112,6.112,0,0,1,1.163-.722,11.368,11.368,0,0,1,1.263-.554q.526-.184,1.377-.468t1.192-.426a.393.393,0,0,0,.255-.426V5.536a1.768,1.768,0,0,0-.567-1.405,2,2,0,0,0-1.362-.5,1.9,1.9,0,0,0-1.42.582,2.08,2.08,0,0,0-.567,1.519q0,.993-1.164.993a1.169,1.169,0,0,1-1.107-.54q0-1.22,1.788-2.428a6.441,6.441,0,0,1,3.633-1.2,2.9,2.9,0,0,1,2.243.752,3.553,3.553,0,0,1,.681,2.428v6.556a1.559,1.559,0,0,0,.312.994,1.024,1.024,0,0,0,.851.4,1.929,1.929,0,0,0,.994-.4q.114,0,.114.227a1.109,1.109,0,0,1-.142.6A3.346,3.346,0,0,1,22.5,15.1a1.846,1.846,0,0,1-1.249-.54,2.99,2.99,0,0,1-.822-1.135.876.876,0,0,0-.213.184,5.348,5.348,0,0,1-.5.426,8.7,8.7,0,0,1-.724.5,4.127,4.127,0,0,1-.965.426,3.793,3.793,0,0,1-1.121.171,3.3,3.3,0,0,1-2.159-.7Zm4.343-4.867q-.881.284-1.377.5a2.943,2.943,0,0,0-.965.709,1.626,1.626,0,0,0-.468,1.15,1.459,1.459,0,0,0,.483,1.176,1.855,1.855,0,0,0,1.249.412,2.645,2.645,0,0,0,1.476-.468q.709-.469.709-.951V9.168A10.467,10.467,0,0,1,19.094,9.566Zm40.65,3.761A6.044,6.044,0,0,1,58.055,9a6.661,6.661,0,0,1,1.6-4.711,5.245,5.245,0,0,1,4.016-1.732,5.088,5.088,0,0,1,2.3.5,3.862,3.862,0,0,1,1.519,1.277,5.859,5.859,0,0,1,.766,1.589,5.615,5.615,0,0,1,.24,1.6q0,.568-.171.7a1.161,1.161,0,0,1-.653.128H60.524c-.15,0-.227.048-.227.142a5.526,5.526,0,0,0,1.079,3.293,3.6,3.6,0,0,0,3.122,1.5,5.51,5.51,0,0,0,1.135-.114,5.432,5.432,0,0,0,.923-.27,5.275,5.275,0,0,0,.653-.311,5.546,5.546,0,0,0,.468-.3l.2-.142q.17,0,.17.369a1.017,1.017,0,0,1-.17.51A5.209,5.209,0,0,1,66.2,14.461a4.746,4.746,0,0,1-2.412.638,5.39,5.39,0,0,1-4.045-1.772Zm1.391-8.459a4.253,4.253,0,0,0-.779,2.086c0,.133.057.2.17.2h5.536q.142,0,.141-.284a3.972,3.972,0,0,0-.766-2.087,2.34,2.34,0,0,0-2.044-1.178,2.5,2.5,0,0,0-2.258,1.263ZM72.628,14.874q-.17,0-3.094.142a.684.684,0,0,1-.114-.468c0-.236.037-.355.114-.355a4.152,4.152,0,0,0,1.007-.185q.667-.184.724-.382a8.575,8.575,0,0,0,.2-1.987V6.273a2.26,2.26,0,0,0-.4-1.533,1.456,1.456,0,0,0-.7-.468,2.4,2.4,0,0,0-.682-.127c-.18,0-.27-.019-.27-.057q0-.681.17-.709a33.311,33.311,0,0,0,3.917-.738.881.881,0,0,0,.142-.028c.075,0,.123.081.142.24a1.1,1.1,0,0,1,0,.355L73.62,4.626a5.913,5.913,0,0,1,1.405-1.434A2.967,2.967,0,0,1,76.8,2.525a2.478,2.478,0,0,1,2.213.824A2.61,2.61,0,0,1,78.7,4.8a.914.914,0,0,1-.766.454A1.239,1.239,0,0,1,77,4.768a1.472,1.472,0,0,0-1.164-.482,1.916,1.916,0,0,0-1.533.823,2.747,2.747,0,0,0-.653,1.732V11.1a10.711,10.711,0,0,0,.227,2.527q.057.2.752.382a4.5,4.5,0,0,0,.98.185c.057,0,.094.114.113.34a1.176,1.176,0,0,1-.028.483q-2.837-.14-3.064-.14Zm-17.141,0q-.057,0-2.98.142a.687.687,0,0,1-.113-.468q0-.355.113-.355a3.54,3.54,0,0,0,.951-.185q.61-.184.667-.382a8.6,8.6,0,0,0,.2-1.987V8.8a6.7,6.7,0,0,0-.681-3.605,2.52,2.52,0,0,0-2.213-.965,2.769,2.769,0,0,0-1.746.667q-.837.667-.837,1.206v5a10.7,10.7,0,0,0,.227,2.527c.037.132.284.26.738.382a4.322,4.322,0,0,0,.965.185q.085,0,.114.34a1.18,1.18,0,0,1-.03.483q-2.838-.142-3.037-.142-.171,0-3.095.142a.687.687,0,0,1-.114-.468q0-.355.114-.355a4.158,4.158,0,0,0,1.008-.185q.666-.184.724-.382a8.6,8.6,0,0,0,.2-1.987V6.273a2.26,2.26,0,0,0-.4-1.533,1.457,1.457,0,0,0-.7-.468,2.4,2.4,0,0,0-.681-.127c-.18,0-.27-.019-.27-.057q0-.681.171-.709A33.31,33.31,0,0,0,48.7,2.64a.893.893,0,0,0,.142-.028c.075,0,.123.081.141.24a1.1,1.1,0,0,1,0,.355,9.26,9.26,0,0,0-.114,1.135c0,.076.019.114.057.114.019,0,.047-.019.085-.057a7.2,7.2,0,0,1,1.773-1.292A4.5,4.5,0,0,1,52.931,2.5a2.917,2.917,0,0,1,2.782,1.419,9.883,9.883,0,0,1,.794,4.6V11.1a10.69,10.69,0,0,0,.228,2.527q.056.2.738.382a4.322,4.322,0,0,0,.965.185q.085,0,.113.34a1.181,1.181,0,0,1-.028.485q-2.839-.142-3.037-.142Zm-27.269,0q-.17,0-3.095.142a.687.687,0,0,1-.114-.468q0-.355.114-.355a4.158,4.158,0,0,0,1.008-.185q.666-.184.724-.382a8.606,8.606,0,0,0,.2-1.987V6.273a2.26,2.26,0,0,0-.4-1.533,1.453,1.453,0,0,0-.7-.468,2.4,2.4,0,0,0-.681-.127c-.18,0-.27-.019-.27-.057q0-.681.171-.709A33.311,33.311,0,0,0,29.1,2.64a.893.893,0,0,0,.142-.028c.075,0,.123.081.142.24a1.13,1.13,0,0,1,0,.355l-.17,1.42a5.9,5.9,0,0,1,1.4-1.434,2.967,2.967,0,0,1,1.772-.667A2.477,2.477,0,0,1,34.6,3.35,2.608,2.608,0,0,1,34.29,4.8a.913.913,0,0,1-.766.454,1.239,1.239,0,0,1-.936-.482,1.472,1.472,0,0,0-1.164-.482,1.916,1.916,0,0,0-1.533.823,2.747,2.747,0,0,0-.653,1.732V11.1a10.7,10.7,0,0,0,.227,2.527q.057.2.752.382a4.5,4.5,0,0,0,.979.185q.085,0,.113.34a1.184,1.184,0,0,1-.028.483q-2.837-.141-3.064-.141Z" transform="translate(771.614 477.654)" fill="#0d78c4" stroke="rgba(0,0,0,0)" stroke-width="1"/>
    <path id="And" d="M820.458,320.509a6.418,6.418,0,0,1,3.961,1.1,3.643,3.643,0,0,1,1.458,3.082,5.578,5.578,0,0,1-1.458,3.886,19.182,19.182,0,0,1-4.11,3.25,48.057,48.057,0,0,0,5.53,7.435,20.616,20.616,0,0,0,1.532-2.727,6.062,6.062,0,0,0,.6-1.644.474.474,0,0,0-.355-.467,2.652,2.652,0,0,0-.8-.15,2.075,2.075,0,0,1-.523-.056,1.036,1.036,0,0,1-.075-.45.58.58,0,0,1,.112-.411h2.952q.56,0,1.176-.037t1.457-.075q.842-.036,1.476-.074c.124.074.187.237.187.485,0,.374-.075.56-.224.56a6.157,6.157,0,0,0-1.383.224,4.789,4.789,0,0,0-1.2.411q-.038.038-.523.839t-1.42,2.186a26.136,26.136,0,0,1-1.943,2.54q.859.9,1.2,1.233t.9.839a4.549,4.549,0,0,0,.9.673,1.5,1.5,0,0,0,.673.168,1.7,1.7,0,0,0,1.139-.635,3.843,3.843,0,0,0,.8-1.084.918.918,0,0,1,.579.224.609.609,0,0,1,.281.45q-.15.3-.337.6a8.721,8.721,0,0,1-.654.859,3.412,3.412,0,0,1-1.271.915,4.429,4.429,0,0,1-1.812.355,3.925,3.925,0,0,1-2.055-.673A6.782,6.782,0,0,1,825.576,343l-.6-.673a10.214,10.214,0,0,1-6.8,2.8,8.088,8.088,0,0,1-5.286-1.607,5.4,5.4,0,0,1-1.962-4.409,5.467,5.467,0,0,1,1.644-4.054,18.454,18.454,0,0,1,4.558-3.12q-.71-1.2-1.064-1.924a13.56,13.56,0,0,1-.729-1.962,8.337,8.337,0,0,1-.374-2.428,4.819,4.819,0,0,1,1.57-3.624A5.466,5.466,0,0,1,820.458,320.509Zm3.662,20.96a29.517,29.517,0,0,1-2.615-3.139q-1.533-2.054-2.5-3.549l-1.009-1.494q-1.345.934-1.98,1.439a5.572,5.572,0,0,0-1.252,1.55,5.008,5.008,0,0,0,.916,6.015,5.825,5.825,0,0,0,3.773,1.233,6.405,6.405,0,0,0,2.485-.56A6.194,6.194,0,0,0,824.12,341.469Zm-3.474-19.616a2.95,2.95,0,0,0-2.092.8,2.711,2.711,0,0,0-.859,2.074,12.884,12.884,0,0,0,1.943,5.9,9.563,9.563,0,0,0,2.821-2.261,5.062,5.062,0,0,0,.879-3.157,3.848,3.848,0,0,0-.747-2.354A2.313,2.313,0,0,0,820.645,321.853Z" transform="translate(26.424 131.554)" fill="#0d78c4"/>
    <path id="Ikaros" d="M113.313,38.411q-.957-.138-2.269-.465t-2.023-.438a15.39,15.39,0,0,1-.629-2.734,19.464,19.464,0,0,1-.3-2.953,1.325,1.325,0,0,1,.656-.328q.82,0,.875.328a6.033,6.033,0,0,0,2.051,3.2,5.478,5.478,0,0,0,3.747,1.559,4.264,4.264,0,0,0,2.87-.957,3.432,3.432,0,0,0,1.121-2.761,4.17,4.17,0,0,0-.355-1.722,3.831,3.831,0,0,0-1.148-1.422,14.183,14.183,0,0,0-1.476-1.039q-.685-.409-1.941-1.066t-1.858-1.039q-4.265-2.46-4.265-5.85a5.831,5.831,0,0,1,2.377-4.811,8.752,8.752,0,0,1,5.55-1.858,19.494,19.494,0,0,1,3.034.3q1.831.3,2.542.41a31.755,31.755,0,0,1,.656,5.577q0,.274-.711.273-.766,0-.82-.382a5.707,5.707,0,0,0-1.559-2.9,3.924,3.924,0,0,0-2.925-1.367q-3.936,0-3.937,3.226a4.393,4.393,0,0,0,.219,1.449,2.979,2.979,0,0,0,.848,1.2q.629.574.956.82a16.113,16.113,0,0,0,1.449.875q1.12.629,1.394.793.217.11,1.285.738t1.5.9q.437.274,1.285.929a6.476,6.476,0,0,1,1.229,1.176,7.289,7.289,0,0,1,.737,1.312A3.922,3.922,0,0,1,123.838,31a6.814,6.814,0,0,1-2.516,5.386,8.779,8.779,0,0,1-5.9,2.159A15.051,15.051,0,0,1,113.313,38.411ZM84.886,34.747a11.877,11.877,0,0,1-3.5-8.611,11.868,11.868,0,0,1,3.39-8.585,11.881,11.881,0,0,1,16.9.055,11.729,11.729,0,0,1,3.5,8.53,12.03,12.03,0,0,1-3.417,8.611,11.15,11.15,0,0,1-8.392,3.582,11.41,11.41,0,0,1-8.476-3.582Zm3.035-15.911a11.119,11.119,0,0,0-1.832,6.479A12.713,12.713,0,0,0,88.413,33q2.324,3.2,5.44,3.2a5.565,5.565,0,0,0,4.757-2.734,11.378,11.378,0,0,0,1.858-6.561,12.286,12.286,0,0,0-2.351-7.573q-2.351-3.144-5.467-3.143a5.534,5.534,0,0,0-4.729,2.651ZM42.031,36.989a4.884,4.884,0,0,1-1.64-4.019,4.536,4.536,0,0,1,.6-2.269,6.223,6.223,0,0,1,1.422-1.75,11.76,11.76,0,0,1,2.242-1.394,21.915,21.915,0,0,1,2.433-1.067q1.011-.355,2.652-.9t2.3-.821a.757.757,0,0,0,.492-.82v-4.1a3.406,3.406,0,0,0-1.093-2.706,3.855,3.855,0,0,0-2.625-.956,3.663,3.663,0,0,0-2.734,1.121,4.008,4.008,0,0,0-1.093,2.925q0,1.914-2.242,1.914a2.252,2.252,0,0,1-2.132-1.039q0-2.35,3.445-4.676a12.38,12.38,0,0,1,7-2.324q3.006,0,4.32,1.449t1.312,4.676V32.861a3,3,0,0,0,.6,1.914,1.972,1.972,0,0,0,1.64.766,3.718,3.718,0,0,0,1.914-.766q.218,0,.219.438a2.146,2.146,0,0,1-.273,1.148q-2.243,1.915-3.827,1.914a3.557,3.557,0,0,1-2.406-1.039,5.76,5.76,0,0,1-1.585-2.188,1.691,1.691,0,0,0-.41.355,10.136,10.136,0,0,1-.957.82,16.846,16.846,0,0,1-1.394.957,7.963,7.963,0,0,1-1.858.82,7.313,7.313,0,0,1-2.159.33A6.357,6.357,0,0,1,42.031,36.989ZM50.4,27.612q-1.695.548-2.652.957a5.672,5.672,0,0,0-1.858,1.366,3.133,3.133,0,0,0-.9,2.215,2.819,2.819,0,0,0,.929,2.269,3.578,3.578,0,0,0,2.406.793,5.092,5.092,0,0,0,2.843-.9q1.366-.9,1.366-1.831V26.847a20.2,20.2,0,0,1-2.133.765ZM67.969,37.837q-.328,0-5.959.274a1.315,1.315,0,0,1-.219-.9q0-.684.219-.684a7.992,7.992,0,0,0,1.941-.355q1.283-.355,1.394-.738a16.558,16.558,0,0,0,.383-3.827V21.269a4.353,4.353,0,0,0-.765-2.953,2.8,2.8,0,0,0-1.34-.9,4.625,4.625,0,0,0-1.312-.246q-.52,0-.52-.109,0-1.312.33-1.367a64.284,64.284,0,0,0,7.546-1.421,1.617,1.617,0,0,0,.273-.055c.145,0,.237.156.273.465a2.084,2.084,0,0,1,0,.684L69.885,18.1a11.36,11.36,0,0,1,2.706-2.761,5.72,5.72,0,0,1,3.417-1.285q3.226,0,4.265,1.586a5.019,5.019,0,0,1-.6,2.787,1.759,1.759,0,0,1-1.478.877,2.386,2.386,0,0,1-1.8-.929,2.836,2.836,0,0,0-2.242-.929A3.692,3.692,0,0,0,71.2,19.029a5.29,5.29,0,0,0-1.259,3.335v8.2a20.648,20.648,0,0,0,.437,4.867q.109.383,1.449.738a8.635,8.635,0,0,0,1.886.355q.164,0,.218.657a2.281,2.281,0,0,1-.055.929q-5.468-.275-5.9-.275Zm-34.108,0q-.11,0-5.686.274a1.215,1.215,0,0,1-.219-.847q0-.629.219-.629a4.327,4.327,0,0,0,1.259-.219q.71-.217.711-.492a.228.228,0,0,0-.055-.164l-7.983-8.639-.656.164v3.28a26.272,26.272,0,0,0,.437,4.867q.109.383,1.422.738a8.3,8.3,0,0,0,1.858.355c.109,0,.182.219.219.657a2.278,2.278,0,0,1-.055.929q-5.468-.274-5.85-.274-.328,0-5.96.274a1.319,1.319,0,0,1-.219-.9q0-.684.219-.684a8,8,0,0,0,1.941-.355q1.283-.355,1.394-.738A16.557,16.557,0,0,0,17.24,31.6V7.928a17.827,17.827,0,0,0-.33-3.5q-.274-.874-2.787-.875h-.491c-.219,0-.33-.2-.33-.6q0-.874.33-.875,1.64-.164,3.034-.437a16.926,16.926,0,0,0,2.188-.547q.792-.273,1.339-.519a4.416,4.416,0,0,0,.765-.41L21.232,0h.109a.591.591,0,0,1,.438.3,1.514,1.514,0,0,1,.273.574,15.086,15.086,0,0,0-.6,4.758V24.768a3.641,3.641,0,0,0,1.367-.492q1.2-1.038,2.515-2.132L27.3,20.5q.656-.546,1.259-1.094a5.372,5.372,0,0,0,.82-.875,1.179,1.179,0,0,0,.219-.656q0-.656-1.2-.765a3.4,3.4,0,0,1-1.259-.218q-.383-1.093.055-1.259h4.319q.82,0,1.722-.055t2.133-.11q1.229-.053,2.159-.109a.546.546,0,0,1,.246.492,1.816,1.816,0,0,1-.082.711q-.11.328-.218.33a9.036,9.036,0,0,0-2.023.328,7.037,7.037,0,0,0-1.75.6,42.394,42.394,0,0,0-3.554,2.6,44.686,44.686,0,0,0-4.539,4.019q1.586,1.7,3.882,4.292t3.773,4.21q1.476,1.613,2.023,2.105a6.452,6.452,0,0,0,2.351,1.176,8.55,8.55,0,0,0,2.023.41c.145,0,.219.292.219.875a1.888,1.888,0,0,1-.055.6q-5.468-.273-5.96-.273Zm-27.687,0q-.383,0-5.96.274a1.321,1.321,0,0,1-.218-.9q0-.684.218-.684a8,8,0,0,0,1.942-.355q1.283-.355,1.393-.738A16.54,16.54,0,0,0,3.933,31.6V21.269a4.352,4.352,0,0,0-.765-2.953,2.8,2.8,0,0,0-1.338-.9,4.628,4.628,0,0,0-1.312-.246q-.52,0-.52-.109,0-1.312.328-1.367A64.211,64.211,0,0,0,7.87,14.271l.11-.055h.164c.145,0,.237.156.273.465a2.085,2.085,0,0,1,0,.684A31.963,31.963,0,0,0,8.144,19.3V30.565a20.648,20.648,0,0,0,.437,4.867q.109.383,1.422.738a8.3,8.3,0,0,0,1.858.355q.164,0,.219.656a2.278,2.278,0,0,1-.055.929q-5.467-.274-5.85-.274ZM3.688,7.463A2.64,2.64,0,0,1,2.9,5.522,2.745,2.745,0,1,1,5.629,8.257,2.64,2.64,0,0,1,3.688,7.463Z" transform="translate(710 438)" fill="#fff" stroke="rgba(0,0,0,0)" stroke-width="1"/>
  </g>
</svg>
