<svg xmlns="http://www.w3.org/2000/svg" width="232" height="18" viewBox="0 0 232 18">
  <g id="Line" transform="translate(-1154 -366)">
    <rect id="LineRight" width="100" height="2" rx="1" transform="translate(1286 374)" fill="#e1ebf3"/>
    <path id="And" d="M817.662,320.508a4.425,4.425,0,0,1,2.8.806,2.7,2.7,0,0,1,1.03,2.253,4.161,4.161,0,0,1-1.03,2.841,13.64,13.64,0,0,1-2.9,2.376,35.079,35.079,0,0,0,3.907,5.436,15.226,15.226,0,0,0,1.082-1.994,4.545,4.545,0,0,0,.423-1.2.345.345,0,0,0-.251-.342,1.818,1.818,0,0,0-.567-.11,1.416,1.416,0,0,1-.37-.041.779.779,0,0,1-.053-.329.434.434,0,0,1,.079-.3h2.086q.4,0,.831-.027t1.029-.055q.595-.026,1.043-.054c.088.054.132.173.132.355,0,.273-.053.41-.158.41a4.215,4.215,0,0,0-.977.164,3.3,3.3,0,0,0-.845.3q-.027.027-.37.614t-1,1.6a19.081,19.081,0,0,1-1.373,1.857q.607.656.845.9t.633.613a3.228,3.228,0,0,0,.633.492,1.029,1.029,0,0,0,.476.123,1.189,1.189,0,0,0,.8-.464,2.8,2.8,0,0,0,.568-.792.637.637,0,0,1,.409.164.447.447,0,0,1,.2.329q-.106.219-.238.437a6.322,6.322,0,0,1-.462.628,2.416,2.416,0,0,1-.9.669,3.038,3.038,0,0,1-1.28.26,2.71,2.71,0,0,1-1.452-.492,4.833,4.833,0,0,1-1.162-.983l-.422-.492a7.091,7.091,0,0,1-4.8,2.049,5.585,5.585,0,0,1-3.735-1.174,4.007,4.007,0,0,1-1.386-3.223,4.07,4.07,0,0,1,1.162-2.964,13.032,13.032,0,0,1,3.22-2.281q-.5-.874-.752-1.407a10.146,10.146,0,0,1-.515-1.434,6.293,6.293,0,0,1-.264-1.775,3.582,3.582,0,0,1,1.109-2.649A3.79,3.79,0,0,1,817.662,320.508Zm2.587,15.324a21.438,21.438,0,0,1-1.848-2.295q-1.083-1.5-1.768-2.595l-.713-1.093q-.95.683-1.4,1.052a4.051,4.051,0,0,0-.884,1.134,3.363,3.363,0,0,0-.436,1.693,3.318,3.318,0,0,0,1.083,2.7,4.025,4.025,0,0,0,2.666.9,4.81,4.81,0,0,0,3.3-1.5Zm-2.455-14.341a2.046,2.046,0,0,0-1.478.587,2.017,2.017,0,0,0-.607,1.516,9.651,9.651,0,0,0,1.373,4.317,6.809,6.809,0,0,0,1.993-1.653,3.794,3.794,0,0,0,.621-2.308,2.88,2.88,0,0,0-.528-1.721A1.619,1.619,0,0,0,817.794,321.491Z" transform="translate(451.072 45.494)" fill="#0d78c4"/>
    <rect id="LineLeft" width="100" height="2" rx="1" transform="translate(1154 374)" fill="#e1ebf3"/>
  </g>
</svg>
